SplineFontDB: 3.2
FontName: Vazirmatn-UI-Light
FullName: Vazirmatn UI Light
FamilyName: Vazirmatn UI Light
Weight: Light
Copyright: Copyright 2015 The Vazirmatn Project Authors (https://github.com/rastikerdar/vazirmatn)
Version: 33.003
ItalicAngle: 0
UnderlinePosition: -780
UnderlineWidth: 100
Ascent: 1638
Descent: 410
InvalidEm: 0
sfntRevision: 0x002100c5
LayerCount: 2
Layer: 0 1 "Back" 1
Layer: 1 1 "Fore" 0
XUID: [1021 361 -1614679662 5751340]
StyleMap: 0x0040
FSType: 0
OS2Version: 4
OS2_WeightWidthSlopeOnly: 0
OS2_UseTypoMetrics: 1
CreationTime: 1431850356
ModificationTime: 1724682725
PfmFamily: 81
TTFWeight: 300
TTFWidth: 5
LineGap: 0
VLineGap: 0
Panose: 0 0 0 0 0 0 0 0 0 0
OS2TypoAscent: 1950
OS2TypoAOffset: 0
OS2TypoDescent: -970
OS2TypoDOffset: 0
OS2TypoLinegap: 0
OS2WinAscent: 1950
OS2WinAOffset: 0
OS2WinDescent: 970
OS2WinDOffset: 0
HheadAscent: 2100
HheadAOffset: 0
HheadDescent: -1100
HheadDOffset: 0
OS2SubXSize: 1331
OS2SubYSize: 1433
OS2SubXOff: 0
OS2SubYOff: 286
OS2SupXSize: 1331
OS2SupYSize: 1433
OS2SupXOff: 0
OS2SupYOff: 983
OS2StrikeYSize: 102
OS2StrikeYPos: 530
OS2CapHeight: 1638
OS2XHeight: 1082
OS2Vendor: '    '
OS2CodePages: 00000041.20080000
OS2UnicodeRanges: 80002003.80000000.00000008.00000000
Lookup: 1 0 0 "'c2sc' Capitals to Small Capitals lookup 0" { "'c2sc' Capitals to Small Capitals lookup 0 subtable"  } ['c2sc' ('DFLT' <'dflt' > 'cyrl' <'dflt' > 'grek' <'dflt' > 'latn' <'AZE ' 'CRT ' 'FRA ' 'MOL ' 'NAV ' 'ROM ' 'TRK ' 'dflt' > ) ]
Lookup: 1 0 0 "'smcp' Lowercase to Small Capitals lookup 1" { "'smcp' Lowercase to Small Capitals lookup 1 subtable"  } ['smcp' ('DFLT' <'dflt' > 'cyrl' <'dflt' > 'grek' <'dflt' > 'latn' <'AZE ' 'CRT ' 'FRA ' 'MOL ' 'NAV ' 'ROM ' 'TRK ' 'dflt' > ) ]
Lookup: 1 0 0 "'unic' Unicase lookup 2" { "'unic' Unicase lookup 2 subtable"  } ['unic' ('DFLT' <'dflt' > 'cyrl' <'dflt' > 'grek' <'dflt' > 'latn' <'AZE ' 'CRT ' 'FRA ' 'MOL ' 'NAV ' 'ROM ' 'TRK ' 'dflt' > ) ]

StartChar: A
Encoding: 65 65 2
Width: 1308
VWidth: 1798
GlyphClass: 2
Flags: W
AnchorPoint: "Anchor-1" 686 -250 basechar 0
AnchorPoint: "Anchor-0" 672 1351 basechar 0
LayerCount: 2
Fore
SplineSet
1117 -250 m 1,0,-1
 972 145 l 1,1,-1
 337 145 l 1,2,-1
 193 -250 l 1,3,-1
 30 -250 l 1,4,-1
 583 1206 l 1,5,-1
 726 1206 l 1,6,-1
 1280 -250 l 1,7,-1
 1117 -250 l 1,0,-1
386 277 m 1,8,-1
 924 277 l 1,9,-1
 655 1012 l 1,10,-1
 386 277 l 1,8,-1
EndSplineSet
Substitution2: "'unic' Unicase lookup 2 subtable" A.unic
Substitution2: "'c2sc' Capitals to Small Capitals lookup 0 subtable" A.smcp
Position2: "'cpsp' Capital Spacing lookup 0 subtable" dx=36 dy=0 dh=72 dv=0
EndChar

StartChar: A.smcp
Encoding: 65537 -1 3
Width: 1133
GlyphClass: 2
Flags: W
AnchorPoint: "Anchor-1" 592 0 basechar 0
AnchorPoint: "Anchor-0" 581 1320 basechar 0
LayerCount: 2
Fore
SplineSet
955 0 m 1,0,-1
 839 295 l 1,1,-1
 296 295 l 1,2,-1
 179 0 l 1,3,-1
 22 0 l 1,4,-1
 499 1165 l 1,5,-1
 638 1165 l 1,6,-1
 1110 0 l 1,7,-1
 955 0 l 1,0,-1
346 422 m 1,8,-1
 789 422 l 1,9,-1
 568 981 l 1,10,-1
 346 422 l 1,8,-1
EndSplineSet
EndChar

StartChar: A.unic
Encoding: 65538 -1 4
Width: 1375
GlyphClass: 2
Flags: W
AnchorPoint: "Anchor-1" 682 0 basechar 0
AnchorPoint: "Anchor-0" 701 1632 basechar 0
LayerCount: 2
Fore
SplineSet
1082 0 m 1,0,1
 1070 31 1070 31 1063.5 78 c 128,-1,2
 1057 125 1057 125 1056 171 c 1,3,4
 986 96 986 96 863.5 38 c 128,-1,5
 741 -20 741 -20 572 -20 c 0,6,7
 435 -20 435 -20 332 31.5 c 128,-1,8
 229 83 229 83 172 175 c 128,-1,9
 115 267 115 267 115 386 c 0,10,11
 115 613 115 613 276 719.5 c 128,-1,12
 437 826 437 826 781 826 c 2,13,-1
 1055 826 l 1,14,-1
 1055 999 l 2,15,16
 1055 1157 1055 1157 961.5 1248.5 c 128,-1,17
 868 1340 868 1340 683 1340 c 0,18,19
 516 1340 516 1340 409.5 1264.5 c 128,-1,20
 303 1189 303 1189 303 1044 c 1,21,-1
 149 1045 l 1,22,23
 149 1170 149 1170 214.5 1267.5 c 128,-1,24
 280 1365 280 1365 401.5 1420.5 c 128,-1,25
 523 1476 523 1476 689 1476 c 0,26,27
 843 1476 843 1476 960.5 1423.5 c 128,-1,28
 1078 1371 1078 1371 1144.5 1265 c 128,-1,29
 1211 1159 1211 1159 1211 997 c 2,30,-1
 1211 245 l 2,31,32
 1211 186 1211 186 1220 122 c 128,-1,33
 1229 58 1229 58 1247 14 c 1,34,-1
 1247 0 l 1,35,-1
 1082 0 l 1,0,1
592 116 m 0,36,37
 766 116 766 116 888.5 183.5 c 128,-1,38
 1011 251 1011 251 1055 338 c 1,39,-1
 1055 695 l 1,40,-1
 803 695 l 2,41,42
 518 695 518 695 394.5 624 c 128,-1,43
 271 553 271 553 271 395 c 0,44,45
 271 277 271 277 354.5 196.5 c 128,-1,46
 438 116 438 116 592 116 c 0,36,37
EndSplineSet
EndChar

StartChar: AE
Encoding: 198 198 5
Width: 1890
VWidth: 1798
GlyphClass: 2
Flags: W
AnchorPoint: "Anchor-0" 939 1362 basechar 0
LayerCount: 2
Fore
SplineSet
1852 -122 m 1,0,-1
 1852 -250 l 1,1,-1
 1001 -250 l 1,2,-1
 985 121 l 1,3,-1
 405 121 l 1,4,-1
 188 -250 l 1,5,-1
 1 -250 l 1,6,-1
 882 1206 l 1,7,-1
 1790 1206 l 1,8,-1
 1790 1079 l 1,9,-1
 1098 1079 l 1,10,-1
 1120 572 l 1,11,-1
 1709 572 l 1,12,-1
 1709 445 l 1,13,-1
 1125 445 l 1,14,-1
 1149 -122 l 1,15,-1
 1852 -122 l 1,0,-1
490 266 m 1,16,-1
 979 266 l 1,17,-1
 947 1046 l 1,18,-1
 490 266 l 1,16,-1
EndSplineSet
Substitution2: "'c2sc' Capitals to Small Capitals lookup 0 subtable" AE.smcp
Position2: "'cpsp' Capital Spacing lookup 0 subtable" dx=36 dy=0 dh=72 dv=0
EndChar

StartChar: AE.smcp
Encoding: 65539 -1 6
Width: 1584
GlyphClass: 2
Flags: W
AnchorPoint: "Anchor-1" 896 0 basechar 0
AnchorPoint: "Anchor-0" 896 1290 basechar 0
LayerCount: 2
Fore
SplineSet
1513 126 m 1,0,-1
 1513 0 l 1,1,-1
 782 0 l 1,2,-1
 774 313 l 1,3,-1
 353 313 l 1,4,-1
 178 0 l 1,5,-1
 12 0 l 1,6,-1
 687 1165 l 1,7,-1
 1482 1165 l 1,8,-1
 1482 1039 l 1,9,-1
 907 1039 l 1,10,-1
 917 670 l 1,11,-1
 1412 670 l 1,12,-1
 1412 545 l 1,13,-1
 920 545 l 1,14,-1
 931 126 l 1,15,-1
 1513 126 l 1,0,-1
423 439 m 1,16,-1
 770 439 l 1,17,-1
 755 1033 l 1,18,-1
 423 439 l 1,16,-1
EndSplineSet
EndChar

StartChar: Aogonek
Encoding: 260 260 27
Width: 1308
VWidth: 1798
GlyphClass: 2
Flags: W
AnchorPoint: "Anchor-1" 686 -250 basechar 0
AnchorPoint: "Anchor-0" 672 1351 basechar 0
LayerCount: 2
Fore
SplineSet
30 -250 m 1,0,-1
 583 1206 l 1,1,-1
 726 1206 l 1,2,-1
 1280 -250 l 1,3,-1
 1251 -250 l 1,4,5
 1185 -300 1185 -300 1130.5 -355.5 c 128,-1,6
 1076 -411 1076 -411 1076 -478 c 0,7,8
 1076 -512 1076 -512 1094 -534 c 128,-1,9
 1112 -556 1112 -556 1158 -556 c 0,10,11
 1193 -556 1193 -556 1218.5 -546 c 128,-1,12
 1244 -536 1244 -536 1260 -527 c 1,13,-1
 1275 -630 l 1,14,15
 1252 -645 1252 -645 1215.5 -659.5 c 128,-1,16
 1179 -674 1179 -674 1123 -674 c 0,17,18
 1045 -674 1045 -674 993.5 -628.5 c 128,-1,19
 942 -583 942 -583 942 -494 c 0,20,21
 942 -428 942 -428 985.5 -363 c 128,-1,22
 1029 -298 1029 -298 1114 -242 c 1,23,-1
 972 145 l 1,24,-1
 337 145 l 1,25,-1
 193 -250 l 1,26,-1
 30 -250 l 1,0,-1
386 277 m 1,27,-1
 924 277 l 1,28,-1
 655 1012 l 1,29,-1
 386 277 l 1,27,-1
EndSplineSet
Substitution2: "'locl' Localized Forms in Latin lookup 8 subtable" Aogonek.NAV
Substitution2: "'unic' Unicase lookup 2 subtable" Aogonek.unic
Substitution2: "'c2sc' Capitals to Small Capitals lookup 0 subtable" Aogonek.smcp
Position2: "'cpsp' Capital Spacing lookup 0 subtable" dx=36 dy=0 dh=72 dv=0
EndChar

StartChar: Aogonek.smcp
Encoding: 65554 -1 29
Width: 1133
GlyphClass: 2
Flags: W
AnchorPoint: "Anchor-1" 592 0 basechar 0
AnchorPoint: "Anchor-0" 581 1320 basechar 0
LayerCount: 2
Fore
SplineSet
22 0 m 1,0,-1
 499 1165 l 1,1,-1
 638 1165 l 1,2,-1
 1110 0 l 1,3,-1
 1080 0 l 1,4,5
 1014 -50 1014 -50 959.5 -105.5 c 128,-1,6
 905 -161 905 -161 905 -228 c 0,7,8
 905 -262 905 -262 923 -284 c 128,-1,9
 941 -306 941 -306 987 -306 c 0,10,11
 1022 -306 1022 -306 1047.5 -296 c 128,-1,12
 1073 -286 1073 -286 1089 -277 c 1,13,-1
 1104 -380 l 1,14,15
 1081 -395 1081 -395 1044.5 -409.5 c 128,-1,16
 1008 -424 1008 -424 952 -424 c 0,17,18
 874 -424 874 -424 822.5 -378.5 c 128,-1,19
 771 -333 771 -333 771 -244 c 0,20,21
 771 -177 771 -177 816 -110.5 c 128,-1,22
 861 -44 861 -44 950 12 c 1,23,-1
 839 295 l 1,24,-1
 296 295 l 1,25,-1
 179 0 l 1,26,-1
 22 0 l 1,0,-1
346 422 m 1,27,-1
 789 422 l 1,28,-1
 568 981 l 1,29,-1
 346 422 l 1,27,-1
EndSplineSet
Substitution2: "'locl' Localized Forms in Latin lookup 8 subtable" Aogonek.smcp.NAV
EndChar

StartChar: B
Encoding: 66 66 41
Width: 1266
VWidth: 1798
GlyphClass: 2
Flags: W
AnchorPoint: "Anchor-1" 613 -240 basechar 0
AnchorPoint: "Anchor-0" 606 1362 basechar 0
LayerCount: 2
Fore
SplineSet
678 -250 m 2,0,-1
 177 -250 l 1,1,-1
 177 1206 l 1,2,-1
 630 1206 l 2,3,4
 853 1206 853 1206 979.5 1114 c 128,-1,5
 1106 1022 1106 1022 1106 822 c 0,6,7
 1106 716 1106 716 1047 635 c 128,-1,8
 988 554 988 554 885 513 c 1,9,10
 1011 482 1011 482 1081 386 c 128,-1,11
 1151 290 1151 290 1151 165 c 0,12,13
 1151 -36 1151 -36 1021.5 -143 c 128,-1,14
 892 -250 892 -250 678 -250 c 2,0,-1
630 1074 m 2,15,-1
 335 1074 l 1,16,-1
 335 570 l 1,17,-1
 640 570 l 2,18,19
 783 570 783 570 865 636 c 128,-1,20
 947 702 947 702 947 824 c 0,21,22
 947 954 947 954 868.5 1014 c 128,-1,23
 790 1074 790 1074 630 1074 c 2,15,-1
994 163 m 0,24,25
 994 286 994 286 920 363.5 c 128,-1,26
 846 441 846 441 687 441 c 2,27,-1
 335 441 l 1,28,-1
 335 -119 l 1,29,-1
 678 -119 l 2,30,31
 827 -119 827 -119 910.5 -43 c 128,-1,32
 994 33 994 33 994 163 c 0,24,25
EndSplineSet
Substitution2: "'c2sc' Capitals to Small Capitals lookup 0 subtable" B.smcp
Position2: "'cpsp' Capital Spacing lookup 0 subtable" dx=36 dy=0 dh=72 dv=0
EndChar

StartChar: B.smcp
Encoding: 65563 -1 42
Width: 1095
GlyphClass: 2
Flags: W
AnchorPoint: "Anchor-1" 536 10 basechar 0
AnchorPoint: "Anchor-0" 529 1320 basechar 0
LayerCount: 2
Fore
SplineSet
584 0 m 2,0,-1
 147 0 l 1,1,-1
 147 1165 l 1,2,-1
 535 1165 l 2,3,4
 730 1165 730 1165 845 1089 c 128,-1,5
 960 1013 960 1013 960 851 c 0,6,7
 960 767 960 767 911.5 702.5 c 128,-1,8
 863 638 863 638 772 607 c 1,9,10
 881 583 881 583 939.5 505 c 128,-1,11
 998 427 998 427 998 331 c 0,12,13
 998 168 998 168 885 84 c 128,-1,14
 772 0 772 0 584 0 c 2,0,-1
535 1037 m 2,15,-1
 299 1037 l 1,16,-1
 299 660 l 1,17,-1
 549 660 l 2,18,19
 671 660 671 660 739 707.5 c 128,-1,20
 807 755 807 755 807 846 c 0,21,22
 807 944 807 944 737.5 990.5 c 128,-1,23
 668 1037 668 1037 535 1037 c 2,15,-1
845 331 m 0,24,25
 845 423 845 423 784.5 482 c 128,-1,26
 724 541 724 541 593 541 c 2,27,-1
 299 541 l 1,28,-1
 299 128 l 1,29,-1
 584 128 l 2,30,31
 709 128 709 128 777 182 c 128,-1,32
 845 236 845 236 845 331 c 0,24,25
EndSplineSet
EndChar

StartChar: C
Encoding: 67 67 43
Width: 1332
VWidth: 1798
GlyphClass: 2
Flags: W
AnchorPoint: "Anchor-1" 680 -260 basechar 0
AnchorPoint: "Anchor-0" 680 1383 basechar 0
LayerCount: 2
Fore
SplineSet
1070 209 m 1,0,-1
 1228 209 l 1,1,2
 1206 -5 1206 -5 1070.5 -137.5 c 128,-1,3
 935 -270 935 -270 684 -270 c 0,4,5
 516 -270 516 -270 390.5 -187 c 128,-1,6
 265 -104 265 -104 195.5 46 c 128,-1,7
 126 196 126 196 126 396 c 2,8,-1
 126 559 l 2,9,10
 126 760 126 760 196 910 c 128,-1,11
 266 1060 266 1060 394 1143 c 128,-1,12
 522 1226 522 1226 697 1226 c 0,13,14
 937 1226 937 1226 1071.5 1095.5 c 128,-1,15
 1206 965 1206 965 1228 745 c 1,16,-1
 1070 745 l 1,17,18
 1048 909 1048 909 961.5 1001.5 c 128,-1,19
 875 1094 875 1094 697 1094 c 0,20,21
 498 1094 498 1094 391 947.5 c 128,-1,22
 284 801 284 801 284 561 c 2,23,-1
 284 396 l 2,24,25
 284 245 284 245 329 123.5 c 128,-1,26
 374 2 374 2 463 -68.5 c 128,-1,27
 552 -139 552 -139 684 -139 c 0,28,29
 873 -139 873 -139 959.5 -49.5 c 128,-1,30
 1046 40 1046 40 1070 209 c 1,0,-1
EndSplineSet
Substitution2: "'c2sc' Capitals to Small Capitals lookup 0 subtable" C.smcp
Position2: "'cpsp' Capital Spacing lookup 0 subtable" dx=36 dy=0 dh=72 dv=0
EndChar

StartChar: C.smcp
Encoding: 65564 -1 44
Width: 1146
GlyphClass: 2
Flags: W
AnchorPoint: "Anchor-1" 586 -4 basechar 0
AnchorPoint: "Anchor-0" 587 1320 basechar 0
LayerCount: 2
Fore
SplineSet
908 372 m 1,0,-1
 1061 372 l 1,1,2
 1042 198 1042 198 924 91 c 128,-1,3
 806 -16 806 -16 589 -16 c 0,4,5
 442 -16 442 -16 332.5 51 c 128,-1,6
 223 118 223 118 163 239 c 128,-1,7
 103 360 103 360 103 523 c 2,8,-1
 103 641 l 2,9,10
 103 805 103 805 163.5 926 c 128,-1,11
 224 1047 224 1047 334.5 1114 c 128,-1,12
 445 1181 445 1181 596 1181 c 0,13,14
 808 1181 808 1181 925 1074 c 128,-1,15
 1042 967 1042 967 1061 789 c 1,16,-1
 908 789 l 1,17,18
 892 914 892 914 820 983.5 c 128,-1,19
 748 1053 748 1053 596 1053 c 0,20,21
 433 1053 433 1053 344 943 c 128,-1,22
 255 833 255 833 255 642 c 2,23,-1
 255 523 l 2,24,25
 255 339 255 339 339 225 c 128,-1,26
 423 111 423 111 589 111 c 0,27,28
 744 111 744 111 817 177.5 c 128,-1,29
 890 244 890 244 908 372 c 1,0,-1
EndSplineSet
EndChar

StartChar: D
Encoding: 68 68 54
Width: 1343
VWidth: 1798
GlyphClass: 2
Flags: W
AnchorPoint: "Anchor-1" 613 -240 basechar 0
AnchorPoint: "Anchor-0" 609 1362 basechar 0
LayerCount: 2
Fore
SplineSet
573 -250 m 2,0,-1
 177 -250 l 1,1,-1
 177 1206 l 1,2,-1
 587 1206 l 2,3,4
 773 1206 773 1206 915.5 1123 c 128,-1,5
 1058 1040 1058 1040 1138 889 c 128,-1,6
 1218 738 1218 738 1218 533 c 2,7,-1
 1218 423 l 2,8,9
 1218 218 1218 218 1138 66.5 c 128,-1,10
 1058 -85 1058 -85 913 -167.5 c 128,-1,11
 768 -250 768 -250 573 -250 c 2,0,-1
587 1074 m 2,12,-1
 335 1074 l 1,13,-1
 335 -119 l 1,14,-1
 573 -119 l 2,15,16
 729 -119 729 -119 838.5 -51 c 128,-1,17
 948 17 948 17 1005 138.5 c 128,-1,18
 1062 260 1062 260 1062 423 c 2,19,-1
 1062 535 l 2,20,21
 1062 786 1062 786 934.5 930 c 128,-1,22
 807 1074 807 1074 587 1074 c 2,12,-1
EndSplineSet
Substitution2: "'c2sc' Capitals to Small Capitals lookup 0 subtable" D.smcp
Position2: "'cpsp' Capital Spacing lookup 0 subtable" dx=36 dy=0 dh=72 dv=0
EndChar

StartChar: D.smcp
Encoding: 65569 -1 55
Width: 1152
GlyphClass: 2
Flags: W
AnchorPoint: "Anchor-1" 500 10 basechar 0
AnchorPoint: "Anchor-0" 500 1320 basechar 0
LayerCount: 2
Fore
SplineSet
494 0 m 2,0,-1
 147 0 l 1,1,-1
 147 1165 l 1,2,-1
 504 1165 l 2,3,4
 665 1165 665 1165 788.5 1098 c 128,-1,5
 912 1031 912 1031 981.5 909 c 128,-1,6
 1051 787 1051 787 1051 623 c 2,7,-1
 1051 542 l 2,8,9
 1051 378 1051 378 981.5 256 c 128,-1,10
 912 134 912 134 786.5 67 c 128,-1,11
 661 0 661 0 494 0 c 2,0,-1
504 1037 m 2,12,-1
 299 1037 l 1,13,-1
 299 128 l 1,14,-1
 494 128 l 2,15,16
 690 128 690 128 794.5 240 c 128,-1,17
 899 352 899 352 899 542 c 2,18,-1
 899 625 l 2,19,20
 899 819 899 819 795 928 c 128,-1,21
 691 1037 691 1037 504 1037 c 2,12,-1
EndSplineSet
EndChar

StartChar: Dcroat
Encoding: 272 272 58
Width: 1373
VWidth: 1798
GlyphClass: 2
Flags: W
AnchorPoint: "Anchor-1" 613 -240 basechar 0
AnchorPoint: "Anchor-0" 609 1362 basechar 0
LayerCount: 2
Fore
SplineSet
603 -250 m 2,0,-1
 207 -250 l 1,1,-1
 207 427 l 1,2,-1
 50 427 l 1,3,-1
 50 555 l 1,4,-1
 207 555 l 1,5,-1
 207 1206 l 1,6,-1
 617 1206 l 2,7,8
 803 1206 803 1206 945.5 1123 c 128,-1,9
 1088 1040 1088 1040 1168 889 c 128,-1,10
 1248 738 1248 738 1248 533 c 2,11,-1
 1248 423 l 2,12,13
 1248 218 1248 218 1168 66.5 c 128,-1,14
 1088 -85 1088 -85 943 -167.5 c 128,-1,15
 798 -250 798 -250 603 -250 c 2,0,-1
675 555 m 1,16,-1
 675 427 l 1,17,-1
 365 427 l 1,18,-1
 365 -119 l 1,19,-1
 603 -119 l 2,20,21
 759 -119 759 -119 868 -51 c 128,-1,22
 977 17 977 17 1034.5 138.5 c 128,-1,23
 1092 260 1092 260 1092 423 c 2,24,-1
 1092 535 l 2,25,26
 1092 786 1092 786 964.5 930 c 128,-1,27
 837 1074 837 1074 617 1074 c 2,28,-1
 365 1074 l 1,29,-1
 365 555 l 1,30,-1
 675 555 l 1,16,-1
EndSplineSet
Substitution2: "'c2sc' Capitals to Small Capitals lookup 0 subtable" Dcroat.smcp
Position2: "'cpsp' Capital Spacing lookup 0 subtable" dx=36 dy=0 dh=72 dv=0
EndChar

StartChar: Delta
Encoding: 8710 8710 60
Width: 1436
GlyphClass: 2
Flags: W
LayerCount: 2
Fore
SplineSet
39 0 m 1,0,-1
 653 1456 l 1,1,-1
 797 1456 l 1,2,-1
 1386 0 l 1,3,-1
 39 0 l 1,0,-1
256 131 m 1,4,-1
 1171 131 l 1,5,-1
 724 1266 l 1,6,-1
 256 131 l 1,4,-1
EndSplineSet
Substitution2: "'c2sc' Capitals to Small Capitals lookup 0 subtable" Delta.smcp
Position2: "'cpsp' Capital Spacing lookup 0 subtable" dx=36 dy=0 dh=72 dv=0
EndChar

StartChar: Delta.smcp
Encoding: 65572 -1 61
Width: 1110
GlyphClass: 2
Flags: W
LayerCount: 2
Fore
SplineSet
22 0 m 1,0,-1
 482 1165 l 1,1,-1
 628 1165 l 1,2,-1
 1088 0 l 1,3,-1
 22 0 l 1,0,-1
581 913 m 1,4,-1
 555 1004 l 1,5,-1
 529 912 l 1,6,-1
 235 128 l 1,7,-1
 877 128 l 1,8,-1
 581 913 l 1,4,-1
EndSplineSet
EndChar

StartChar: E
Encoding: 69 69 62
Width: 1165
VWidth: 1798
GlyphClass: 2
Flags: W
AnchorPoint: "Anchor-1" 619 -240 basechar 0
AnchorPoint: "Anchor-0" 619 1362 basechar 0
LayerCount: 2
Fore
SplineSet
1092 -119 m 1,0,-1
 1092 -250 l 1,1,-1
 177 -250 l 1,2,-1
 177 1206 l 1,3,-1
 1085 1206 l 1,4,-1
 1085 1074 l 1,5,-1
 335 1074 l 1,6,-1
 335 567 l 1,7,-1
 990 567 l 1,8,-1
 990 435 l 1,9,-1
 335 435 l 1,10,-1
 335 -119 l 1,11,-1
 1092 -119 l 1,0,-1
EndSplineSet
Substitution2: "'unic' Unicase lookup 2 subtable" E.unic
Substitution2: "'c2sc' Capitals to Small Capitals lookup 0 subtable" E.smcp
Position2: "'cpsp' Capital Spacing lookup 0 subtable" dx=36 dy=0 dh=72 dv=0
EndChar

StartChar: E.smcp
Encoding: 65573 -1 63
Width: 999
GlyphClass: 2
Flags: W
AnchorPoint: "Anchor-1" 537 8 basechar 0
AnchorPoint: "Anchor-0" 537 1320 basechar 0
LayerCount: 2
Fore
SplineSet
941 128 m 1,0,-1
 941 0 l 1,1,-1
 147 0 l 1,2,-1
 147 1165 l 1,3,-1
 936 1165 l 1,4,-1
 936 1037 l 1,5,-1
 299 1037 l 1,6,-1
 299 667 l 1,7,-1
 854 667 l 1,8,-1
 854 540 l 1,9,-1
 299 540 l 1,10,-1
 299 128 l 1,11,-1
 941 128 l 1,0,-1
EndSplineSet
EndChar

StartChar: E.unic
Encoding: 65574 -1 64
Width: 1404
GlyphClass: 2
Flags: W
AnchorPoint: "Anchor-1" 743 10 basechar 0
AnchorPoint: "Anchor-0" 735 1643 basechar 0
LayerCount: 2
Fore
SplineSet
738 -21 m 0,0,1
 539 -21 539 -21 402 67.5 c 128,-1,2
 265 156 265 156 194 312 c 128,-1,3
 123 468 123 468 123 671 c 2,4,-1
 123 779 l 2,5,6
 123 988 123 988 201 1144.5 c 128,-1,7
 279 1301 279 1301 414 1388.5 c 128,-1,8
 549 1476 549 1476 720 1475 c 0,9,10
 995 1474 995 1474 1142.5 1309 c 128,-1,11
 1290 1144 1290 1144 1290 832 c 2,12,-1
 1290 689 l 1,13,-1
 280 689 l 1,14,-1
 280 671 l 2,15,16
 280 517 280 517 329.5 390 c 128,-1,17
 379 263 379 263 480.5 188.5 c 128,-1,18
 582 114 582 114 738 114 c 0,19,20
 879 114 879 114 982 171 c 128,-1,21
 1085 228 1085 228 1149 296 c 1,22,-1
 1241 207 l 1,23,24
 1188 150 1188 150 1117 97.5 c 128,-1,25
 1046 45 1046 45 952.5 12 c 128,-1,26
 859 -21 859 -21 738 -21 c 0,0,1
720 1340 m 0,27,28
 582 1340 582 1340 486.5 1272 c 128,-1,29
 391 1204 391 1204 339 1087 c 128,-1,30
 287 970 287 970 281 821 c 1,31,-1
 1133 821 l 1,32,-1
 1133 877 l 2,33,34
 1133 1083 1133 1083 1032.5 1211.5 c 128,-1,35
 932 1340 932 1340 720 1340 c 0,27,28
EndSplineSet
EndChar

StartChar: Eng
Encoding: 330 330 89
Width: 1427
VWidth: 1798
GlyphClass: 2
Flags: W
AnchorPoint: "Anchor-1" 720 -240 basechar 0
AnchorPoint: "Anchor-0" 726 1351 basechar 0
LayerCount: 2
Fore
SplineSet
172 1206 m 1,0,-1
 330 1206 l 1,1,-1
 1103 16 l 1,2,-1
 1103 1206 l 1,3,-1
 1261 1206 l 1,4,-1
 1261 -335 l 2,5,6
 1261 -505 1261 -505 1177 -596 c 128,-1,7
 1093 -687 1093 -687 945 -687 c 0,8,9
 885 -687 885 -687 831 -669 c 1,10,-1
 844 -541 l 1,11,12
 861 -547 861 -547 892.5 -551 c 128,-1,13
 924 -555 924 -555 943 -555 c 0,14,15
 1020 -555 1020 -555 1061.5 -497 c 128,-1,16
 1103 -439 1103 -439 1103 -335 c 2,17,-1
 1103 -250 l 1,18,-1
 330 941 l 1,19,-1
 330 -250 l 1,20,-1
 172 -250 l 1,21,-1
 172 1206 l 1,0,-1
EndSplineSet
Substitution2: "'c2sc' Capitals to Small Capitals lookup 0 subtable" Eng.smcp
Position2: "'cpsp' Capital Spacing lookup 0 subtable" dx=36 dy=0 dh=72 dv=0
EndChar

StartChar: Eng.smcp
Encoding: 65591 -1 90
Width: 1250
GlyphClass: 2
Flags: W
AnchorPoint: "Anchor-1" 619 4 basechar 0
AnchorPoint: "Anchor-0" 624 1320 basechar 0
LayerCount: 2
Fore
SplineSet
1104 1165 m 1,0,-1
 1104 -89 l 2,1,2
 1104 -258 1104 -258 1021 -347.5 c 128,-1,3
 938 -437 938 -437 791 -437 c 0,4,5
 732 -437 732 -437 679 -419 c 1,6,-1
 693 -288 l 1,7,8
 708 -294 708 -294 741 -298 c 128,-1,9
 774 -302 774 -302 791 -302 c 0,10,11
 868 -302 868 -302 910 -247.5 c 128,-1,12
 952 -193 952 -193 952 -89 c 2,13,-1
 952 0 l 1,14,-1
 299 926 l 1,15,-1
 299 0 l 1,16,-1
 147 0 l 1,17,-1
 147 1165 l 1,18,-1
 299 1165 l 1,19,-1
 952 240 l 1,20,-1
 952 1165 l 1,21,-1
 1104 1165 l 1,0,-1
EndSplineSet
EndChar

StartChar: Eogonek
Encoding: 280 280 91
Width: 1165
VWidth: 1798
GlyphClass: 2
Flags: W
AnchorPoint: "Anchor-1" 619 -240 basechar 0
AnchorPoint: "Anchor-0" 619 1362 basechar 0
LayerCount: 2
Fore
SplineSet
1092 -119 m 1,0,-1
 1092 -250 l 1,1,-1
 1023 -250 l 1,2,3
 957 -300 957 -300 902.5 -355.5 c 128,-1,4
 848 -411 848 -411 848 -478 c 0,5,6
 848 -512 848 -512 866 -534 c 128,-1,7
 884 -556 884 -556 930 -556 c 0,8,9
 965 -556 965 -556 990.5 -546 c 128,-1,10
 1016 -536 1016 -536 1032 -527 c 1,11,-1
 1047 -630 l 1,12,13
 1024 -645 1024 -645 987.5 -659.5 c 128,-1,14
 951 -674 951 -674 895 -674 c 0,15,16
 817 -674 817 -674 765.5 -628.5 c 128,-1,17
 714 -583 714 -583 714 -494 c 0,18,19
 714 -431 714 -431 754.5 -368 c 128,-1,20
 795 -305 795 -305 875 -250 c 1,21,-1
 177 -250 l 1,22,-1
 177 1206 l 1,23,-1
 1085 1206 l 1,24,-1
 1085 1074 l 1,25,-1
 335 1074 l 1,26,-1
 335 567 l 1,27,-1
 990 567 l 1,28,-1
 990 435 l 1,29,-1
 335 435 l 1,30,-1
 335 -119 l 1,31,-1
 1092 -119 l 1,0,-1
EndSplineSet
Substitution2: "'locl' Localized Forms in Latin lookup 8 subtable" Eogonek.NAV
Substitution2: "'unic' Unicase lookup 2 subtable" Eogonek.unic
Substitution2: "'c2sc' Capitals to Small Capitals lookup 0 subtable" Eogonek.smcp
Position2: "'cpsp' Capital Spacing lookup 0 subtable" dx=36 dy=0 dh=72 dv=0
EndChar

StartChar: Eogonek.smcp
Encoding: 65593 -1 93
Width: 999
GlyphClass: 2
Flags: W
AnchorPoint: "Anchor-1" 537 8 basechar 0
AnchorPoint: "Anchor-0" 537 1320 basechar 0
LayerCount: 2
Fore
SplineSet
941 128 m 1,0,-1
 941 0 l 1,1,-1
 883 0 l 1,2,3
 817 -50 817 -50 762.5 -105.5 c 128,-1,4
 708 -161 708 -161 708 -228 c 0,5,6
 708 -262 708 -262 726 -284 c 128,-1,7
 744 -306 744 -306 790 -306 c 0,8,9
 825 -306 825 -306 850.5 -296 c 128,-1,10
 876 -286 876 -286 892 -277 c 1,11,-1
 907 -380 l 1,12,13
 884 -395 884 -395 847 -409.5 c 128,-1,14
 810 -424 810 -424 754 -424 c 0,15,16
 677 -424 677 -424 625.5 -378.5 c 128,-1,17
 574 -333 574 -333 574 -244 c 0,18,19
 574 -181 574 -181 614.5 -118 c 128,-1,20
 655 -55 655 -55 735 0 c 1,21,-1
 147 0 l 1,22,-1
 147 1165 l 1,23,-1
 936 1165 l 1,24,-1
 936 1037 l 1,25,-1
 299 1037 l 1,26,-1
 299 667 l 1,27,-1
 854 667 l 1,28,-1
 854 540 l 1,29,-1
 299 540 l 1,30,-1
 299 128 l 1,31,-1
 941 128 l 1,0,-1
EndSplineSet
Substitution2: "'locl' Localized Forms in Latin lookup 8 subtable" Eogonek.smcp.NAV
EndChar

StartChar: Eth
Encoding: 208 208 96
Width: 1373
VWidth: 1798
GlyphClass: 2
Flags: W
AnchorPoint: "Anchor-1" 613 -240 basechar 0
AnchorPoint: "Anchor-0" 609 1362 basechar 0
LayerCount: 2
Fore
SplineSet
603 -250 m 2,0,-1
 207 -250 l 1,1,-1
 207 427 l 1,2,-1
 50 427 l 1,3,-1
 50 555 l 1,4,-1
 207 555 l 1,5,-1
 207 1206 l 1,6,-1
 617 1206 l 2,7,8
 803 1206 803 1206 945.5 1123 c 128,-1,9
 1088 1040 1088 1040 1168 889 c 128,-1,10
 1248 738 1248 738 1248 533 c 2,11,-1
 1248 423 l 2,12,13
 1248 218 1248 218 1168 66.5 c 128,-1,14
 1088 -85 1088 -85 943 -167.5 c 128,-1,15
 798 -250 798 -250 603 -250 c 2,0,-1
675 555 m 1,16,-1
 675 427 l 1,17,-1
 365 427 l 1,18,-1
 365 -119 l 1,19,-1
 603 -119 l 2,20,21
 759 -119 759 -119 868 -51 c 128,-1,22
 977 17 977 17 1034.5 138.5 c 128,-1,23
 1092 260 1092 260 1092 423 c 2,24,-1
 1092 535 l 2,25,26
 1092 786 1092 786 964.5 930 c 128,-1,27
 837 1074 837 1074 617 1074 c 2,28,-1
 365 1074 l 1,29,-1
 365 555 l 1,30,-1
 675 555 l 1,16,-1
EndSplineSet
Substitution2: "'c2sc' Capitals to Small Capitals lookup 0 subtable" Eth.smcp
Position2: "'cpsp' Capital Spacing lookup 0 subtable" dx=36 dy=0 dh=72 dv=0
EndChar

StartChar: Euro
Encoding: 8364 8364 98
Width: 1144
GlyphClass: 2
Flags: W
LayerCount: 2
Fore
SplineSet
814 110 m 0,0,1
 929 110 929 110 1033 144 c 1,2,-1
 1048 10 l 1,3,4
 933 -20 933 -20 813 -20 c 0,5,6
 655 -20 655 -20 533 44 c 128,-1,7
 411 108 411 108 342.5 235.5 c 128,-1,8
 274 363 274 363 274 553 c 1,9,-1
 89 553 l 1,10,-1
 89 659 l 1,11,-1
 274 659 l 1,12,-1
 274 809 l 1,13,-1
 89 809 l 1,14,-1
 89 917 l 1,15,-1
 274 917 l 1,16,17
 277 1103 277 1103 346 1227 c 128,-1,18
 415 1351 415 1351 535 1413.5 c 128,-1,19
 655 1476 655 1476 812 1476 c 0,20,21
 874 1476 874 1476 930.5 1467.5 c 128,-1,22
 987 1459 987 1459 1048 1445 c 1,23,-1
 1033 1310 l 1,24,25
 984 1326 984 1326 927.5 1335.5 c 128,-1,26
 871 1345 871 1345 813 1345 c 0,27,28
 641 1345 641 1345 538.5 1239.5 c 128,-1,29
 436 1134 436 1134 432 917 c 1,30,-1
 834 917 l 1,31,-1
 834 809 l 1,32,-1
 432 809 l 1,33,-1
 432 659 l 1,34,-1
 834 659 l 1,35,-1
 834 553 l 1,36,-1
 432 553 l 1,37,38
 432 330 432 330 536 220 c 128,-1,39
 640 110 640 110 814 110 c 0,0,1
EndSplineSet
Substitution2: "'c2sc' Capitals to Small Capitals lookup 0 subtable" Euro.smcp
Position2: "'cpsp' Capital Spacing lookup 0 subtable" dx=36 dy=0 dh=72 dv=0
EndChar

StartChar: Euro.smcp
Encoding: 65597 -1 99
Width: 978
GlyphClass: 2
Flags: W
LayerCount: 2
Fore
SplineSet
686 110 m 0,0,1
 745 110 745 110 791.5 117.5 c 128,-1,2
 838 125 838 125 890 140 c 1,3,-1
 910 14 l 1,4,5
 856 -1 856 -1 801.5 -9 c 128,-1,6
 747 -17 747 -17 686 -17 c 0,7,8
 482 -17 482 -17 362 94 c 128,-1,9
 242 205 242 205 223 415 c 1,10,-1
 60 415 l 1,11,-1
 60 519 l 1,12,-1
 220 519 l 1,13,-1
 220 640 l 1,14,-1
 60 640 l 1,15,-1
 60 744 l 1,16,-1
 223 744 l 1,17,18
 242 955 242 955 361 1068 c 128,-1,19
 480 1181 480 1181 684 1181 c 0,20,21
 746 1181 746 1181 798 1172.5 c 128,-1,22
 850 1164 850 1164 910 1150 c 1,23,-1
 894 1025 l 1,24,25
 844 1041 844 1041 793.5 1047.5 c 128,-1,26
 743 1054 743 1054 684 1054 c 0,27,28
 540 1054 540 1054 464.5 974.5 c 128,-1,29
 389 895 389 895 375 744 c 1,30,-1
 795 744 l 1,31,-1
 795 640 l 1,32,-1
 372 640 l 1,33,-1
 372 519 l 1,34,-1
 795 519 l 1,35,-1
 795 415 l 1,36,-1
 376 415 l 1,37,38
 391 267 391 267 467 188.5 c 128,-1,39
 543 110 543 110 686 110 c 0,0,1
EndSplineSet
EndChar

StartChar: F
Encoding: 70 70 100
Width: 1142
VWidth: 1798
GlyphClass: 2
Flags: W
AnchorPoint: "Anchor-1" 619 -240 basechar 0
AnchorPoint: "Anchor-0" 619 1362 basechar 0
LayerCount: 2
Fore
SplineSet
979 544 m 1,0,-1
 979 411 l 1,1,-1
 335 411 l 1,2,-1
 335 -250 l 1,3,-1
 177 -250 l 1,4,-1
 177 1206 l 1,5,-1
 1079 1206 l 1,6,-1
 1079 1074 l 1,7,-1
 335 1074 l 1,8,-1
 335 544 l 1,9,-1
 979 544 l 1,0,-1
EndSplineSet
Substitution2: "'c2sc' Capitals to Small Capitals lookup 0 subtable" F.smcp
Position2: "'cpsp' Capital Spacing lookup 0 subtable" dx=36 dy=0 dh=72 dv=0
EndChar

StartChar: F.smcp
Encoding: 65598 -1 101
Width: 980
GlyphClass: 2
Flags: W
AnchorPoint: "Anchor-1" 489 10 basechar 0
AnchorPoint: "Anchor-0" 541 1320 basechar 0
LayerCount: 2
Fore
SplineSet
847 644 m 1,0,-1
 847 516 l 1,1,-1
 299 516 l 1,2,-1
 299 0 l 1,3,-1
 147 0 l 1,4,-1
 147 1165 l 1,5,-1
 929 1165 l 1,6,-1
 929 1037 l 1,7,-1
 299 1037 l 1,8,-1
 299 644 l 1,9,-1
 847 644 l 1,0,-1
EndSplineSet
EndChar

StartChar: G
Encoding: 71 71 102
Width: 1398
VWidth: 1798
GlyphClass: 2
Flags: W
AnchorPoint: "Anchor-1" 730 -259 basechar 0
AnchorPoint: "Anchor-0" 672 1383 basechar 0
LayerCount: 2
Fore
SplineSet
1240 459 m 1,0,-1
 1240 -67 l 1,1,2
 1214 -105 1214 -105 1154 -152.5 c 128,-1,3
 1094 -200 1094 -200 991 -235 c 128,-1,4
 888 -270 888 -270 730 -270 c 0,5,6
 556 -270 556 -270 421.5 -188 c 128,-1,7
 287 -106 287 -106 210.5 46 c 128,-1,8
 134 198 134 198 134 409 c 2,9,-1
 134 553 l 2,10,11
 134 762 134 762 202.5 913 c 128,-1,12
 271 1064 271 1064 399.5 1145 c 128,-1,13
 528 1226 528 1226 709 1226 c 0,14,15
 874 1226 874 1226 985.5 1169 c 128,-1,16
 1097 1112 1097 1112 1160 1013 c 128,-1,17
 1223 914 1223 914 1240 788 c 1,18,-1
 1082 788 l 1,19,20
 1068 871 1068 871 1026.5 940.5 c 128,-1,21
 985 1010 985 1010 908 1052 c 128,-1,22
 831 1094 831 1094 709 1094 c 0,23,24
 501 1094 501 1094 397 947.5 c 128,-1,25
 293 801 293 801 293 555 c 2,26,-1
 293 409 l 2,27,28
 293 240 293 240 347.5 117 c 128,-1,29
 402 -6 402 -6 500.5 -72.5 c 128,-1,30
 599 -139 599 -139 731 -139 c 0,31,32
 892 -139 892 -139 972.5 -98.5 c 128,-1,33
 1053 -58 1053 -58 1083 -22 c 1,34,-1
 1083 328 l 1,35,-1
 719 328 l 1,36,-1
 719 459 l 1,37,-1
 1240 459 l 1,0,-1
EndSplineSet
Substitution2: "'c2sc' Capitals to Small Capitals lookup 0 subtable" G.smcp
Position2: "'cpsp' Capital Spacing lookup 0 subtable" dx=36 dy=0 dh=72 dv=0
EndChar

StartChar: G.smcp
Encoding: 65599 -1 103
Width: 1199
GlyphClass: 2
Flags: W
AnchorPoint: "Anchor-1" 591 -4 basechar 0
AnchorPoint: "Anchor-0" 584 1320 basechar 0
LayerCount: 2
Fore
SplineSet
1072 578 m 1,0,-1
 1072 145 l 1,1,2
 1049 114 1049 114 996 76.5 c 128,-1,3
 943 39 943 39 853 11.5 c 128,-1,4
 763 -16 763 -16 627 -16 c 0,5,6
 476 -16 476 -16 359.5 49.5 c 128,-1,7
 243 115 243 115 177 238 c 128,-1,8
 111 361 111 361 111 531 c 2,9,-1
 111 638 l 2,10,11
 111 892 111 892 244 1036.5 c 128,-1,12
 377 1181 377 1181 609 1181 c 0,13,14
 827 1181 827 1181 938.5 1079 c 128,-1,15
 1050 977 1050 977 1071 821 c 1,16,-1
 920 821 l 1,17,18
 903 918 903 918 832.5 985.5 c 128,-1,19
 762 1053 762 1053 610 1053 c 0,20,21
 439 1053 439 1053 351 942 c 128,-1,22
 263 831 263 831 263 640 c 2,23,-1
 263 531 l 2,24,25
 263 334 263 334 363 222.5 c 128,-1,26
 463 111 463 111 630 111 c 0,27,28
 761 111 761 111 828 140.5 c 128,-1,29
 895 170 895 170 920 195 c 1,30,-1
 920 456 l 1,31,-1
 615 456 l 1,32,-1
 615 578 l 1,33,-1
 1072 578 l 1,0,-1
EndSplineSet
EndChar

StartChar: Germandbls.smcp
Encoding: 65604 -1 111
Width: 1095
GlyphClass: 2
Flags: W
LayerCount: 2
Fore
SplineSet
389 32 m 1,0,-1
 435 158 l 1,1,2
 467 139 467 139 512.5 123 c 128,-1,3
 558 107 558 107 615 107 c 0,4,5
 728 107 728 107 793 172 c 128,-1,6
 858 237 858 237 858 349 c 0,7,8
 858 452 858 452 786 502.5 c 128,-1,9
 714 553 714 553 561 553 c 2,10,-1
 483 553 l 1,11,-1
 483 669 l 1,12,-1
 741 973 l 1,13,14
 707 1005 707 1005 657 1030 c 128,-1,15
 607 1055 607 1055 536 1055 c 0,16,17
 403 1055 403 1055 350.5 970.5 c 128,-1,18
 298 886 298 886 298 751 c 2,19,-1
 298 0 l 1,20,-1
 147 0 l 1,21,-1
 147 753 l 1,22,-1
 147 753 l 1,23,24
 148 961 148 961 240.5 1071 c 128,-1,25
 333 1181 333 1181 536 1181 c 0,26,27
 663 1181 663 1181 757 1128.5 c 128,-1,28
 851 1076 851 1076 927 996 c 1,29,-1
 643 667 l 1,30,31
 817 656 817 656 914 574 c 128,-1,32
 1011 492 1011 492 1011 352 c 0,33,34
 1011 174 1011 174 901.5 76.5 c 128,-1,35
 792 -21 792 -21 615 -21 c 0,36,37
 557 -21 557 -21 500 -8.5 c 128,-1,38
 443 4 443 4 389 32 c 1,0,-1
EndSplineSet
EndChar

StartChar: H
Encoding: 72 72 112
Width: 1455
VWidth: 1798
GlyphClass: 2
Flags: W
AnchorPoint: "Anchor-1" 714 -240 basechar 0
AnchorPoint: "Anchor-0" 712 1362 basechar 0
LayerCount: 2
Fore
SplineSet
335 1206 m 1,0,-1
 335 567 l 1,1,-1
 1118 567 l 1,2,-1
 1118 1206 l 1,3,-1
 1276 1206 l 1,4,-1
 1276 -250 l 1,5,-1
 1118 -250 l 1,6,-1
 1118 435 l 1,7,-1
 335 435 l 1,8,-1
 335 -250 l 1,9,-1
 177 -250 l 1,10,-1
 177 1206 l 1,11,-1
 335 1206 l 1,0,-1
EndSplineSet
Substitution2: "'c2sc' Capitals to Small Capitals lookup 0 subtable" H.smcp
Position2: "'cpsp' Capital Spacing lookup 0 subtable" dx=36 dy=0 dh=72 dv=0
EndChar

StartChar: H.smcp
Encoding: 65605 -1 113
Width: 1249
GlyphClass: 2
Flags: W
AnchorPoint: "Anchor-1" 615 10 basechar 0
AnchorPoint: "Anchor-0" 615 1320 basechar 0
LayerCount: 2
Fore
SplineSet
299 1165 m 1,0,-1
 299 639 l 1,1,-1
 949 639 l 1,2,-1
 949 1165 l 1,3,-1
 1102 1165 l 1,4,-1
 1102 0 l 1,5,-1
 949 0 l 1,6,-1
 949 511 l 1,7,-1
 299 511 l 1,8,-1
 299 0 l 1,9,-1
 147 0 l 1,10,-1
 147 1165 l 1,11,-1
 299 1165 l 1,0,-1
EndSplineSet
EndChar

StartChar: Hbar
Encoding: 294 294 114
Width: 1424
VWidth: 1798
GlyphClass: 2
Flags: W
AnchorPoint: "Anchor-1" 724 -240 basechar 0
AnchorPoint: "Anchor-0" 724 1362 basechar 0
LayerCount: 2
Fore
SplineSet
320 1206 m 1,0,-1
 320 896 l 1,1,-1
 1103 896 l 1,2,-1
 1103 1206 l 1,3,-1
 1262 1206 l 1,4,-1
 1262 896 l 1,5,-1
 1401 896 l 1,6,-1
 1401 775 l 1,7,-1
 1262 775 l 1,8,-1
 1262 -250 l 1,9,-1
 1103 -250 l 1,10,-1
 1103 435 l 1,11,-1
 320 435 l 1,12,-1
 320 -250 l 1,13,-1
 163 -250 l 1,14,-1
 163 775 l 1,15,-1
 28 775 l 1,16,-1
 28 896 l 1,17,-1
 163 896 l 1,18,-1
 163 1206 l 1,19,-1
 320 1206 l 1,0,-1
320 567 m 1,20,-1
 1103 567 l 1,21,-1
 1103 775 l 1,22,-1
 320 775 l 1,23,-1
 320 567 l 1,20,-1
EndSplineSet
Substitution2: "'c2sc' Capitals to Small Capitals lookup 0 subtable" Hbar.smcp
Position2: "'cpsp' Capital Spacing lookup 0 subtable" dx=36 dy=0 dh=72 dv=0
EndChar

StartChar: Hbar.smcp
Encoding: 65606 -1 115
Width: 1248
GlyphClass: 2
Flags: W
AnchorPoint: "Anchor-1" 615 10 basechar 0
AnchorPoint: "Anchor-0" 615 1320 basechar 0
LayerCount: 2
Fore
SplineSet
299 1165 m 1,0,-1
 299 981 l 1,1,-1
 949 981 l 1,2,-1
 949 1165 l 1,3,-1
 1102 1165 l 1,4,-1
 1102 981 l 1,5,-1
 1192 981 l 1,6,-1
 1192 853 l 1,7,-1
 1102 853 l 1,8,-1
 1102 0 l 1,9,-1
 949 0 l 1,10,-1
 949 511 l 1,11,-1
 299 511 l 1,12,-1
 299 0 l 1,13,-1
 147 0 l 1,14,-1
 147 853 l 1,15,-1
 56 853 l 1,16,-1
 56 981 l 1,17,-1
 147 981 l 1,18,-1
 147 1165 l 1,19,-1
 299 1165 l 1,0,-1
299 639 m 1,20,-1
 949 639 l 1,21,-1
 949 853 l 1,22,-1
 299 853 l 1,23,-1
 299 639 l 1,20,-1
EndSplineSet
EndChar

StartChar: I
Encoding: 73 73 118
Width: 551
VWidth: 1798
GlyphClass: 2
Flags: W
AnchorPoint: "Anchor-1" 279 -241 basechar 0
AnchorPoint: "Anchor-0" 279 1362 basechar 0
LayerCount: 2
Fore
SplineSet
356 1206 m 1,0,-1
 356 -250 l 1,1,-1
 197 -250 l 1,2,-1
 197 1206 l 1,3,-1
 356 1206 l 1,0,-1
EndSplineSet
Substitution2: "'c2sc' Capitals to Small Capitals lookup 0 subtable" I.smcp
Position2: "'cpsp' Capital Spacing lookup 0 subtable" dx=36 dy=0 dh=72 dv=0
EndChar

StartChar: I.smcp
Encoding: 65608 -1 119
Width: 482
GlyphClass: 2
Flags: W
AnchorPoint: "Anchor-1" 244 4 basechar 0
AnchorPoint: "Anchor-0" 244 1320 basechar 0
LayerCount: 2
Fore
SplineSet
317 1165 m 1,0,-1
 317 0 l 1,1,-1
 165 0 l 1,2,-1
 165 1165 l 1,3,-1
 317 1165 l 1,0,-1
EndSplineSet
EndChar

StartChar: J
Encoding: 74 74 140
Width: 1129
VWidth: 1798
GlyphClass: 2
Flags: W
AnchorPoint: "Anchor-1" 512 -260 basechar 0
AnchorPoint: "Anchor-0" 852 1349 basechar 0
LayerCount: 2
Fore
SplineSet
804 179 m 2,0,-1
 804 1206 l 1,1,-1
 962 1206 l 1,2,-1
 962 179 l 2,3,4
 962 34 962 34 903.5 -66 c 128,-1,5
 845 -166 845 -166 743.5 -218 c 128,-1,6
 642 -270 642 -270 512 -270 c 0,7,8
 313 -270 313 -270 187.5 -166 c 128,-1,9
 62 -62 62 -62 62 153 c 1,10,-1
 221 153 l 1,11,12
 221 5 221 5 300 -67 c 128,-1,13
 379 -139 379 -139 512 -139 c 0,14,15
 635 -139 635 -139 719.5 -58.5 c 128,-1,16
 804 22 804 22 804 179 c 2,0,-1
EndSplineSet
Substitution2: "'c2sc' Capitals to Small Capitals lookup 0 subtable" J.smcp
Position2: "'cpsp' Capital Spacing lookup 0 subtable" dx=36 dy=0 dh=72 dv=0
EndChar

StartChar: J.smcp
Encoding: 65619 -1 141
Width: 973
GlyphClass: 2
Flags: W
AnchorPoint: "Anchor-1" 457 -10 basechar 0
AnchorPoint: "Anchor-0" 734 1320 basechar 0
LayerCount: 2
Fore
SplineSet
681 338 m 2,0,-1
 681 1165 l 1,1,-1
 834 1165 l 1,2,-1
 834 338 l 2,3,4
 834 172 834 172 726.5 78 c 128,-1,5
 619 -16 619 -16 455 -16 c 0,6,7
 280 -16 280 -16 166 69 c 128,-1,8
 52 154 52 154 52 329 c 1,9,-1
 205 329 l 1,10,11
 205 217 205 217 272.5 164 c 128,-1,12
 340 111 340 111 455 111 c 0,13,14
 554 111 554 111 617.5 171.5 c 128,-1,15
 681 232 681 232 681 338 c 2,0,-1
EndSplineSet
EndChar

StartChar: K
Encoding: 75 75 144
Width: 1289
VWidth: 1798
GlyphClass: 2
Flags: W
AnchorPoint: "Anchor-1" 660 -160 basechar 0
AnchorPoint: "Anchor-0" 605 1345 basechar 0
LayerCount: 2
Fore
SplineSet
1080 -250 m 1,0,-1
 527 451 l 1,1,-1
 335 257 l 1,2,-1
 335 -250 l 1,3,-1
 177 -250 l 1,4,-1
 177 1206 l 1,5,-1
 335 1206 l 1,6,-1
 335 455 l 1,7,-1
 513 646 l 1,8,-1
 1031 1206 l 1,9,-1
 1225 1206 l 1,10,-1
 634 561 l 1,11,-1
 1270 -250 l 1,12,-1
 1080 -250 l 1,0,-1
EndSplineSet
Substitution2: "'salt' Stylistic Alternatives lookup 13 subtable" K.alt
Substitution2: "'c2sc' Capitals to Small Capitals lookup 0 subtable" K.smcp
Position2: "'cpsp' Capital Spacing lookup 0 subtable" dx=36 dy=0 dh=72 dv=0
EndChar

StartChar: K.alt
Encoding: 65621 -1 145
Width: 1312
GlyphClass: 2
Flags: W
LayerCount: 2
Fore
SplineSet
1095 0 m 1,0,-1
 531 669 l 1,1,-1
 342 669 l 1,2,-1
 342 0 l 1,3,-1
 184 0 l 1,4,-1
 184 1456 l 1,5,-1
 342 1456 l 1,6,-1
 342 802 l 1,7,-1
 514 802 l 1,8,-1
 1049 1456 l 1,9,-1
 1246 1456 l 1,10,-1
 670 746 l 1,11,-1
 1289 0 l 1,12,-1
 1095 0 l 1,0,-1
EndSplineSet
EndChar

StartChar: K.smcp
Encoding: 65622 -1 146
Width: 1111
GlyphClass: 2
Flags: W
AnchorPoint: "Anchor-1" 532 6 basechar 0
AnchorPoint: "Anchor-0" 518 1320 basechar 0
LayerCount: 2
Fore
SplineSet
912 0 m 1,0,-1
 459 543 l 1,1,-1
 299 391 l 1,2,-1
 299 0 l 1,3,-1
 147 0 l 1,4,-1
 147 1165 l 1,5,-1
 299 1165 l 1,6,-1
 299 581 l 1,7,-1
 447 737 l 1,8,-1
 871 1165 l 1,9,-1
 1061 1165 l 1,10,-1
 565 646 l 1,11,-1
 1098 0 l 1,12,-1
 912 0 l 1,0,-1
EndSplineSet
EndChar

StartChar: L
Encoding: 76 76 149
Width: 1092
VWidth: 1798
GlyphClass: 2
Flags: W
AnchorPoint: "Anchor-1" 620 -240 basechar 0
AnchorPoint: "Anchor-0" 264 1346 basechar 0
LayerCount: 2
Fore
SplineSet
1040 -119 m 1,0,-1
 1040 -250 l 1,1,-1
 177 -250 l 1,2,-1
 177 1206 l 1,3,-1
 335 1206 l 1,4,-1
 335 -119 l 1,5,-1
 1040 -119 l 1,0,-1
EndSplineSet
Substitution2: "'c2sc' Capitals to Small Capitals lookup 0 subtable" L.smcp
Position2: "'cpsp' Capital Spacing lookup 0 subtable" dx=36 dy=0 dh=72 dv=0
EndChar

StartChar: L.smcp
Encoding: 65624 -1 150
Width: 940
GlyphClass: 2
Flags: W
AnchorPoint: "Anchor-1" 527 8 basechar 0
AnchorPoint: "Anchor-0" 233 1320 basechar 0
LayerCount: 2
Fore
SplineSet
896 128 m 1,0,-1
 896 0 l 1,1,-1
 147 0 l 1,2,-1
 147 1165 l 1,3,-1
 299 1165 l 1,4,-1
 299 128 l 1,5,-1
 896 128 l 1,0,-1
EndSplineSet
EndChar

StartChar: Lslash
Encoding: 321 321 161
Width: 1093
VWidth: 1798
GlyphClass: 2
Flags: W
AnchorPoint: "Anchor-1" 618 -240 basechar 0
AnchorPoint: "Anchor-0" 262 1346 basechar 0
LayerCount: 2
Fore
SplineSet
1038 -119 m 1,0,-1
 1038 -250 l 1,1,-1
 175 -250 l 1,2,-1
 175 424 l 1,3,-1
 28 377 l 1,4,-1
 28 485 l 1,5,-1
 175 532 l 1,6,-1
 175 1206 l 1,7,-1
 333 1206 l 1,8,-1
 333 582 l 1,9,-1
 618 672 l 1,10,-1
 618 564 l 1,11,-1
 333 474 l 1,12,-1
 333 -119 l 1,13,-1
 1038 -119 l 1,0,-1
EndSplineSet
Substitution2: "'c2sc' Capitals to Small Capitals lookup 0 subtable" Lslash.smcp
Position2: "'cpsp' Capital Spacing lookup 0 subtable" dx=36 dy=0 dh=72 dv=0
EndChar

StartChar: Lslash.smcp
Encoding: 65631 -1 162
Width: 940
GlyphClass: 2
Flags: W
AnchorPoint: "Anchor-1" 527 8 basechar 0
AnchorPoint: "Anchor-0" 233 1320 basechar 0
LayerCount: 2
Fore
SplineSet
896 128 m 1,0,-1
 896 0 l 1,1,-1
 147 0 l 1,2,-1
 147 514 l 1,3,-1
 3 468 l 1,4,-1
 3 576 l 1,5,-1
 147 622 l 1,6,-1
 147 1165 l 1,7,-1
 299 1165 l 1,8,-1
 299 670 l 1,9,-1
 592 763 l 1,10,-1
 592 655 l 1,11,-1
 299 562 l 1,12,-1
 299 128 l 1,13,-1
 896 128 l 1,0,-1
EndSplineSet
EndChar

StartChar: M
Encoding: 77 77 163
Width: 1780
VWidth: 1798
GlyphClass: 2
Flags: W
AnchorPoint: "Anchor-1" 893 -240 basechar 0
AnchorPoint: "Anchor-0" 890 1351 basechar 0
LayerCount: 2
Fore
SplineSet
177 1206 m 1,0,-1
 382 1206 l 1,1,-1
 890 -28 l 1,2,-1
 1397 1206 l 1,3,-1
 1603 1206 l 1,4,-1
 1603 -250 l 1,5,-1
 1445 -250 l 1,6,-1
 1445 352 l 1,7,-1
 1460 981 l 1,8,-1
 949 -250 l 1,9,-1
 829 -250 l 1,10,-1
 319 983 l 1,11,-1
 334 352 l 1,12,-1
 334 -250 l 1,13,-1
 177 -250 l 1,14,-1
 177 1206 l 1,0,-1
EndSplineSet
Substitution2: "'unic' Unicase lookup 2 subtable" M.unic
Substitution2: "'c2sc' Capitals to Small Capitals lookup 0 subtable" M.smcp
Position2: "'cpsp' Capital Spacing lookup 0 subtable" dx=36 dy=0 dh=72 dv=0
EndChar

StartChar: M.smcp
Encoding: 65632 -1 164
Width: 1532
GlyphClass: 2
Flags: W
AnchorPoint: "Anchor-1" 765 10 basechar 0
AnchorPoint: "Anchor-0" 765 1320 basechar 0
LayerCount: 2
Fore
SplineSet
147 1165 m 1,0,-1
 345 1165 l 1,1,-1
 765 211 l 1,2,-1
 1185 1165 l 1,3,-1
 1385 1165 l 1,4,-1
 1385 0 l 1,5,-1
 1233 0 l 1,6,-1
 1233 439 l 1,7,-1
 1249 977 l 1,8,-1
 821 0 l 1,9,-1
 709 0 l 1,10,-1
 283 974 l 1,11,-1
 298 439 l 1,12,-1
 298 0 l 1,13,-1
 147 0 l 1,14,-1
 147 1165 l 1,0,-1
EndSplineSet
EndChar

StartChar: M.unic
Encoding: 65633 -1 165
Width: 2223
GlyphClass: 2
Flags: W
AnchorPoint: "Anchor-1" 1118 10 basechar 0
AnchorPoint: "Anchor-0" 1114 1632 basechar 0
LayerCount: 2
Fore
SplineSet
733 1340 m 0,0,1
 632 1340 632 1340 552 1296.5 c 128,-1,2
 472 1253 472 1253 417 1182.5 c 128,-1,3
 362 1112 362 1112 335 1030 c 1,4,-1
 335 0 l 1,5,-1
 177 0 l 1,6,-1
 177 1456 l 1,7,-1
 328 1456 l 1,8,-1
 334 1243 l 1,9,10
 403 1349 403 1349 518 1412.5 c 128,-1,11
 633 1476 633 1476 775 1476 c 0,12,13
 922 1476 922 1476 1023 1415 c 128,-1,14
 1124 1354 1124 1354 1168 1215 c 1,15,16
 1236 1333 1236 1333 1358.5 1404.5 c 128,-1,17
 1481 1476 1481 1476 1637 1476 c 0,18,19
 1837 1476 1837 1476 1950 1362 c 128,-1,20
 2063 1248 2063 1248 2063 978 c 2,21,-1
 2063 0 l 1,22,-1
 1905 0 l 1,23,-1
 1905 979 l 2,24,25
 1905 1178 1905 1178 1823.5 1259 c 128,-1,26
 1742 1340 1742 1340 1597 1340 c 0,27,28
 1495 1340 1495 1340 1414.5 1296 c 128,-1,29
 1334 1252 1334 1252 1279 1180.5 c 128,-1,30
 1224 1109 1224 1109 1198 1026 c 1,31,32
 1199 1003 1199 1003 1199 978 c 2,33,-1
 1199 0 l 1,34,-1
 1041 0 l 1,35,-1
 1041 979 l 2,36,37
 1041 1178 1041 1178 960 1259 c 128,-1,38
 879 1340 879 1340 733 1340 c 0,0,1
EndSplineSet
EndChar

StartChar: N
Encoding: 78 78 166
Width: 1458
VWidth: 1798
GlyphClass: 2
Flags: W
AnchorPoint: "Anchor-1" 720 -240 basechar 0
AnchorPoint: "Anchor-0" 726 1351 basechar 0
LayerCount: 2
Fore
SplineSet
1279 1206 m 1,0,-1
 1279 -250 l 1,1,-1
 1120 -250 l 1,2,-1
 335 933 l 1,3,-1
 335 -250 l 1,4,-1
 177 -250 l 1,5,-1
 177 1206 l 1,6,-1
 335 1206 l 1,7,-1
 1122 21 l 1,8,-1
 1122 1206 l 1,9,-1
 1279 1206 l 1,0,-1
EndSplineSet
Substitution2: "'unic' Unicase lookup 2 subtable" N.unic
Substitution2: "'c2sc' Capitals to Small Capitals lookup 0 subtable" N.smcp
Position2: "'cpsp' Capital Spacing lookup 0 subtable" dx=36 dy=0 dh=72 dv=0
EndChar

StartChar: N.smcp
Encoding: 65634 -1 167
Width: 1250
GlyphClass: 2
Flags: W
AnchorPoint: "Anchor-1" 619 4 basechar 0
AnchorPoint: "Anchor-0" 624 1320 basechar 0
LayerCount: 2
Fore
SplineSet
1104 1165 m 1,0,-1
 1104 0 l 1,1,-1
 952 0 l 1,2,-1
 299 926 l 1,3,-1
 299 0 l 1,4,-1
 147 0 l 1,5,-1
 147 1165 l 1,6,-1
 299 1165 l 1,7,-1
 952 240 l 1,8,-1
 952 1165 l 1,9,-1
 1104 1165 l 1,0,-1
EndSplineSet
EndChar

StartChar: N.unic
Encoding: 65635 -1 168
Width: 1455
GlyphClass: 2
Flags: W
AnchorPoint: "Anchor-1" 720 10 basechar 0
AnchorPoint: "Anchor-0" 726 1632 basechar 0
LayerCount: 2
Fore
SplineSet
773 1340 m 0,0,1
 661 1340 661 1340 573 1294 c 128,-1,2
 485 1248 485 1248 424 1173 c 128,-1,3
 363 1098 363 1098 335 1011 c 1,4,-1
 335 0 l 1,5,-1
 177 0 l 1,6,-1
 177 1456 l 1,7,-1
 328 1456 l 1,8,-1
 334 1224 l 1,9,10
 408 1338 408 1338 533.5 1407 c 128,-1,11
 659 1476 659 1476 815 1476 c 0,12,13
 1032 1476 1032 1476 1154 1359 c 128,-1,14
 1276 1242 1276 1242 1276 964 c 2,15,-1
 1276 0 l 1,16,-1
 1118 0 l 1,17,-1
 1118 966 l 2,18,19
 1118 1172 1118 1172 1027 1256 c 128,-1,20
 936 1340 936 1340 773 1340 c 0,0,1
EndSplineSet
EndChar

StartChar: NameMe.65564
Encoding: 65638 -1 172
Width: 529
GlyphClass: 1
Flags: W
LayerCount: 2
Fore
SplineSet
160 1234 m 1,0,-1
 300 1234 l 1,1,-1
 300 406 l 2,2,3
 300 260 300 260 354 206 c 128,-1,4
 408 152 408 152 514 152 c 2,5,-1
 549 152 l 1,6,-1
 549 0 l 1,7,-1
 514 0 l 2,8,9
 332 0 332 0 246 98.5 c 128,-1,10
 160 197 160 197 160 406 c 2,11,-1
 160 1234 l 1,0,-1
EndSplineSet
EndChar

StartChar: NameMe.65565
Encoding: 65639 -1 173
Width: 720
GlyphClass: 1
Flags: W
LayerCount: 2
Fore
SplineSet
525 211 m 0,0,1
 539 211 539 211 564.5 208.5 c 128,-1,2
 590 206 590 206 615 196 c 1,3,-1
 599 117 l 1,4,5
 580 122 580 122 560 124.5 c 128,-1,6
 540 127 540 127 525 127 c 0,7,8
 454 127 454 127 410.5 83 c 128,-1,9
 367 39 367 39 367 -11 c 0,10,11
 367 -38 367 -38 377.5 -49 c 128,-1,12
 388 -60 388 -60 416 -60 c 2,13,-1
 505 -60 l 2,14,15
 558 -60 558 -60 589 -87 c 128,-1,16
 620 -114 620 -114 620 -159 c 0,17,18
 620 -282 620 -282 523 -348.5 c 128,-1,19
 426 -415 426 -415 277 -415 c 0,20,21
 226 -415 226 -415 182.5 -406.5 c 128,-1,22
 139 -398 139 -398 103 -383 c 1,23,-1
 140 -305 l 1,24,25
 169 -318 169 -318 202.5 -325 c 128,-1,26
 236 -332 236 -332 279 -332 c 0,27,28
 341 -332 341 -332 401.5 -314 c 128,-1,29
 462 -296 462 -296 502 -261.5 c 128,-1,30
 542 -227 542 -227 542 -178 c 0,31,32
 542 -158 542 -158 523.5 -151 c 128,-1,33
 505 -144 505 -144 485 -144 c 2,34,-1
 410 -144 l 2,35,36
 285 -144 285 -144 285 -19 c 0,37,38
 285 51 285 51 319 102.5 c 128,-1,39
 353 154 353 154 408 182.5 c 128,-1,40
 463 211 463 211 525 211 c 0,0,1
EndSplineSet
EndChar

StartChar: NameMe.65583
Encoding: 65641 -1 175
Width: 471
GlyphClass: 1
Flags: W
LayerCount: 2
Fore
SplineSet
-39 1335 m 1,0,-1
 -24 1405 l 1,1,2
 -10 1394 -10 1394 10 1379 c 128,-1,3
 30 1364 30 1364 49 1356 c 1,4,5
 130 1493 130 1493 195 1553.5 c 128,-1,6
 260 1614 260 1614 337 1614 c 256,7,8
 414 1614 414 1614 463.5 1566 c 128,-1,9
 513 1518 513 1518 513 1445 c 0,10,11
 513 1345 513 1345 440.5 1308 c 128,-1,12
 368 1271 368 1271 207 1271 c 2,13,-1
 182 1271 l 2,14,15
 98 1271 98 1271 41 1286 c 128,-1,16
 -16 1301 -16 1301 -39 1335 c 1,0,-1
205 1345 m 2,17,18
 327 1345 327 1345 384 1362.5 c 128,-1,19
 441 1380 441 1380 441 1441 c 0,20,21
 441 1483 441 1483 413.5 1510.5 c 128,-1,22
 386 1538 386 1538 342 1538 c 0,23,24
 283 1538 283 1538 235 1490.5 c 128,-1,25
 187 1443 187 1443 124 1345 c 1,26,-1
 205 1345 l 2,17,18
EndSplineSet
EndChar

StartChar: NameMe.65703
Encoding: 65642 -1 176
Width: 460
GlyphClass: 1
Flags: W
LayerCount: 2
Fore
SplineSet
300 1234 m 1,0,-1
 300 1 l 1,1,-1
 160 1 l 1,2,-1
 160 1234 l 1,3,-1
 300 1234 l 1,0,-1
EndSplineSet
EndChar

StartChar: O
Encoding: 79 79 186
Width: 1398
VWidth: 1798
GlyphClass: 2
Flags: W
AnchorPoint: "Anchor-1" 707 -250 basechar 0
AnchorPoint: "Anchor-0" 707 1353 basechar 0
LayerCount: 2
Fore
SplineSet
1275 540 m 2,0,-1
 1275 416 l 2,1,2
 1275 205 1275 205 1204 51 c 128,-1,3
 1133 -103 1133 -103 1004 -186.5 c 128,-1,4
 875 -270 875 -270 700 -270 c 0,5,6
 529 -270 529 -270 399 -186.5 c 128,-1,7
 269 -103 269 -103 196 51 c 128,-1,8
 123 205 123 205 123 416 c 2,9,-1
 123 540 l 2,10,11
 123 751 123 751 195.5 905 c 128,-1,12
 268 1059 268 1059 397.5 1142.5 c 128,-1,13
 527 1226 527 1226 698 1226 c 0,14,15
 873 1226 873 1226 1002.5 1142.5 c 128,-1,16
 1132 1059 1132 1059 1203.5 905 c 128,-1,17
 1275 751 1275 751 1275 540 c 2,0,-1
1119 416 m 2,18,-1
 1119 542 l 2,19,20
 1119 801 1119 801 1008.5 945.5 c 128,-1,21
 898 1090 898 1090 698 1090 c 0,22,23
 505 1090 505 1090 392.5 945.5 c 128,-1,24
 280 801 280 801 280 542 c 2,25,-1
 280 416 l 2,26,27
 280 156 280 156 393.5 11 c 128,-1,28
 507 -134 507 -134 700 -134 c 0,29,30
 900 -134 900 -134 1009.5 11 c 128,-1,31
 1119 156 1119 156 1119 416 c 2,18,-1
EndSplineSet
Substitution2: "'c2sc' Capitals to Small Capitals lookup 0 subtable" O.smcp
Position2: "'cpsp' Capital Spacing lookup 0 subtable" dx=36 dy=0 dh=72 dv=0
EndChar

StartChar: O.smcp
Encoding: 65649 -1 187
Width: 1203
GlyphClass: 2
Flags: W
AnchorPoint: "Anchor-1" 631 0 basechar 0
AnchorPoint: "Anchor-0" 606 1320 basechar 0
LayerCount: 2
Fore
SplineSet
1102 627 m 2,0,-1
 1102 537 l 2,1,2
 1102 367 1102 367 1040 242.5 c 128,-1,3
 978 118 978 118 866 51 c 128,-1,4
 754 -16 754 -16 602 -16 c 0,5,6
 454 -16 454 -16 341 51 c 128,-1,7
 228 118 228 118 164.5 242.5 c 128,-1,8
 101 367 101 367 101 537 c 2,9,-1
 101 627 l 2,10,11
 101 798 101 798 164 922.5 c 128,-1,12
 227 1047 227 1047 339.5 1114 c 128,-1,13
 452 1181 452 1181 601 1181 c 0,14,15
 753 1181 753 1181 865.5 1114 c 128,-1,16
 978 1047 978 1047 1040 922.5 c 128,-1,17
 1102 798 1102 798 1102 627 c 2,0,-1
951 537 m 2,18,-1
 951 629 l 2,19,20
 951 829 951 829 859 940 c 128,-1,21
 767 1051 767 1051 601 1051 c 0,22,23
 440 1051 440 1051 346 940 c 128,-1,24
 252 829 252 829 252 629 c 2,25,-1
 252 537 l 2,26,27
 252 337 252 337 347 225 c 128,-1,28
 442 113 442 113 602 113 c 0,29,30
 769 113 769 113 860 225 c 128,-1,31
 951 337 951 337 951 537 c 2,18,-1
EndSplineSet
EndChar

StartChar: OE
Encoding: 338 338 188
Width: 1933
VWidth: 1798
GlyphClass: 2
Flags: W
AnchorPoint: "Anchor-1" 953 -250 basechar 0
AnchorPoint: "Anchor-0" 953 1353 basechar 0
LayerCount: 2
Fore
SplineSet
652 1227 m 0,0,1
 732 1227 732 1227 809 1220.5 c 128,-1,2
 886 1214 886 1214 956 1206 c 1,3,-1
 1794 1206 l 1,4,-1
 1794 1074 l 1,5,-1
 1044 1074 l 1,6,-1
 1044 567 l 1,7,-1
 1699 567 l 1,8,-1
 1699 435 l 1,9,-1
 1044 435 l 1,10,-1
 1044 -119 l 1,11,-1
 1801 -119 l 1,12,-1
 1801 -250 l 1,13,-1
 956 -250 l 1,14,15
 886 -257 886 -257 810 -264 c 128,-1,16
 734 -271 734 -271 654 -271 c 0,17,18
 491 -271 491 -271 368 -195.5 c 128,-1,19
 245 -120 245 -120 176 15 c 128,-1,20
 107 150 107 150 107 326 c 2,21,-1
 107 630 l 2,22,23
 107 807 107 807 175.5 941.5 c 128,-1,24
 244 1076 244 1076 366.5 1151.5 c 128,-1,25
 489 1227 489 1227 652 1227 c 0,0,1
259 326 m 2,26,27
 259 103 259 103 366.5 -20 c 128,-1,28
 474 -143 474 -143 654 -143 c 0,29,30
 774 -143 774 -143 886 -129 c 1,31,-1
 886 1085 l 1,32,33
 773 1099 773 1099 652 1099 c 0,34,35
 472 1099 472 1099 365.5 977.5 c 128,-1,36
 259 856 259 856 259 632 c 2,37,-1
 259 326 l 2,26,27
EndSplineSet
Substitution2: "'c2sc' Capitals to Small Capitals lookup 0 subtable" OE.smcp
Position2: "'cpsp' Capital Spacing lookup 0 subtable" dx=36 dy=0 dh=72 dv=0
EndChar

StartChar: OE.smcp
Encoding: 65650 -1 189
Width: 1706
GlyphClass: 2
Flags: W
LayerCount: 2
Fore
SplineSet
997 1165 m 2,0,-1
 1643 1165 l 1,1,-1
 1643 1037 l 1,2,-1
 1006 1037 l 1,3,-1
 1006 667 l 1,4,-1
 1560 667 l 1,5,-1
 1560 540 l 1,6,-1
 1006 540 l 1,7,-1
 1006 128 l 1,8,-1
 1647 128 l 1,9,-1
 1647 0 l 1,10,-1
 1001 0 l 2,11,12
 885 0 885 0 779.5 -8 c 128,-1,13
 674 -16 674 -16 602 -16 c 0,14,15
 454 -16 454 -16 341 51 c 128,-1,16
 228 118 228 118 164.5 242.5 c 128,-1,17
 101 367 101 367 101 537 c 2,18,-1
 101 627 l 2,19,20
 101 798 101 798 164 922.5 c 128,-1,21
 227 1047 227 1047 339.5 1114 c 128,-1,22
 452 1181 452 1181 601 1181 c 0,23,24
 673 1181 673 1181 781.5 1173 c 128,-1,25
 890 1165 890 1165 997 1165 c 2,0,-1
252 537 m 2,26,27
 252 337 252 337 347 225 c 128,-1,28
 442 113 442 113 602 113 c 0,29,30
 641 113 641 113 713 116.5 c 128,-1,31
 785 120 785 120 853 123 c 1,32,-1
 853 1040 l 1,33,34
 784 1043 784 1043 711.5 1047 c 128,-1,35
 639 1051 639 1051 601 1051 c 0,36,37
 440 1051 440 1051 346 940 c 128,-1,38
 252 829 252 829 252 629 c 2,39,-1
 252 537 l 2,26,27
EndSplineSet
EndChar

StartChar: Ohorn
Encoding: 416 416 200
Width: 1418
VWidth: 1798
GlyphClass: 2
Flags: W
AnchorPoint: "Anchor-1" 692 -250 basechar 0
AnchorPoint: "Anchor-0" 703 1345 basechar 0
LayerCount: 2
Fore
SplineSet
1270 540 m 2,0,-1
 1270 416 l 2,1,2
 1270 205 1270 205 1199 51 c 128,-1,3
 1128 -103 1128 -103 999 -186.5 c 128,-1,4
 870 -270 870 -270 695 -270 c 0,5,6
 524 -270 524 -270 394 -186.5 c 128,-1,7
 264 -103 264 -103 191 51 c 128,-1,8
 118 205 118 205 118 416 c 2,9,-1
 118 540 l 2,10,11
 118 751 118 751 190.5 905 c 128,-1,12
 263 1059 263 1059 392.5 1142.5 c 128,-1,13
 522 1226 522 1226 693 1226 c 0,14,15
 821 1226 821 1226 925 1180.5 c 128,-1,16
 1029 1135 1029 1135 1104 1051 c 1,17,18
 1218 1058 1218 1058 1261 1130.5 c 128,-1,19
 1304 1203 1304 1203 1304 1329 c 1,20,-1
 1443 1329 l 1,21,22
 1443 1167 1443 1167 1378.5 1068.5 c 128,-1,23
 1314 970 1314 970 1179 945 c 1,24,25
 1223 863 1223 863 1246.5 761.5 c 128,-1,26
 1270 660 1270 660 1270 540 c 2,0,-1
1114 416 m 2,27,-1
 1114 542 l 2,28,29
 1114 801 1114 801 1003.5 945.5 c 128,-1,30
 893 1090 893 1090 693 1090 c 0,31,32
 501 1090 501 1090 388 945.5 c 128,-1,33
 275 801 275 801 275 542 c 2,34,-1
 275 416 l 2,35,36
 275 156 275 156 389 11 c 128,-1,37
 503 -134 503 -134 695 -134 c 0,38,39
 895 -134 895 -134 1004.5 11 c 128,-1,40
 1114 156 1114 156 1114 416 c 2,27,-1
EndSplineSet
EndChar

StartChar: Omega
Encoding: 8486 8486 205
Width: 1352
GlyphClass: 2
Flags: W
AnchorPoint: "Anchor-1" 679 10 basechar 0
LayerCount: 2
Fore
SplineSet
119 0 m 1,0,-1
 119 131 l 1,1,-1
 373 131 l 1,2,3
 260 227 260 227 190 384 c 128,-1,4
 120 541 120 541 120 728 c 2,5,-1
 120 842 l 2,6,7
 120 1031 120 1031 189 1174 c 128,-1,8
 258 1317 258 1317 380.5 1396.5 c 128,-1,9
 503 1476 503 1476 666 1476 c 256,10,11
 829 1476 829 1476 952.5 1396.5 c 128,-1,12
 1076 1317 1076 1317 1145.5 1174 c 128,-1,13
 1215 1031 1215 1031 1215 842 c 2,14,-1
 1215 728 l 2,15,16
 1215 541 1215 541 1145.5 384 c 128,-1,17
 1076 227 1076 227 964 131 c 1,18,-1
 1215 131 l 1,19,-1
 1215 0 l 1,20,-1
 744 0 l 1,21,-1
 744 142 l 1,22,23
 875 178 875 178 965 320 c 128,-1,24
 1055 462 1055 462 1055 728 c 2,25,-1
 1055 844 l 2,26,27
 1055 1080 1055 1080 950 1212.5 c 128,-1,28
 845 1345 845 1345 666 1345 c 0,29,30
 488 1345 488 1345 384 1212.5 c 128,-1,31
 280 1080 280 1080 280 844 c 2,32,-1
 280 728 l 2,33,34
 280 550 280 550 323 428 c 128,-1,35
 366 306 366 306 437.5 236 c 128,-1,36
 509 166 509 166 597 142 c 1,37,-1
 597 0 l 1,38,-1
 119 0 l 1,0,-1
EndSplineSet
Substitution2: "'c2sc' Capitals to Small Capitals lookup 0 subtable" Omega.smcp
Position2: "'cpsp' Capital Spacing lookup 0 subtable" dx=36 dy=0 dh=72 dv=0
EndChar

StartChar: Omega.smcp
Encoding: 65658 -1 206
Width: 1262
GlyphClass: 2
Flags: W
AnchorPoint: "Anchor-1" 637 10 basechar 0
LayerCount: 2
Fore
SplineSet
126 0 m 1,0,-1
 126 128 l 1,1,-1
 330 128 l 1,2,3
 234 202 234 202 180.5 325 c 128,-1,4
 127 448 127 448 127 616 c 2,5,-1
 127 653 l 2,6,7
 127 801 127 801 185.5 920.5 c 128,-1,8
 244 1040 244 1040 356.5 1110.5 c 128,-1,9
 469 1181 469 1181 629 1181 c 0,10,11
 790 1181 790 1181 902 1110.5 c 128,-1,12
 1014 1040 1014 1040 1073 920.5 c 128,-1,13
 1132 801 1132 801 1132 653 c 2,14,-1
 1132 616 l 2,15,16
 1132 448 1132 448 1079 325 c 128,-1,17
 1026 202 1026 202 930 128 c 1,18,-1
 1140 128 l 1,19,-1
 1140 0 l 1,20,-1
 706 0 l 1,21,-1
 706 137 l 1,22,23
 839 177 839 177 909.5 288 c 128,-1,24
 980 399 980 399 980 616 c 2,25,-1
 980 655 l 2,26,27
 980 766 980 766 942.5 856 c 128,-1,28
 905 946 905 946 827.5 998.5 c 128,-1,29
 750 1051 750 1051 629 1051 c 256,30,31
 508 1051 508 1051 431 998.5 c 128,-1,32
 354 946 354 946 316.5 856 c 128,-1,33
 279 766 279 766 279 655 c 2,34,-1
 279 616 l 2,35,36
 279 399 279 399 356.5 288 c 128,-1,37
 434 177 434 177 559 137 c 1,38,-1
 559 0 l 1,39,-1
 126 0 l 1,0,-1
EndSplineSet
EndChar

StartChar: Oslash
Encoding: 216 216 207
Width: 1398
VWidth: 1798
GlyphClass: 2
Flags: W
AnchorPoint: "Anchor-0" 715 1424 basechar 0
LayerCount: 2
Fore
SplineSet
1275 540 m 2,0,-1
 1275 416 l 2,1,2
 1275 205 1275 205 1204 51 c 128,-1,3
 1133 -103 1133 -103 1004 -186.5 c 128,-1,4
 875 -270 875 -270 700 -270 c 0,5,6
 524 -270 524 -270 390 -180 c 1,7,-1
 291 -338 l 1,8,-1
 167 -338 l 1,9,-1
 308 -113 l 1,10,11
 221 -23 221 -23 172 111 c 128,-1,12
 123 245 123 245 123 416 c 2,13,-1
 123 540 l 2,14,15
 123 751 123 751 195.5 905 c 128,-1,16
 268 1059 268 1059 397.5 1142.5 c 128,-1,17
 527 1226 527 1226 698 1226 c 0,18,19
 918 1226 918 1226 1066 1095 c 1,20,-1
 1170 1261 l 1,21,-1
 1292 1261 l 1,22,-1
 1138 1015 l 1,23,24
 1204 928 1204 928 1239.5 807.5 c 128,-1,25
 1275 687 1275 687 1275 540 c 2,0,-1
280 416 m 2,26,27
 280 288 280 288 308.5 187.5 c 128,-1,28
 337 87 337 87 389 16 c 1,29,-1
 988 970 l 1,30,31
 879 1090 879 1090 698 1090 c 0,32,33
 505 1090 505 1090 392.5 945.5 c 128,-1,34
 280 801 280 801 280 542 c 2,35,-1
 280 416 l 2,26,27
1119 416 m 2,36,-1
 1119 542 l 2,37,38
 1119 742 1119 742 1051 876 c 1,39,-1
 465 -60 l 1,40,41
 563 -134 563 -134 700 -134 c 0,42,43
 900 -134 900 -134 1009.5 11 c 128,-1,44
 1119 156 1119 156 1119 416 c 2,36,-1
EndSplineSet
Substitution2: "'c2sc' Capitals to Small Capitals lookup 0 subtable" Oslash.smcp
Position2: "'cpsp' Capital Spacing lookup 0 subtable" dx=36 dy=0 dh=72 dv=0
EndChar

StartChar: Oslash.smcp
Encoding: 65659 -1 208
Width: 1203
GlyphClass: 2
Flags: W
AnchorPoint: "Anchor-1" 631 0 basechar 0
AnchorPoint: "Anchor-0" 606 1320 basechar 0
LayerCount: 2
Fore
SplineSet
1102 627 m 2,0,-1
 1102 537 l 2,1,2
 1102 367 1102 367 1040 242.5 c 128,-1,3
 978 118 978 118 866 51 c 128,-1,4
 754 -16 754 -16 602 -16 c 0,5,6
 445 -16 445 -16 327 60 c 1,7,-1
 246 -62 l 1,8,-1
 120 -62 l 1,9,-1
 246 126 l 1,10,11
 177 198 177 198 139 302 c 128,-1,12
 101 406 101 406 101 537 c 2,13,-1
 101 627 l 2,14,15
 101 798 101 798 164 922.5 c 128,-1,16
 227 1047 227 1047 339.5 1114 c 128,-1,17
 452 1181 452 1181 601 1181 c 0,18,19
 771 1181 771 1181 893 1096 c 1,20,-1
 969 1209 l 1,21,-1
 1095 1209 l 1,22,-1
 972 1025 l 1,23,24
 1034 953 1034 953 1068 852.5 c 128,-1,25
 1102 752 1102 752 1102 627 c 2,0,-1
252 537 m 2,26,27
 252 360 252 360 328 249 c 1,28,-1
 817 981 l 1,29,30
 731 1051 731 1051 601 1051 c 0,31,32
 440 1051 440 1051 346 940 c 128,-1,33
 252 829 252 829 252 629 c 2,34,-1
 252 537 l 2,26,27
951 537 m 2,35,-1
 951 629 l 2,36,37
 951 793 951 793 888 899 c 1,38,-1
 403 173 l 1,39,40
 486 113 486 113 602 113 c 0,41,42
 769 113 769 113 860 225 c 128,-1,43
 951 337 951 337 951 537 c 2,35,-1
EndSplineSet
EndChar

StartChar: P
Encoding: 80 80 213
Width: 1277
VWidth: 1798
GlyphClass: 2
Flags: W
AnchorPoint: "Anchor-1" 613 -240 basechar 0
AnchorPoint: "Anchor-0" 606 1362 basechar 0
LayerCount: 2
Fore
SplineSet
693 332 m 2,0,-1
 335 332 l 1,1,-1
 335 -250 l 1,2,-1
 177 -250 l 1,3,-1
 177 1206 l 1,4,-1
 693 1206 l 2,5,6
 937 1206 937 1206 1065.5 1083 c 128,-1,7
 1194 960 1194 960 1194 767 c 0,8,9
 1194 561 1194 561 1066 446.5 c 128,-1,10
 938 332 938 332 693 332 c 2,0,-1
693 1074 m 2,11,-1
 335 1074 l 1,12,-1
 335 463 l 1,13,-1
 693 463 l 2,14,15
 875 463 875 463 955.5 549 c 128,-1,16
 1036 635 1036 635 1036 765 c 0,17,18
 1036 847 1036 847 1001 917.5 c 128,-1,19
 966 988 966 988 890.5 1031 c 128,-1,20
 815 1074 815 1074 693 1074 c 2,11,-1
EndSplineSet
Substitution2: "'c2sc' Capitals to Small Capitals lookup 0 subtable" P.smcp
Position2: "'cpsp' Capital Spacing lookup 0 subtable" dx=36 dy=0 dh=72 dv=0
EndChar

StartChar: P.smcp
Encoding: 65662 -1 214
Width: 1103
GlyphClass: 2
Flags: W
AnchorPoint: "Anchor-1" 574 0 basechar 0
AnchorPoint: "Anchor-0" 576 1320 basechar 0
LayerCount: 2
Fore
SplineSet
596 450 m 2,0,-1
 299 450 l 1,1,-1
 299 0 l 1,2,-1
 147 0 l 1,3,-1
 147 1165 l 1,4,-1
 596 1165 l 2,5,6
 807 1165 807 1165 919.5 1063.5 c 128,-1,7
 1032 962 1032 962 1032 804 c 0,8,9
 1032 639 1032 639 920 544.5 c 128,-1,10
 808 450 808 450 596 450 c 2,0,-1
596 1037 m 2,11,-1
 299 1037 l 1,12,-1
 299 579 l 1,13,-1
 596 579 l 2,14,15
 746 579 746 579 812.5 642.5 c 128,-1,16
 879 706 879 706 879 802 c 0,17,18
 879 896 879 896 812.5 966.5 c 128,-1,19
 746 1037 746 1037 596 1037 c 2,11,-1
EndSplineSet
EndChar

StartChar: Q
Encoding: 81 81 215
Width: 1398
VWidth: 1798
GlyphClass: 2
Flags: W
AnchorPoint: "Anchor-1" 698 -260 basechar 0
AnchorPoint: "Anchor-0" 700 1350 basechar 0
LayerCount: 2
Fore
SplineSet
1269 540 m 2,0,-1
 1269 416 l 2,1,2
 1269 206 1269 206 1198.5 52 c 128,-1,3
 1128 -102 1128 -102 1001 -184 c 1,4,-1
 1262 -401 l 1,5,-1
 1155 -500 l 1,6,-1
 854 -250 l 1,7,8
 778 -270 778 -270 694 -270 c 0,9,10
 523 -270 523 -270 392.5 -186.5 c 128,-1,11
 262 -103 262 -103 189 51 c 128,-1,12
 116 205 116 205 116 416 c 2,13,-1
 116 540 l 2,14,15
 116 751 116 751 188.5 905 c 128,-1,16
 261 1059 261 1059 391 1142.5 c 128,-1,17
 521 1226 521 1226 692 1226 c 0,18,19
 867 1226 867 1226 996.5 1142.5 c 128,-1,20
 1126 1059 1126 1059 1197.5 905 c 128,-1,21
 1269 751 1269 751 1269 540 c 2,0,-1
1112 416 m 2,22,-1
 1112 542 l 2,23,24
 1112 801 1112 801 1002 945.5 c 128,-1,25
 892 1090 892 1090 692 1090 c 0,26,27
 499 1090 499 1090 386 945.5 c 128,-1,28
 273 801 273 801 273 542 c 2,29,-1
 273 416 l 2,30,31
 273 156 273 156 387 11 c 128,-1,32
 501 -134 501 -134 694 -134 c 0,33,34
 894 -134 894 -134 1003 11 c 128,-1,35
 1112 156 1112 156 1112 416 c 2,22,-1
EndSplineSet
Substitution2: "'c2sc' Capitals to Small Capitals lookup 0 subtable" Q.smcp
Position2: "'cpsp' Capital Spacing lookup 0 subtable" dx=36 dy=0 dh=72 dv=0
EndChar

StartChar: Q.smcp
Encoding: 65663 -1 216
Width: 1203
GlyphClass: 2
Flags: W
AnchorPoint: "Anchor-1" 599 -10 basechar 0
AnchorPoint: "Anchor-0" 599 1320 basechar 0
LayerCount: 2
Fore
SplineSet
1098 627 m 2,0,-1
 1098 537 l 2,1,2
 1098 371 1098 371 1038.5 248 c 128,-1,3
 979 125 979 125 873 58 c 1,4,-1
 1091 -112 l 1,5,-1
 988 -203 l 1,6,-1
 731 -1 l 1,7,8
 668 -16 668 -16 598 -16 c 0,9,10
 449 -16 449 -16 336 51 c 128,-1,11
 223 118 223 118 159.5 242.5 c 128,-1,12
 96 367 96 367 96 537 c 2,13,-1
 96 627 l 2,14,15
 96 798 96 798 159 922.5 c 128,-1,16
 222 1047 222 1047 334.5 1114 c 128,-1,17
 447 1181 447 1181 596 1181 c 0,18,19
 748 1181 748 1181 860.5 1114 c 128,-1,20
 973 1047 973 1047 1035.5 922.5 c 128,-1,21
 1098 798 1098 798 1098 627 c 2,0,-1
946 537 m 2,22,-1
 946 629 l 2,23,24
 946 829 946 829 854 940 c 128,-1,25
 762 1051 762 1051 596 1051 c 0,26,27
 435 1051 435 1051 341.5 940 c 128,-1,28
 248 829 248 829 248 629 c 2,29,-1
 248 537 l 2,30,31
 248 337 248 337 342 225 c 128,-1,32
 436 113 436 113 598 113 c 0,33,34
 764 113 764 113 855 225 c 128,-1,35
 946 337 946 337 946 537 c 2,22,-1
EndSplineSet
EndChar

StartChar: R
Encoding: 82 82 217
Width: 1282
VWidth: 1798
GlyphClass: 2
Flags: W
AnchorPoint: "Anchor-1" 611 -240 basechar 0
AnchorPoint: "Anchor-0" 610 1351 basechar 0
LayerCount: 2
Fore
SplineSet
1050 -250 m 1,0,-1
 717 348 l 1,1,-1
 334 348 l 1,2,-1
 334 -250 l 1,3,-1
 176 -250 l 1,4,-1
 176 1206 l 1,5,-1
 653 1206 l 2,6,7
 889 1206 889 1206 1022 1095 c 128,-1,8
 1155 984 1155 984 1155 773 c 0,9,10
 1155 633 1155 633 1077 529.5 c 128,-1,11
 999 426 999 426 867 381 c 1,12,-1
 1219 -237 l 1,13,-1
 1219 -250 l 1,14,-1
 1050 -250 l 1,0,-1
653 1074 m 2,15,-1
 334 1074 l 1,16,-1
 334 480 l 1,17,-1
 670 480 l 2,18,19
 779 480 779 480 851.5 520.5 c 128,-1,20
 924 561 924 561 961 627.5 c 128,-1,21
 998 694 998 694 998 773 c 0,22,23
 998 911 998 911 912 992.5 c 128,-1,24
 826 1074 826 1074 653 1074 c 2,15,-1
EndSplineSet
Substitution2: "'c2sc' Capitals to Small Capitals lookup 0 subtable" R.smcp
Position2: "'cpsp' Capital Spacing lookup 0 subtable" dx=36 dy=0 dh=72 dv=0
EndChar

StartChar: R.smcp
Encoding: 65664 -1 218
Width: 1110
GlyphClass: 2
Flags: W
AnchorPoint: "Anchor-1" 525 8 basechar 0
AnchorPoint: "Anchor-0" 520 1320 basechar 0
LayerCount: 2
Fore
SplineSet
891 0 m 1,0,-1
 615 459 l 1,1,-1
 298 459 l 1,2,-1
 298 0 l 1,3,-1
 145 0 l 1,4,-1
 145 1165 l 1,5,-1
 565 1165 l 2,6,7
 769 1165 769 1165 885.5 1073.5 c 128,-1,8
 1002 982 1002 982 1002 812 c 0,9,10
 1002 694 1002 694 935.5 613 c 128,-1,11
 869 532 869 532 756 494 c 1,12,-1
 1054 10 l 1,13,-1
 1054 0 l 1,14,-1
 891 0 l 1,0,-1
565 1037 m 2,15,-1
 298 1037 l 1,16,-1
 298 586 l 1,17,-1
 578 586 l 2,18,19
 713 586 713 586 780.5 650.5 c 128,-1,20
 848 715 848 715 848 806 c 0,21,22
 848 910 848 910 778 973.5 c 128,-1,23
 708 1037 708 1037 565 1037 c 2,15,-1
EndSplineSet
EndChar

StartChar: S
Encoding: 83 83 225
Width: 1215
VWidth: 1798
GlyphClass: 2
Flags: W
AnchorPoint: "Anchor-1" 628 -251 basechar 0
AnchorPoint: "Anchor-0" 622 1353 basechar 0
LayerCount: 2
Fore
SplineSet
977 113 m 0,0,1
 977 187 977 187 944 240 c 128,-1,2
 911 293 911 293 830.5 334.5 c 128,-1,3
 750 376 750 376 605 417 c 0,4,5
 460 459 460 459 353.5 513.5 c 128,-1,6
 247 568 247 568 189 647 c 128,-1,7
 131 726 131 726 131 840 c 0,8,9
 131 953 131 953 193 1040 c 128,-1,10
 255 1127 255 1127 366 1176.5 c 128,-1,11
 477 1226 477 1226 623 1226 c 0,12,13
 782 1226 782 1226 895 1165.5 c 128,-1,14
 1008 1105 1008 1105 1068.5 1005.5 c 128,-1,15
 1129 906 1129 906 1129 789 c 1,16,-1
 972 789 l 1,17,18
 972 921 972 921 883 1007.5 c 128,-1,19
 794 1094 794 1094 623 1094 c 0,20,21
 456 1094 456 1094 372.5 1021 c 128,-1,22
 289 948 289 948 289 842 c 0,23,24
 289 745 289 745 372 677.5 c 128,-1,25
 455 610 455 610 655 556 c 0,26,27
 895 489 895 489 1015.5 388.5 c 128,-1,28
 1136 288 1136 288 1136 115 c 0,29,30
 1136 -3 1136 -3 1072 -89.5 c 128,-1,31
 1008 -176 1008 -176 894.5 -223 c 128,-1,32
 781 -270 781 -270 632 -270 c 0,33,34
 533 -270 533 -270 436 -243.5 c 128,-1,35
 339 -217 339 -217 259.5 -162.5 c 128,-1,36
 180 -108 180 -108 132.5 -25.5 c 128,-1,37
 85 57 85 57 85 169 c 1,38,-1
 242 169 l 1,39,40
 242 58 242 58 299.5 -9.5 c 128,-1,41
 357 -77 357 -77 446.5 -108 c 128,-1,42
 536 -139 536 -139 632 -139 c 0,43,44
 793 -139 793 -139 885 -70.5 c 128,-1,45
 977 -2 977 -2 977 113 c 0,0,1
EndSplineSet
Substitution2: "'c2sc' Capitals to Small Capitals lookup 0 subtable" S.smcp
Position2: "'cpsp' Capital Spacing lookup 0 subtable" dx=36 dy=0 dh=72 dv=0
EndChar

StartChar: S.smcp
Encoding: 65668 -1 226
Width: 1052
GlyphClass: 2
Flags: W
AnchorPoint: "Anchor-1" 552 0 basechar 0
AnchorPoint: "Anchor-0" 543 1320 basechar 0
LayerCount: 2
Fore
SplineSet
831 294 m 256,0,1
 831 376 831 376 769 427 c 128,-1,2
 707 478 707 478 532 520 c 0,3,4
 339 567 339 567 225.5 646 c 128,-1,5
 112 725 112 725 112 869 c 0,6,7
 112 962 112 962 166 1032 c 128,-1,8
 220 1102 220 1102 317 1141.5 c 128,-1,9
 414 1181 414 1181 541 1181 c 0,10,11
 677 1181 677 1181 775 1134 c 128,-1,12
 873 1087 873 1087 926 1007 c 128,-1,13
 979 927 979 927 979 828 c 1,14,-1
 826 828 l 1,15,16
 826 926 826 926 753.5 990 c 128,-1,17
 681 1054 681 1054 539 1054 c 0,18,19
 402 1054 402 1054 333 1000.5 c 128,-1,20
 264 947 264 947 264 870 c 0,21,22
 264 796 264 796 333.5 746.5 c 128,-1,23
 403 697 403 697 578 653 c 0,24,25
 770 605 770 605 877.5 522.5 c 128,-1,26
 985 440 985 440 985 296 c 0,27,28
 985 151 985 151 863 67.5 c 128,-1,29
 741 -16 741 -16 547 -16 c 0,30,31
 432 -16 432 -16 322.5 22 c 128,-1,32
 213 60 213 60 142.5 140 c 128,-1,33
 72 220 72 220 72 344 c 1,34,-1
 224 344 l 1,35,36
 224 259 224 259 270.5 207.5 c 128,-1,37
 317 156 317 156 391 133 c 128,-1,38
 465 110 465 110 547 110 c 0,39,40
 681 110 681 110 756 161 c 128,-1,41
 831 212 831 212 831 294 c 256,0,1
EndSplineSet
EndChar

StartChar: Schwa
Encoding: 399 399 233
Width: 1424
VWidth: 1798
GlyphClass: 2
Flags: W
AnchorPoint: "Anchor-1" 696 -250 basechar 0
AnchorPoint: "Anchor-0" 661 1353 basechar 0
LayerCount: 2
Fore
SplineSet
711 -270 m 0,0,1
 518 -270 518 -270 383.5 -190.5 c 128,-1,2
 249 -111 249 -111 179.5 34.5 c 128,-1,3
 110 180 110 180 110 379 c 2,4,-1
 110 503 l 1,5,-1
 1148 503 l 1,6,-1
 1148 539 l 2,7,8
 1148 693 1148 693 1098 818.5 c 128,-1,9
 1048 944 1048 944 941.5 1018.5 c 128,-1,10
 835 1093 835 1093 663 1093 c 0,11,12
 528 1093 528 1093 434 1061 c 128,-1,13
 340 1029 340 1029 275 991 c 1,14,-1
 233 1109 l 1,15,16
 278 1143 278 1143 381.5 1184.5 c 128,-1,17
 485 1226 485 1226 663 1226 c 0,18,19
 871 1226 871 1226 1014 1138 c 128,-1,20
 1157 1050 1157 1050 1231 895.5 c 128,-1,21
 1305 741 1305 741 1305 539 c 2,22,-1
 1305 426 l 2,23,24
 1305 221 1305 221 1226 64 c 128,-1,25
 1147 -93 1147 -93 1012.5 -181.5 c 128,-1,26
 878 -270 878 -270 711 -270 c 0,0,1
711 -137 m 0,27,28
 842 -137 842 -137 937 -68.5 c 128,-1,29
 1032 0 1032 0 1085.5 117 c 128,-1,30
 1139 234 1139 234 1147 378 c 1,31,-1
 268 378 l 1,32,-1
 268 334 l 2,33,34
 268 203 268 203 313.5 96 c 128,-1,35
 359 -11 359 -11 456.5 -74 c 128,-1,36
 554 -137 554 -137 711 -137 c 0,27,28
EndSplineSet
EndChar

StartChar: T
Encoding: 84 84 237
Width: 1223
VWidth: 1798
GlyphClass: 2
Flags: W
AnchorPoint: "Anchor-1" 614 -250 basechar 0
AnchorPoint: "Anchor-0" 612 1350 basechar 0
LayerCount: 2
Fore
SplineSet
1174 1206 m 1,0,-1
 1174 1074 l 1,1,-1
 690 1074 l 1,2,-1
 690 -250 l 1,3,-1
 534 -250 l 1,4,-1
 534 1074 l 1,5,-1
 51 1074 l 1,6,-1
 51 1206 l 1,7,-1
 1174 1206 l 1,0,-1
EndSplineSet
Substitution2: "'c2sc' Capitals to Small Capitals lookup 0 subtable" T.smcp
Position2: "'cpsp' Capital Spacing lookup 0 subtable" dx=36 dy=0 dh=72 dv=0
EndChar

StartChar: T.smcp
Encoding: 65674 -1 238
Width: 1060
GlyphClass: 2
Flags: W
AnchorPoint: "Anchor-1" 531 3 basechar 0
AnchorPoint: "Anchor-0" 530 1320 basechar 0
LayerCount: 2
Fore
SplineSet
1017 1165 m 1,0,-1
 1017 1037 l 1,1,-1
 605 1037 l 1,2,-1
 605 0 l 1,3,-1
 453 0 l 1,4,-1
 453 1037 l 1,5,-1
 42 1037 l 1,6,-1
 42 1165 l 1,7,-1
 1017 1165 l 1,0,-1
EndSplineSet
EndChar

StartChar: Tbar
Encoding: 358 358 239
Width: 1223
VWidth: 1798
GlyphClass: 2
Flags: W
AnchorPoint: "Anchor-1" 614 -250 basechar 0
AnchorPoint: "Anchor-0" 612 1350 basechar 0
LayerCount: 2
Fore
SplineSet
926 706 m 1,0,-1
 926 578 l 1,1,-1
 690 578 l 1,2,-1
 690 -250 l 1,3,-1
 534 -250 l 1,4,-1
 534 578 l 1,5,-1
 302 578 l 1,6,-1
 302 706 l 1,7,-1
 534 706 l 1,8,-1
 534 1074 l 1,9,-1
 51 1074 l 1,10,-1
 51 1206 l 1,11,-1
 1174 1206 l 1,12,-1
 1174 1074 l 1,13,-1
 690 1074 l 1,14,-1
 690 706 l 1,15,-1
 926 706 l 1,0,-1
EndSplineSet
Substitution2: "'c2sc' Capitals to Small Capitals lookup 0 subtable" Tbar.smcp
Position2: "'cpsp' Capital Spacing lookup 0 subtable" dx=36 dy=0 dh=72 dv=0
EndChar

StartChar: Thorn
Encoding: 222 222 244
Width: 1212
VWidth: 1798
GlyphClass: 2
Flags: W
LayerCount: 2
Fore
SplineSet
175 1206 m 1,0,-1
 328 1206 l 1,1,-1
 328 908 l 1,2,-1
 629 908 l 2,3,4
 784 908 784 908 890.5 853.5 c 128,-1,5
 997 799 997 799 1052 704 c 128,-1,6
 1107 609 1107 609 1107 488 c 0,7,8
 1107 368 1107 368 1052 273 c 128,-1,9
 997 178 997 178 890.5 123.5 c 128,-1,10
 784 69 784 69 629 69 c 2,11,-1
 328 69 l 1,12,-1
 328 -250 l 1,13,-1
 175 -250 l 1,14,-1
 175 1206 l 1,0,-1
629 781 m 2,15,-1
 328 781 l 1,16,-1
 328 196 l 1,17,-1
 629 196 l 2,18,19
 745 196 745 196 816.5 238.5 c 128,-1,20
 888 281 888 281 921 348 c 128,-1,21
 954 415 954 415 954 486 c 0,22,23
 954 560 954 560 921 627.5 c 128,-1,24
 888 695 888 695 816.5 738 c 128,-1,25
 745 781 745 781 629 781 c 2,15,-1
EndSplineSet
Substitution2: "'c2sc' Capitals to Small Capitals lookup 0 subtable" Thorn.smcp
Position2: "'cpsp' Capital Spacing lookup 0 subtable" dx=36 dy=0 dh=72 dv=0
EndChar

StartChar: Thorn.smcp
Encoding: 65678 -1 245
Width: 1003
GlyphClass: 2
Flags: W
AnchorPoint: "Anchor-1" 450 10 basechar 0
AnchorPoint: "Anchor-0" 526 1320 basechar 0
LayerCount: 2
Fore
SplineSet
147 0 m 1,0,-1
 147 1165 l 1,1,-1
 299 1165 l 1,2,-1
 299 957 l 1,3,-1
 496 957 l 2,4,5
 707 957 707 957 819.5 855.5 c 128,-1,6
 932 754 932 754 932 596 c 0,7,8
 932 430 932 430 820 336 c 128,-1,9
 708 242 708 242 496 242 c 2,10,-1
 299 242 l 1,11,-1
 299 0 l 1,12,-1
 147 0 l 1,0,-1
496 828 m 2,13,-1
 299 828 l 1,14,-1
 299 371 l 1,15,-1
 496 371 l 2,16,17
 646 371 646 371 712.5 434 c 128,-1,18
 779 497 779 497 779 594 c 0,19,20
 779 688 779 688 712.5 758 c 128,-1,21
 646 828 646 828 496 828 c 2,13,-1
EndSplineSet
EndChar

StartChar: U
Encoding: 85 85 246
Width: 1337
VWidth: 1798
GlyphClass: 2
Flags: W
AnchorPoint: "Anchor-1" 666 -250 basechar 0
AnchorPoint: "Anchor-0" 667 1351 basechar 0
LayerCount: 2
Fore
SplineSet
1033 1206 m 1,0,-1
 1191 1206 l 1,1,-1
 1191 221 l 2,2,3
 1191 57 1191 57 1119.5 -52 c 128,-1,4
 1048 -161 1048 -161 930 -215.5 c 128,-1,5
 812 -270 812 -270 670 -270 c 0,6,7
 524 -270 524 -270 406 -215.5 c 128,-1,8
 288 -161 288 -161 219.5 -52 c 128,-1,9
 151 57 151 57 151 221 c 2,10,-1
 151 1206 l 1,11,-1
 308 1206 l 1,12,-1
 308 221 l 2,13,14
 308 40 308 40 409 -49.5 c 128,-1,15
 510 -139 510 -139 670 -139 c 0,16,17
 831 -139 831 -139 932 -49.5 c 128,-1,18
 1033 40 1033 40 1033 221 c 2,19,-1
 1033 1206 l 1,0,-1
EndSplineSet
Substitution2: "'unic' Unicase lookup 2 subtable" U.unic
Substitution2: "'c2sc' Capitals to Small Capitals lookup 0 subtable" U.smcp
Position2: "'cpsp' Capital Spacing lookup 0 subtable" dx=36 dy=0 dh=72 dv=0
EndChar

StartChar: U.smcp
Encoding: 65679 -1 247
Width: 1155
GlyphClass: 2
Flags: W
AnchorPoint: "Anchor-1" 574 0 basechar 0
AnchorPoint: "Anchor-0" 576 1320 basechar 0
LayerCount: 2
Fore
SplineSet
877 1165 m 1,0,-1
 1030 1165 l 1,1,-1
 1030 383 l 2,2,3
 1030 251 1030 251 969 162 c 128,-1,4
 908 73 908 73 805.5 28.5 c 128,-1,5
 703 -16 703 -16 578 -16 c 0,6,7
 449 -16 449 -16 347 28.5 c 128,-1,8
 245 73 245 73 186 162 c 128,-1,9
 127 251 127 251 127 383 c 2,10,-1
 127 1165 l 1,11,-1
 278 1165 l 1,12,-1
 278 383 l 2,13,14
 278 245 278 245 361.5 178 c 128,-1,15
 445 111 445 111 578 111 c 0,16,17
 712 111 712 111 794.5 178 c 128,-1,18
 877 245 877 245 877 383 c 2,19,-1
 877 1165 l 1,0,-1
EndSplineSet
EndChar

StartChar: U.unic
Encoding: 65680 -1 248
Width: 1455
GlyphClass: 2
Flags: W
AnchorPoint: "Anchor-1" 721 0 basechar 0
AnchorPoint: "Anchor-0" 722 1632 basechar 0
LayerCount: 2
Fore
SplineSet
1126 0 m 1,0,-1
 1120 198 l 1,1,2
 1045 94 1045 94 920.5 37 c 128,-1,3
 796 -20 796 -20 647 -20 c 0,4,5
 505 -20 505 -20 399 31.5 c 128,-1,6
 293 83 293 83 235 196 c 128,-1,7
 177 309 177 309 177 495 c 2,8,-1
 177 1456 l 1,9,-1
 335 1456 l 1,10,-1
 335 494 l 2,11,12
 335 286 335 286 432 201 c 128,-1,13
 529 116 529 116 689 116 c 0,14,15
 843 116 843 116 958 198.5 c 128,-1,16
 1073 281 1073 281 1118 403 c 1,17,-1
 1118 1456 l 1,18,-1
 1276 1456 l 1,19,-1
 1276 0 l 1,20,-1
 1126 0 l 1,0,-1
EndSplineSet
EndChar

StartChar: Uhorn
Encoding: 431 431 263
Width: 1409
VWidth: 1798
GlyphClass: 2
Flags: W
AnchorPoint: "Anchor-1" 692 -259 basechar 0
AnchorPoint: "Anchor-0" 694 1362 basechar 0
LayerCount: 2
Fore
SplineSet
1033 1206 m 1,0,-1
 1191 1206 l 1,1,-1
 1191 996 l 1,2,3
 1319 1006 1319 1006 1364 1081 c 128,-1,4
 1409 1156 1409 1156 1409 1291 c 1,5,-1
 1541 1291 l 1,6,7
 1541 1099 1541 1099 1461 994.5 c 128,-1,8
 1381 890 1381 890 1191 880 c 1,9,-1
 1191 221 l 2,10,11
 1191 57 1191 57 1119.5 -52 c 128,-1,12
 1048 -161 1048 -161 930 -215.5 c 128,-1,13
 812 -270 812 -270 670 -270 c 0,14,15
 524 -270 524 -270 406 -215.5 c 128,-1,16
 288 -161 288 -161 219.5 -52 c 128,-1,17
 151 57 151 57 151 221 c 2,18,-1
 151 1206 l 1,19,-1
 308 1206 l 1,20,-1
 308 221 l 2,21,22
 308 40 308 40 409 -49.5 c 128,-1,23
 510 -139 510 -139 670 -139 c 0,24,25
 831 -139 831 -139 932 -49.5 c 128,-1,26
 1033 40 1033 40 1033 221 c 2,27,-1
 1033 1206 l 1,0,-1
EndSplineSet
EndChar

StartChar: Uogonek
Encoding: 370 370 270
Width: 1337
VWidth: 1798
GlyphClass: 2
Flags: W
AnchorPoint: "Anchor-1" 666 -250 basechar 0
AnchorPoint: "Anchor-0" 667 1351 basechar 0
LayerCount: 2
Fore
SplineSet
1033 1206 m 1,0,-1
 1191 1206 l 1,1,-1
 1191 221 l 2,2,3
 1191 57 1191 57 1119 -52 c 128,-1,4
 1047 -161 1047 -161 932 -215 c 1,5,6
 868 -263 868 -263 816.5 -317.5 c 128,-1,7
 765 -372 765 -372 765 -437 c 0,8,9
 765 -471 765 -471 782.5 -493 c 128,-1,10
 800 -515 800 -515 846 -515 c 0,11,12
 881 -515 881 -515 907 -505 c 128,-1,13
 933 -495 933 -495 949 -485 c 1,14,-1
 963 -589 l 1,15,16
 940 -604 940 -604 903.5 -618.5 c 128,-1,17
 867 -633 867 -633 811 -633 c 0,18,19
 734 -633 734 -633 682 -587 c 128,-1,20
 630 -541 630 -541 630 -452 c 0,21,22
 630 -356 630 -356 719 -268 c 1,23,24
 695 -270 695 -270 670 -270 c 0,25,26
 524 -270 524 -270 406 -215.5 c 128,-1,27
 288 -161 288 -161 219.5 -52 c 128,-1,28
 151 57 151 57 151 221 c 2,29,-1
 151 1206 l 1,30,-1
 308 1206 l 1,31,-1
 308 221 l 2,32,33
 308 40 308 40 409 -49.5 c 128,-1,34
 510 -139 510 -139 670 -139 c 0,35,36
 831 -139 831 -139 932 -49.5 c 128,-1,37
 1033 40 1033 40 1033 221 c 2,38,-1
 1033 1206 l 1,0,-1
EndSplineSet
Substitution2: "'unic' Unicase lookup 2 subtable" Uogonek.unic
Substitution2: "'c2sc' Capitals to Small Capitals lookup 0 subtable" Uogonek.smcp
Position2: "'cpsp' Capital Spacing lookup 0 subtable" dx=36 dy=0 dh=72 dv=0
EndChar

StartChar: Uogonek.smcp
Encoding: 65694 -1 271
Width: 1155
GlyphClass: 2
Flags: W
AnchorPoint: "Anchor-1" 574 0 basechar 0
AnchorPoint: "Anchor-0" 576 1320 basechar 0
LayerCount: 2
Fore
SplineSet
877 1165 m 1,0,-1
 1030 1165 l 1,1,-1
 1030 383 l 2,2,3
 1030 250 1030 250 967 161 c 128,-1,4
 904 72 904 72 802 27 c 1,5,6
 738 -22 738 -22 686 -76 c 128,-1,7
 634 -130 634 -130 634 -195 c 0,8,9
 634 -229 634 -229 652 -251.5 c 128,-1,10
 670 -274 670 -274 716 -274 c 0,11,12
 751 -274 751 -274 777 -263.5 c 128,-1,13
 803 -253 803 -253 819 -244 c 1,14,-1
 833 -347 l 1,15,16
 810 -362 810 -362 773.5 -376.5 c 128,-1,17
 737 -391 737 -391 681 -391 c 0,18,19
 604 -391 604 -391 552 -345.5 c 128,-1,20
 500 -300 500 -300 500 -211 c 0,21,22
 500 -108 500 -108 600 -16 c 1,23,24
 589 -16 589 -16 578 -16 c 0,25,26
 449 -16 449 -16 347 28.5 c 128,-1,27
 245 73 245 73 186 162 c 128,-1,28
 127 251 127 251 127 383 c 2,29,-1
 127 1165 l 1,30,-1
 278 1165 l 1,31,-1
 278 383 l 2,32,33
 278 245 278 245 361.5 178 c 128,-1,34
 445 111 445 111 578 111 c 0,35,36
 712 111 712 111 794.5 178 c 128,-1,37
 877 245 877 245 877 383 c 2,38,-1
 877 1165 l 1,0,-1
EndSplineSet
EndChar

StartChar: V
Encoding: 86 86 279
Width: 1284
VWidth: 1798
GlyphClass: 2
Flags: W
AnchorPoint: "Anchor-1" 655 -240 basechar 0
AnchorPoint: "Anchor-0" 655 1362 basechar 0
LayerCount: 2
Fore
SplineSet
202 1206 m 1,0,-1
 642 -45 l 1,1,-1
 1084 1206 l 1,2,-1
 1255 1206 l 1,3,-1
 715 -250 l 1,4,-1
 570 -250 l 1,5,-1
 31 1206 l 1,6,-1
 202 1206 l 1,0,-1
EndSplineSet
Substitution2: "'c2sc' Capitals to Small Capitals lookup 0 subtable" V.smcp
Position2: "'cpsp' Capital Spacing lookup 0 subtable" dx=36 dy=0 dh=72 dv=0
EndChar

StartChar: V.smcp
Encoding: 65700 -1 280
Width: 1110
GlyphClass: 2
Flags: W
AnchorPoint: "Anchor-1" 561 10 basechar 0
AnchorPoint: "Anchor-0" 561 1320 basechar 0
LayerCount: 2
Fore
SplineSet
581 253 m 1,0,-1
 925 1165 l 1,1,-1
 1088 1165 l 1,2,-1
 628 0 l 1,3,-1
 482 0 l 1,4,-1
 22 1165 l 1,5,-1
 187 1165 l 1,6,-1
 529 253 l 1,7,-1
 555 162 l 1,8,-1
 581 253 l 1,0,-1
EndSplineSet
EndChar

StartChar: W
Encoding: 87 87 281
Width: 1827
VWidth: 1798
GlyphClass: 2
Flags: W
AnchorPoint: "Anchor-1" 922 -240 basechar 0
AnchorPoint: "Anchor-0" 924 1351 basechar 0
LayerCount: 2
Fore
SplineSet
553 163 m 1,0,-1
 856 1206 l 1,1,-1
 991 1206 l 1,2,-1
 1288 163 l 1,3,-1
 1336 -38 l 1,4,-1
 1375 178 l 1,5,-1
 1619 1206 l 1,6,-1
 1778 1206 l 1,7,-1
 1416 -250 l 1,8,-1
 1270 -250 l 1,9,-1
 954 849 l 1,10,-1
 924 980 l 1,11,-1
 895 849 l 1,12,-1
 571 -250 l 1,13,-1
 424 -250 l 1,14,-1
 61 1206 l 1,15,-1
 220 1206 l 1,16,-1
 468 178 l 1,17,-1
 505 -36 l 1,18,-1
 553 163 l 1,0,-1
EndSplineSet
Substitution2: "'c2sc' Capitals to Small Capitals lookup 0 subtable" W.smcp
Position2: "'cpsp' Capital Spacing lookup 0 subtable" dx=36 dy=0 dh=72 dv=0
EndChar

StartChar: W.smcp
Encoding: 65701 -1 282
Width: 1566
GlyphClass: 2
Flags: W
AnchorPoint: "Anchor-1" 786 10 basechar 0
AnchorPoint: "Anchor-0" 786 1320 basechar 0
LayerCount: 2
Fore
SplineSet
462 278 m 1,0,-1
 721 1165 l 1,1,-1
 859 1165 l 1,2,-1
 1115 276 l 1,3,-1
 1140 170 l 1,4,-1
 1162 293 l 1,5,-1
 1374 1165 l 1,6,-1
 1526 1165 l 1,7,-1
 1219 0 l 1,8,-1
 1074 0 l 1,9,-1
 803 927 l 1,10,-1
 791 979 l 1,11,-1
 780 927 l 1,12,-1
 502 0 l 1,13,-1
 357 0 l 1,14,-1
 50 1165 l 1,15,-1
 203 1165 l 1,16,-1
 416 292 l 1,17,-1
 437 173 l 1,18,-1
 462 278 l 1,0,-1
EndSplineSet
EndChar

StartChar: X
Encoding: 88 88 289
Width: 1269
VWidth: 1798
GlyphClass: 2
Flags: W
AnchorPoint: "Anchor-1" 645 -240 basechar 0
AnchorPoint: "Anchor-0" 653 1362 basechar 0
LayerCount: 2
Fore
SplineSet
256 1206 m 1,0,-1
 636 620 l 1,1,-1
 1016 1206 l 1,2,-1
 1202 1206 l 1,3,-1
 731 487 l 1,4,-1
 1215 -250 l 1,5,-1
 1028 -250 l 1,6,-1
 636 352 l 1,7,-1
 244 -250 l 1,8,-1
 57 -250 l 1,9,-1
 541 487 l 1,10,-1
 70 1206 l 1,11,-1
 256 1206 l 1,0,-1
EndSplineSet
Substitution2: "'c2sc' Capitals to Small Capitals lookup 0 subtable" X.smcp
Position2: "'cpsp' Capital Spacing lookup 0 subtable" dx=36 dy=0 dh=72 dv=0
EndChar

StartChar: X.smcp
Encoding: 65707 -1 290
Width: 1095
GlyphClass: 2
Flags: W
AnchorPoint: "Anchor-1" 550 8 basechar 0
AnchorPoint: "Anchor-0" 550 1320 basechar 0
LayerCount: 2
Fore
SplineSet
233 1165 m 1,0,-1
 546 707 l 1,1,-1
 860 1165 l 1,2,-1
 1043 1165 l 1,3,-1
 639 589 l 1,4,-1
 1058 0 l 1,5,-1
 876 0 l 1,6,-1
 548 469 l 1,7,-1
 222 0 l 1,8,-1
 41 0 l 1,9,-1
 457 589 l 1,10,-1
 52 1165 l 1,11,-1
 233 1165 l 1,0,-1
EndSplineSet
EndChar

StartChar: Y
Encoding: 89 89 291
Width: 1228
VWidth: 1798
GlyphClass: 2
Flags: W
AnchorPoint: "Anchor-1" 615 -249 basechar 0
AnchorPoint: "Anchor-0" 618 1350 basechar 0
LayerCount: 2
Fore
SplineSet
203 1206 m 1,0,-1
 613 444 l 1,1,-1
 1025 1206 l 1,2,-1
 1205 1206 l 1,3,-1
 692 296 l 1,4,-1
 692 -250 l 1,5,-1
 533 -250 l 1,6,-1
 533 296 l 1,7,-1
 20 1206 l 1,8,-1
 203 1206 l 1,0,-1
EndSplineSet
Substitution2: "'c2sc' Capitals to Small Capitals lookup 0 subtable" Y.smcp
Position2: "'cpsp' Capital Spacing lookup 0 subtable" dx=36 dy=0 dh=72 dv=0
EndChar

StartChar: Y.smcp
Encoding: 65708 -1 292
Width: 1063
GlyphClass: 2
Flags: W
AnchorPoint: "Anchor-1" 533 10 basechar 0
AnchorPoint: "Anchor-0" 533 1320 basechar 0
LayerCount: 2
Fore
SplineSet
190 1165 m 1,0,-1
 530 558 l 1,1,-1
 872 1165 l 1,2,-1
 1044 1165 l 1,3,-1
 605 414 l 1,4,-1
 605 0 l 1,5,-1
 453 0 l 1,6,-1
 453 422 l 1,7,-1
 18 1165 l 1,8,-1
 190 1165 l 1,0,-1
EndSplineSet
EndChar

StartChar: Z
Encoding: 90 90 301
Width: 1226
VWidth: 1798
GlyphClass: 2
Flags: W
AnchorPoint: "Anchor-1" 613 -240 basechar 0
AnchorPoint: "Anchor-0" 616 1351 basechar 0
LayerCount: 2
Fore
SplineSet
1142 -119 m 1,0,-1
 1142 -250 l 1,1,-1
 89 -250 l 1,2,-1
 89 -131 l 1,3,-1
 919 1074 l 1,4,-1
 109 1074 l 1,5,-1
 109 1206 l 1,6,-1
 1110 1206 l 1,7,-1
 1110 1092 l 1,8,-1
 277 -119 l 1,9,-1
 1142 -119 l 1,0,-1
EndSplineSet
Substitution2: "'c2sc' Capitals to Small Capitals lookup 0 subtable" Z.smcp
Position2: "'cpsp' Capital Spacing lookup 0 subtable" dx=36 dy=0 dh=72 dv=0
EndChar

StartChar: Z.smcp
Encoding: 65714 -1 302
Width: 1058
GlyphClass: 2
Flags: W
AnchorPoint: "Anchor-1" 533 10 basechar 0
AnchorPoint: "Anchor-0" 533 1320 basechar 0
LayerCount: 2
Fore
SplineSet
988 128 m 1,0,-1
 988 0 l 1,1,-1
 74 0 l 1,2,-1
 74 105 l 1,3,-1
 769 1038 l 1,4,-1
 89 1038 l 1,5,-1
 89 1165 l 1,6,-1
 962 1165 l 1,7,-1
 962 1065 l 1,8,-1
 268 128 l 1,9,-1
 988 128 l 1,0,-1
EndSplineSet
EndChar

StartChar: a
Encoding: 97 97 309
Width: 1106
VWidth: 1798
GlyphClass: 2
Flags: W
AnchorPoint: "Anchor-1" 502 -250 basechar 0
AnchorPoint: "Anchor-0" 582 1040 basechar 0
LayerCount: 2
Fore
SplineSet
825 -250 m 1,0,1
 815 -226 815 -226 808.5 -190.5 c 128,-1,2
 802 -155 802 -155 799 -118 c 1,3,4
 746 -180 746 -180 661 -225 c 128,-1,5
 576 -270 576 -270 463 -270 c 0,6,7
 355 -270 355 -270 274.5 -228.5 c 128,-1,8
 194 -187 194 -187 149.5 -116 c 128,-1,9
 105 -45 105 -45 105 44 c 0,10,11
 105 211 105 211 237 302 c 128,-1,12
 369 393 369 393 595 393 c 2,13,-1
 797 393 l 1,14,-1
 797 497 l 2,15,16
 797 603 797 603 732.5 665 c 128,-1,17
 668 727 668 727 544 727 c 0,18,19
 429 727 429 727 355.5 669.5 c 128,-1,20
 282 612 282 612 282 533 c 1,21,-1
 129 533 l 1,22,23
 129 613 129 613 181.5 686 c 128,-1,24
 234 759 234 759 329.5 805.5 c 128,-1,25
 425 852 425 852 552 852 c 0,26,27
 726 852 726 852 837.5 763 c 128,-1,28
 949 674 949 674 949 495 c 2,29,-1
 949 -18 l 2,30,31
 949 -73 949 -73 958.5 -134 c 128,-1,32
 968 -195 968 -195 985 -236 c 1,33,-1
 985 -250 l 1,34,-1
 825 -250 l 1,0,1
483 -135 m 0,35,36
 599 -135 599 -135 681 -78.5 c 128,-1,37
 763 -22 763 -22 797 52 c 1,38,-1
 797 282 l 1,39,-1
 618 282 l 2,40,41
 447 282 447 282 352.5 225.5 c 128,-1,42
 258 169 258 169 258 62 c 0,43,44
 258 -20 258 -20 316.5 -77.5 c 128,-1,45
 375 -135 375 -135 483 -135 c 0,35,36
EndSplineSet
Substitution2: "'unic' Unicase lookup 2 subtable" A.unic
Substitution2: "'smcp' Lowercase to Small Capitals lookup 1 subtable" A.smcp
EndChar

StartChar: acute
Encoding: 180 180 313
Width: 609
VWidth: 1798
GlyphClass: 2
Flags: W
LayerCount: 2
Fore
SplineSet
124 999 m 1,0,-1
 317 1286 l 1,1,-1
 500 1286 l 1,2,-1
 251 999 l 1,3,-1
 124 999 l 1,0,-1
EndSplineSet
EndChar

StartChar: acutecomb
Encoding: 769 769 314
Width: 0
VWidth: 1798
GlyphClass: 4
Flags: W
AnchorPoint: "Anchor-3" -566 1391 basemark 0
AnchorPoint: "Anchor-3" -566 1040 mark 0
AnchorPoint: "Anchor-0" -566 1040 mark 0
LayerCount: 2
Fore
SplineSet
-637 999 m 1,0,-1
 -444 1286 l 1,1,-1
 -260 1286 l 1,2,-1
 -510 999 l 1,3,-1
 -637 999 l 1,0,-1
EndSplineSet
EndChar

StartChar: ae
Encoding: 230 230 316
Width: 1731
VWidth: 1798
GlyphClass: 2
Flags: W
AnchorPoint: "Anchor-0" 859 1041 basechar 0
LayerCount: 2
Fore
SplineSet
1264 -271 m 0,0,1
 1128 -271 1128 -271 1028 -219.5 c 128,-1,2
 928 -168 928 -168 866 -78 c 1,3,4
 819 -147 819 -147 713 -209 c 128,-1,5
 607 -271 607 -271 438 -271 c 0,6,7
 266 -271 266 -271 174.5 -183.5 c 128,-1,8
 83 -96 83 -96 83 49 c 0,9,10
 83 206 83 206 195.5 295.5 c 128,-1,11
 308 385 308 385 526 385 c 2,12,-1
 765 385 l 1,13,-1
 765 470 l 2,14,15
 765 589 765 589 706 657 c 128,-1,16
 647 725 647 725 532 725 c 0,17,18
 407 725 407 725 334.5 663 c 128,-1,19
 262 601 262 601 262 513 c 1,20,-1
 111 528 l 1,21,22
 111 622 111 622 163.5 695 c 128,-1,23
 216 768 216 768 311 810 c 128,-1,24
 406 852 406 852 532 852 c 0,25,26
 652 852 652 852 740.5 805.5 c 128,-1,27
 829 759 829 759 874 666 c 1,28,29
 935 754 935 754 1026.5 803.5 c 128,-1,30
 1118 853 1118 853 1228 852 c 0,31,32
 1437 852 1437 852 1548.5 724.5 c 128,-1,33
 1660 597 1660 597 1660 377 c 2,34,-1
 1660 268 l 1,35,-1
 917 268 l 1,36,-1
 917 265 l 2,37,38
 917 152 917 152 953 59.5 c 128,-1,39
 989 -33 989 -33 1066 -88 c 128,-1,40
 1143 -143 1143 -143 1264 -143 c 0,41,42
 1380 -143 1380 -143 1456 -106.5 c 128,-1,43
 1532 -70 1532 -70 1584 -30 c 1,44,-1
 1640 -143 l 1,45,46
 1615 -165 1615 -165 1566.5 -195 c 128,-1,47
 1518 -225 1518 -225 1443.5 -248 c 128,-1,48
 1369 -271 1369 -271 1264 -271 c 0,0,1
1228 725 m 0,49,50
 1097 725 1097 725 1017.5 628.5 c 128,-1,51
 938 532 938 532 921 388 c 1,52,-1
 1507 388 l 1,53,-1
 1507 419 l 2,54,55
 1507 503 1507 503 1478.5 572.5 c 128,-1,56
 1450 642 1450 642 1388.5 683.5 c 128,-1,57
 1327 725 1327 725 1228 725 c 0,49,50
464 -144 m 0,58,59
 552 -144 552 -144 636.5 -100 c 128,-1,60
 721 -56 721 -56 765 -4 c 1,61,-1
 765 266 l 1,62,-1
 528 266 l 2,63,64
 381 266 381 266 308 200 c 128,-1,65
 235 134 235 134 235 45 c 0,66,67
 235 -37 235 -37 292 -90.5 c 128,-1,68
 349 -144 349 -144 464 -144 c 0,58,59
EndSplineSet
Substitution2: "'unic' Unicase lookup 2 subtable" AE
Substitution2: "'smcp' Lowercase to Small Capitals lookup 1 subtable" AE.smcp
EndChar

StartChar: afii57636
Encoding: 8362 8362 321
Width: 1571
GlyphClass: 2
Flags: W
LayerCount: 2
Fore
SplineSet
148 1082 m 1,0,-1
 676 1082 l 2,1,2
 837 1082 837 1082 930 991.5 c 128,-1,3
 1023 901 1023 901 1023 674 c 2,4,-1
 1023 347 l 1,5,-1
 870 347 l 1,6,-1
 870 675 l 2,7,8
 870 837 870 837 807.5 896 c 128,-1,9
 745 955 745 955 634 955 c 2,10,-1
 301 955 l 1,11,-1
 301 0 l 1,12,-1
 148 0 l 1,13,-1
 148 1082 l 1,0,-1
1077 0 m 2,14,-1
 549 0 l 1,15,-1
 549 736 l 1,16,-1
 701 736 l 1,17,-1
 701 127 l 1,18,-1
 1035 127 l 2,19,20
 1147 127 1147 127 1209 186.5 c 128,-1,21
 1271 246 1271 246 1271 407 c 2,22,-1
 1271 1082 l 1,23,-1
 1423 1082 l 1,24,-1
 1423 409 l 2,25,26
 1423 182 1423 182 1330.5 91 c 128,-1,27
 1238 0 1238 0 1077 0 c 2,14,-1
EndSplineSet
EndChar

StartChar: ampersand
Encoding: 38 38 325
Width: 1267
VWidth: 1798
GlyphClass: 2
Flags: W
LayerCount: 2
Fore
SplineSet
1066 -250 m 1,0,-1
 955 -119 l 1,1,2
 878 -192 878 -192 776 -231 c 128,-1,3
 674 -270 674 -270 566 -270 c 0,4,5
 424 -270 424 -270 320.5 -219 c 128,-1,6
 217 -168 217 -168 161 -77.5 c 128,-1,7
 105 13 105 13 105 132 c 0,8,9
 105 265 105 265 187 358 c 128,-1,10
 269 451 269 451 394 542 c 1,11,12
 318 635 318 635 273.5 715.5 c 128,-1,13
 229 796 229 796 229 884 c 0,14,15
 229 1046 229 1046 324.5 1136 c 128,-1,16
 420 1226 420 1226 579 1226 c 0,17,18
 682 1226 682 1226 755.5 1185.5 c 128,-1,19
 829 1145 829 1145 868.5 1077.5 c 128,-1,20
 908 1010 908 1010 908 930 c 0,21,22
 908 828 908 828 849.5 753.5 c 128,-1,23
 791 679 791 679 711 619 c 2,24,-1
 591 528 l 1,25,-1
 953 100 l 1,26,27
 991 164 991 164 1012 243 c 128,-1,28
 1033 322 1033 322 1033 412 c 1,29,-1
 1171 412 l 1,30,31
 1171 159 1171 159 1046 -9 c 1,32,-1
 1249 -250 l 1,33,-1
 1066 -250 l 1,0,-1
383 889 m 0,34,35
 383 829 383 829 416.5 764 c 128,-1,36
 450 699 450 699 509 626 c 1,37,-1
 626 712 l 2,38,39
 690 757 690 757 728 806 c 128,-1,40
 766 855 766 855 766 930 c 0,41,42
 766 995 766 995 717.5 1047.5 c 128,-1,43
 669 1100 669 1100 579 1100 c 0,44,45
 482 1100 482 1100 432.5 1037 c 128,-1,46
 383 974 383 974 383 889 c 0,34,35
258 132 m 0,47,48
 258 21 258 21 333.5 -60.5 c 128,-1,49
 409 -142 409 -142 566 -142 c 0,50,51
 734 -142 734 -142 865 -14 c 1,52,-1
 482 438 l 2,53,54
 480 440 480 440 478 442 c 2,55,-1
 434 409 l 2,56,57
 355 348 355 348 317.5 295 c 128,-1,58
 280 242 280 242 269 200.5 c 128,-1,59
 258 159 258 159 258 132 c 0,47,48
EndSplineSet
Substitution2: "'smcp' Lowercase to Small Capitals lookup 1 subtable" ampersand.smcp
Substitution2: "'c2sc' Capitals to Small Capitals lookup 0 subtable" ampersand.smcp
Position2: "'cpsp' Capital Spacing lookup 0 subtable" dx=36 dy=0 dh=72 dv=0
EndChar

StartChar: ampersand.smcp
Encoding: 65718 -1 326
Width: 1240
GlyphClass: 2
Flags: W
LayerCount: 2
Fore
SplineSet
493 -17 m 0,0,1
 317 -17 317 -17 215 66.5 c 128,-1,2
 113 150 113 150 113 277 c 0,3,4
 113 378 113 378 163 444.5 c 128,-1,5
 213 511 213 511 300 575 c 2,6,-1
 378 631 l 1,7,8
 303 708 303 708 254.5 773 c 128,-1,9
 206 838 206 838 206 924 c 0,10,11
 206 1039 206 1039 289 1110 c 128,-1,12
 372 1181 372 1181 509 1181 c 0,13,14
 648 1181 648 1181 727.5 1105.5 c 128,-1,15
 807 1030 807 1030 807 928 c 0,16,17
 807 853 807 853 763 789.5 c 128,-1,18
 719 726 719 726 662 685 c 2,19,-1
 572 619 l 1,20,-1
 877 301 l 1,21,22
 956 420 956 420 956 583 c 1,23,-1
 1096 583 l 1,24,25
 1096 476 1096 476 1063 380 c 128,-1,26
 1030 284 1030 284 969 205 c 1,27,-1
 1166 0 l 1,28,-1
 989 0 l 1,29,-1
 882 111 l 1,30,31
 808 51 808 51 710 17 c 128,-1,32
 612 -17 612 -17 493 -17 c 0,0,1
356 915 m 256,33,34
 356 863 356 863 393 814.5 c 128,-1,35
 430 766 430 766 486 709 c 1,36,-1
 564 765 l 2,37,38
 658 834 658 834 658 918 c 0,39,40
 658 974 658 974 618 1013 c 128,-1,41
 578 1052 578 1052 504 1052 c 0,42,43
 431 1052 431 1052 393.5 1009.5 c 128,-1,44
 356 967 356 967 356 915 c 256,33,34
263 295 m 0,45,46
 263 219 263 219 323 165.5 c 128,-1,47
 383 112 383 112 506 112 c 0,48,49
 590 112 590 112 662 136.5 c 128,-1,50
 734 161 734 161 791 205 c 1,51,-1
 465 542 l 1,52,-1
 376 477 l 2,53,54
 303 424 303 424 283 379 c 128,-1,55
 263 334 263 334 263 295 c 0,45,46
EndSplineSet
EndChar

StartChar: aogonek
Encoding: 261 261 327
Width: 1106
VWidth: 1798
GlyphClass: 2
Flags: W
AnchorPoint: "Anchor-1" 502 -250 basechar 0
AnchorPoint: "Anchor-0" 582 1040 basechar 0
LayerCount: 2
Fore
SplineSet
984 -630 m 1,0,1
 961 -645 961 -645 924.5 -659.5 c 128,-1,2
 888 -674 888 -674 832 -674 c 0,3,4
 755 -674 755 -674 703 -628.5 c 128,-1,5
 651 -583 651 -583 651 -494 c 0,6,7
 651 -429 651 -429 694.5 -364 c 128,-1,8
 738 -299 738 -299 823 -244 c 1,9,10
 814 -219 814 -219 808 -186 c 128,-1,11
 802 -153 802 -153 799 -118 c 1,12,13
 746 -180 746 -180 661 -225 c 128,-1,14
 576 -270 576 -270 463 -270 c 0,15,16
 355 -270 355 -270 274.5 -228.5 c 128,-1,17
 194 -187 194 -187 149.5 -116 c 128,-1,18
 105 -45 105 -45 105 44 c 0,19,20
 105 211 105 211 237 302 c 128,-1,21
 369 393 369 393 595 393 c 2,22,-1
 797 393 l 1,23,-1
 797 497 l 2,24,25
 797 603 797 603 732.5 665 c 128,-1,26
 668 727 668 727 544 727 c 0,27,28
 429 727 429 727 355.5 669.5 c 128,-1,29
 282 612 282 612 282 533 c 1,30,-1
 129 533 l 1,31,32
 129 613 129 613 181.5 686 c 128,-1,33
 234 759 234 759 329.5 805.5 c 128,-1,34
 425 852 425 852 552 852 c 0,35,36
 726 852 726 852 837.5 763 c 128,-1,37
 949 674 949 674 949 495 c 2,38,-1
 949 -18 l 2,39,40
 949 -73 949 -73 958.5 -134 c 128,-1,41
 968 -195 968 -195 985 -236 c 1,42,-1
 985 -250 l 1,43,-1
 961 -250 l 1,44,45
 895 -300 895 -300 840.5 -355.5 c 128,-1,46
 786 -411 786 -411 786 -478 c 0,47,48
 786 -512 786 -512 803.5 -534 c 128,-1,49
 821 -556 821 -556 867 -556 c 0,50,51
 902 -556 902 -556 928 -546 c 128,-1,52
 954 -536 954 -536 970 -527 c 1,53,-1
 984 -630 l 1,0,1
483 -135 m 0,54,55
 599 -135 599 -135 681 -78.5 c 128,-1,56
 763 -22 763 -22 797 52 c 1,57,-1
 797 282 l 1,58,-1
 618 282 l 2,59,60
 447 282 447 282 352.5 225.5 c 128,-1,61
 258 169 258 169 258 62 c 0,62,63
 258 -20 258 -20 316.5 -77.5 c 128,-1,64
 375 -135 375 -135 483 -135 c 0,54,55
EndSplineSet
Substitution2: "'locl' Localized Forms in Latin lookup 8 subtable" aogonek.NAV
Substitution2: "'unic' Unicase lookup 2 subtable" Aogonek.unic
Substitution2: "'smcp' Lowercase to Small Capitals lookup 1 subtable" Aogonek.smcp
EndChar

StartChar: approxequal
Encoding: 8776 8776 329
Width: 1154
GlyphClass: 2
Flags: W
LayerCount: 2
Fore
SplineSet
107 727 m 1,0,-1
 104 885 l 1,1,2
 151 941 151 941 216.5 972.5 c 128,-1,3
 282 1004 282 1004 347 1004 c 0,4,5
 427 1006 427 1006 472.5 984.5 c 128,-1,6
 518 963 518 963 581 931 c 0,7,8
 640 901 640 901 683 880.5 c 128,-1,9
 726 860 726 860 800 860 c 0,10,11
 865 860 865 860 926.5 896 c 128,-1,12
 988 932 988 932 1035 994 c 1,13,-1
 1038 836 l 1,14,15
 991 781 991 781 929 749 c 128,-1,16
 867 717 867 717 802 717 c 0,17,18
 728 717 728 717 685.5 736.5 c 128,-1,19
 643 756 643 756 584 786 c 0,20,21
 521 818 521 818 474.5 840 c 128,-1,22
 428 862 428 862 348 860 c 0,23,24
 283 860 283 860 218.5 824.5 c 128,-1,25
 154 789 154 789 107 727 c 1,0,-1
103 317 m 1,26,-1
 101 475 l 1,27,28
 148 531 148 531 213.5 562 c 128,-1,29
 279 593 279 593 344 593 c 0,30,31
 424 595 424 595 469.5 573.5 c 128,-1,32
 515 552 515 552 578 520 c 0,33,34
 637 490 637 490 680 470 c 128,-1,35
 723 450 723 450 797 450 c 0,36,37
 862 450 862 450 923.5 486 c 128,-1,38
 985 522 985 522 1032 584 c 1,39,-1
 1034 425 l 1,40,41
 987 370 987 370 925 338.5 c 128,-1,42
 863 307 863 307 798 307 c 0,43,44
 724 307 724 307 681.5 326.5 c 128,-1,45
 639 346 639 346 580 376 c 0,46,47
 517 408 517 408 470.5 430.5 c 128,-1,48
 424 453 424 453 344 451 c 0,49,50
 279 451 279 451 214.5 415 c 128,-1,51
 150 379 150 379 103 317 c 1,26,-1
EndSplineSet
EndChar

StartChar: arabic_2dots
Encoding: 65720 -1 330
Width: 517
GlyphClass: 1
Flags: W
LayerCount: 2
Fore
SplineSet
409 222 m 1,0,-1
 530 102 l 1,1,-1
 409 -20 l 1,2,-1
 289 102 l 1,3,-1
 409 222 l 1,0,-1
105 222 m 1,4,-1
 226 102 l 1,5,-1
 105 -20 l 1,6,-1
 -15 102 l 1,7,-1
 105 222 l 1,4,-1
EndSplineSet
EndChar

StartChar: arabic_3dots
Encoding: 65721 -1 331
Width: 528
GlyphClass: 1
Flags: W
LayerCount: 2
Fore
SplineSet
255 422 m 1,0,-1
 372 305 l 1,1,-1
 255 188 l 1,2,-1
 138 305 l 1,3,-1
 255 422 l 1,0,-1
414 183 m 1,4,-1
 531 66 l 1,5,-1
 414 -51 l 1,6,-1
 296 66 l 1,7,-1
 414 183 l 1,4,-1
97 183 m 1,8,-1
 214 66 l 1,9,-1
 97 -51 l 1,10,-1
 -20 66 l 1,11,-1
 97 183 l 1,8,-1
EndSplineSet
EndChar

StartChar: arabic_3dots_a
Encoding: 65722 -1 332
Width: 528
GlyphClass: 1
Flags: W
LayerCount: 2
Fore
SplineSet
414 251 m 1,0,-1
 531 134 l 1,1,-1
 414 17 l 1,2,-1
 296 134 l 1,3,-1
 414 251 l 1,0,-1
97 251 m 1,4,-1
 214 134 l 1,5,-1
 97 17 l 1,6,-1
 -20 134 l 1,7,-1
 97 251 l 1,4,-1
255 12 m 1,8,-1
 372 -105 l 1,9,-1
 255 -222 l 1,10,-1
 138 -105 l 1,11,-1
 255 12 l 1,8,-1
EndSplineSet
EndChar

StartChar: arabic_dot
Encoding: 65723 -1 333
Width: 197
GlyphClass: 1
Flags: W
LayerCount: 2
Fore
SplineSet
96 228 m 1,0,-1
 222 102 l 1,1,-1
 96 -24 l 1,2,-1
 -30 102 l 1,3,-1
 96 228 l 1,0,-1
EndSplineSet
EndChar

StartChar: arabic_gaf_bar
Encoding: 65724 -1 334
Width: 787
GlyphClass: 1
Flags: W
LayerCount: 2
Fore
SplineSet
-65 1574 m 1,0,-1
 -65 1668 l 1,1,-1
 688 1974 l 1,2,-1
 688 1879 l 1,3,-1
 -65 1574 l 1,0,-1
EndSplineSet
EndChar

StartChar: asciicircum
Encoding: 94 94 337
Width: 854
VWidth: 1798
GlyphClass: 2
Flags: W
LayerCount: 2
Fore
SplineSet
633 479 m 1,0,-1
 424 1005 l 1,1,-1
 215 479 l 1,2,-1
 71 479 l 1,3,-1
 370 1206 l 1,4,-1
 479 1206 l 1,5,-1
 777 479 l 1,6,-1
 633 479 l 1,0,-1
EndSplineSet
EndChar

StartChar: asciitilde
Encoding: 126 126 338
Width: 1398
VWidth: 1798
GlyphClass: 2
Flags: W
LayerCount: 2
Fore
SplineSet
1131 521 m 1,0,-1
 1259 522 l 1,1,2
 1259 424 1259 424 1220.5 342.5 c 128,-1,3
 1182 261 1182 261 1112.5 212 c 128,-1,4
 1043 163 1043 163 949 163 c 0,5,6
 861 163 861 163 795.5 199 c 128,-1,7
 730 235 730 235 651 304 c 0,8,9
 594 357 594 357 548.5 383.5 c 128,-1,10
 503 410 503 410 448 410 c 0,11,12
 366 410 366 410 319.5 353 c 128,-1,13
 273 296 273 296 273 194 c 1,14,-1
 138 193 l 1,15,16
 138 293 138 293 176 372.5 c 128,-1,17
 214 452 214 452 284 499 c 128,-1,18
 354 546 354 546 448 546 c 0,19,20
 537 546 537 546 604 508.5 c 128,-1,21
 671 471 671 471 746 404 c 0,22,23
 806 349 806 349 851 323.5 c 128,-1,24
 896 298 896 298 949 298 c 0,25,26
 1033 298 1033 298 1082 359.5 c 128,-1,27
 1131 421 1131 421 1131 521 c 1,0,-1
EndSplineSet
EndChar

StartChar: asterisk
Encoding: 42 42 339
Width: 876
VWidth: 1798
GlyphClass: 2
Flags: W
LayerCount: 2
Fore
SplineSet
137 454 m 1,0,-1
 346 742 l 1,1,-1
 29 841 l 1,2,-1
 68 967 l 1,3,-1
 385 850 l 1,4,-1
 379 1207 l 1,5,-1
 507 1207 l 1,6,-1
 498 846 l 1,7,-1
 809 965 l 1,8,-1
 849 837 l 1,9,-1
 528 734 l 1,10,-1
 738 452 l 1,11,-1
 634 374 l 1,12,-1
 434 670 l 1,13,-1
 242 378 l 1,14,-1
 137 454 l 1,0,-1
EndSplineSet
EndChar

StartChar: at
Encoding: 64 64 340
Width: 1855
VWidth: 1798
GlyphClass: 2
Flags: W
LayerCount: 2
Fore
SplineSet
1744 258 m 0,0,1
 1740 165 1740 165 1716.5 71.5 c 128,-1,2
 1693 -22 1693 -22 1645.5 -99.5 c 128,-1,3
 1598 -177 1598 -177 1524 -224 c 128,-1,4
 1450 -271 1450 -271 1345 -271 c 0,5,6
 1250 -271 1250 -271 1189 -223 c 128,-1,7
 1128 -175 1128 -175 1105 -88 c 1,8,9
 1051 -179 1051 -179 977.5 -225 c 128,-1,10
 904 -271 904 -271 822 -271 c 0,11,12
 677 -271 677 -271 608 -148.5 c 128,-1,13
 539 -26 539 -26 557 173 c 0,14,15
 573 347 573 347 636 474 c 128,-1,16
 699 601 699 601 792.5 670.5 c 128,-1,17
 886 740 886 740 991 740 c 0,18,19
 1095 740 1095 740 1155 708 c 128,-1,20
 1215 676 1215 676 1270 633 c 1,21,-1
 1219 71 l 2,22,23
 1210 -31 1210 -31 1232.5 -82.5 c 128,-1,24
 1255 -134 1255 -134 1292 -151 c 128,-1,25
 1329 -168 1329 -168 1361 -168 c 0,26,27
 1446 -168 1446 -168 1504.5 -111.5 c 128,-1,28
 1563 -55 1563 -55 1595.5 42 c 128,-1,29
 1628 139 1628 139 1633 258 c 0,30,31
 1645 509 1645 509 1579 689.5 c 128,-1,32
 1513 870 1513 870 1363 967 c 128,-1,33
 1213 1064 1213 1064 973 1064 c 0,34,35
 761 1064 761 1064 600.5 959.5 c 128,-1,36
 440 855 440 855 346.5 667 c 128,-1,37
 253 479 253 479 242 228 c 0,38,39
 230 -21 230 -21 303.5 -206 c 128,-1,40
 377 -391 377 -391 528.5 -493 c 128,-1,41
 680 -595 680 -595 900 -595 c 0,42,43
 988 -595 988 -595 1078.5 -574 c 128,-1,44
 1169 -553 1169 -553 1230 -517 c 1,45,-1
 1265 -614 l 1,46,47
 1197 -658 1197 -658 1092.5 -680.5 c 128,-1,48
 988 -703 988 -703 896 -703 c 0,49,50
 643 -703 643 -703 464.5 -590 c 128,-1,51
 286 -477 286 -477 196.5 -268 c 128,-1,52
 107 -59 107 -59 119 228 c 0,53,54
 128 436 128 436 192.5 609.5 c 128,-1,55
 257 783 257 783 369 910 c 128,-1,56
 481 1037 481 1037 634.5 1106.5 c 128,-1,57
 788 1176 788 1176 977 1176 c 0,58,59
 1239 1176 1239 1176 1413.5 1063.5 c 128,-1,60
 1588 951 1588 951 1672 745 c 128,-1,61
 1756 539 1756 539 1744 258 c 0,0,1
690 173 m 0,62,63
 675 25 675 25 718 -62 c 128,-1,64
 761 -149 761 -149 856 -149 c 0,65,66
 917 -149 917 -149 983.5 -100 c 128,-1,67
 1050 -51 1050 -51 1095 76 c 1,68,-1
 1142 591 l 1,69,70
 1115 607 1115 607 1080 618 c 128,-1,71
 1045 629 1045 629 1002 629 c 0,72,73
 887 629 887 629 799.5 515.5 c 128,-1,74
 712 402 712 402 690 173 c 0,62,63
EndSplineSet
EndChar

StartChar: b
Encoding: 98 98 342
Width: 1143
VWidth: 1798
GlyphClass: 2
Flags: W
AnchorPoint: "Anchor-1" 598 -260 basechar 0
AnchorPoint: "Anchor-0" 634 1361 basechar 0
LayerCount: 2
Fore
SplineSet
1043 301 m 2,0,-1
 1043 280 l 2,1,2
 1043 120 1043 120 993.5 -4 c 128,-1,3
 944 -128 944 -128 851 -199 c 128,-1,4
 758 -270 758 -270 625 -270 c 0,5,6
 514 -270 514 -270 432.5 -228.5 c 128,-1,7
 351 -187 351 -187 297 -113 c 1,8,-1
 289 -250 l 1,9,-1
 148 -250 l 1,10,-1
 148 1286 l 1,11,-1
 301 1286 l 1,12,-1
 301 696 l 1,13,14
 355 771 355 771 434.5 811.5 c 128,-1,15
 514 852 514 852 623 852 c 0,16,17
 758 852 758 852 851.5 783.5 c 128,-1,18
 945 715 945 715 994 591 c 128,-1,19
 1043 467 1043 467 1043 301 c 2,0,-1
889 280 m 2,20,-1
 889 301 l 2,21,22
 889 418 889 418 859 513.5 c 128,-1,23
 829 609 829 609 763.5 665.5 c 128,-1,24
 698 722 698 722 589 722 c 0,25,26
 473 722 473 722 404.5 665 c 128,-1,27
 336 608 336 608 301 530 c 1,28,-1
 301 46 l 1,29,30
 338 -32 338 -32 408.5 -85.5 c 128,-1,31
 479 -139 479 -139 591 -139 c 0,32,33
 696 -139 696 -139 761.5 -83 c 128,-1,34
 827 -27 827 -27 858 68 c 128,-1,35
 889 163 889 163 889 280 c 2,20,-1
EndSplineSet
Substitution2: "'unic' Unicase lookup 2 subtable" B
Substitution2: "'smcp' Lowercase to Small Capitals lookup 1 subtable" B.smcp
EndChar

StartChar: backslash
Encoding: 92 92 343
Width: 824
VWidth: 1798
GlyphClass: 2
Flags: W
LayerCount: 2
Fore
SplineSet
653 -375 m 1,0,-1
 45 1206 l 1,1,-1
 192 1206 l 1,2,-1
 800 -375 l 1,3,-1
 653 -375 l 1,0,-1
EndSplineSet
EndChar

StartChar: bar
Encoding: 124 124 344
Width: 477
VWidth: 1798
GlyphClass: 2
Flags: W
LayerCount: 2
Fore
SplineSet
303 1206 m 1,0,-1
 303 -520 l 1,1,-1
 177 -520 l 1,2,-1
 177 1206 l 1,3,-1
 303 1206 l 1,0,-1
EndSplineSet
EndChar

StartChar: braceleft
Encoding: 123 123 345
Width: 685
VWidth: 1798
GlyphClass: 2
Flags: W
LayerCount: 2
Fore
SplineSet
669 -537 m 1,0,-1
 635 -635 l 1,1,2
 502 -596 502 -596 426.5 -527 c 128,-1,3
 351 -458 351 -458 319.5 -367 c 128,-1,4
 288 -276 288 -276 288 -171 c 2,5,-1
 288 45 l 2,6,7
 288 158 288 158 236 225.5 c 128,-1,8
 184 293 184 293 66 293 c 1,9,-1
 66 418 l 1,10,11
 184 418 184 418 236 485 c 128,-1,12
 288 552 288 552 288 665 c 2,13,-1
 288 882 l 2,14,15
 288 987 288 987 319.5 1078.5 c 128,-1,16
 351 1170 351 1170 426.5 1239.5 c 128,-1,17
 502 1309 502 1309 635 1347 c 1,18,-1
 668 1250 l 1,19,20
 541 1210 541 1210 491 1111 c 128,-1,21
 441 1012 441 1012 441 882 c 2,22,-1
 441 665 l 2,23,24
 441 563 441 563 399.5 481 c 128,-1,25
 358 399 358 399 267 355 c 1,26,27
 358 312 358 312 399.5 229.5 c 128,-1,28
 441 147 441 147 441 45 c 2,29,-1
 441 -171 l 2,30,31
 441 -301 441 -301 492 -398.5 c 128,-1,32
 543 -496 543 -496 669 -537 c 1,0,-1
EndSplineSet
EndChar

StartChar: braceright
Encoding: 125 125 346
Width: 685
VWidth: 1798
GlyphClass: 2
Flags: W
LayerCount: 2
Fore
SplineSet
49 -635 m 1,0,-1
 15 -537 l 1,1,2
 140 -496 140 -496 191.5 -398.5 c 128,-1,3
 243 -301 243 -301 243 -171 c 2,4,-1
 243 45 l 2,5,6
 243 151 243 151 287.5 233 c 128,-1,7
 332 315 332 315 430 355 c 1,8,9
 332 396 332 396 287.5 478 c 128,-1,10
 243 560 243 560 243 665 c 2,11,-1
 243 882 l 2,12,13
 243 1012 243 1012 193 1111 c 128,-1,14
 143 1210 143 1210 16 1250 c 1,15,-1
 49 1347 l 1,16,17
 182 1309 182 1309 257.5 1239.5 c 128,-1,18
 333 1170 333 1170 364.5 1078.5 c 128,-1,19
 396 987 396 987 396 882 c 2,20,-1
 396 665 l 2,21,22
 396 552 396 552 448 485 c 128,-1,23
 500 418 500 418 617 418 c 1,24,-1
 617 293 l 1,25,26
 500 293 500 293 448 225.5 c 128,-1,27
 396 158 396 158 396 45 c 2,28,-1
 396 -171 l 2,29,30
 396 -276 396 -276 364.5 -367 c 128,-1,31
 333 -458 333 -458 257.5 -527 c 128,-1,32
 182 -596 182 -596 49 -635 c 1,0,-1
EndSplineSet
EndChar

StartChar: bracketleft
Encoding: 91 91 347
Width: 517
VWidth: 1798
GlyphClass: 2
Flags: W
LayerCount: 2
Fore
SplineSet
508 1287 m 1,0,-1
 308 1287 l 1,1,-1
 308 -434 l 1,2,-1
 508 -434 l 1,3,-1
 508 -561 l 1,4,-1
 164 -561 l 1,5,-1
 164 1413 l 1,6,-1
 508 1413 l 1,7,-1
 508 1287 l 1,0,-1
EndSplineSet
Position2: "Single Positioning lookup 9 subtable" dx=0 dy=0 dh=100 dv=0
Position2: "Single Positioning lookup 8 subtable" dx=0 dy=0 dh=160 dv=0
EndChar

StartChar: bracketright
Encoding: 93 93 348
Width: 517
VWidth: 1798
GlyphClass: 2
Flags: W
LayerCount: 2
Fore
SplineSet
5 1413 m 1,0,-1
 350 1413 l 1,1,-1
 350 -561 l 1,2,-1
 5 -561 l 1,3,-1
 5 -434 l 1,4,-1
 207 -434 l 1,5,-1
 207 1287 l 1,6,-1
 5 1287 l 1,7,-1
 5 1413 l 1,0,-1
EndSplineSet
EndChar

StartChar: breve
Encoding: 728 728 349
Width: 871
VWidth: 1798
GlyphClass: 2
Flags: W
LayerCount: 2
Fore
SplineSet
596 1243 m 1,0,-1
 722 1243 l 1,1,2
 722 1128 722 1128 644 1054.5 c 128,-1,3
 566 981 566 981 429 981 c 0,4,5
 293 981 293 981 213.5 1054.5 c 128,-1,6
 134 1128 134 1128 134 1243 c 1,7,-1
 260 1243 l 1,8,9
 260 1179 260 1179 298 1131 c 128,-1,10
 336 1083 336 1083 429 1083 c 0,11,12
 518 1083 518 1083 557 1131 c 128,-1,13
 596 1179 596 1179 596 1243 c 1,0,-1
EndSplineSet
EndChar

StartChar: brokenbar
Encoding: 166 166 350
Width: 469
VWidth: 1798
GlyphClass: 2
Flags: W
LayerCount: 2
Fore
SplineSet
306 1206 m 1,0,-1
 306 448 l 1,1,-1
 154 448 l 1,2,-1
 154 1206 l 1,3,-1
 306 1206 l 1,0,-1
306 -520 m 1,4,-1
 154 -520 l 1,5,-1
 154 262 l 1,6,-1
 306 262 l 1,7,-1
 306 -520 l 1,4,-1
EndSplineSet
EndChar

StartChar: bullet
Encoding: 8226 8226 351
Width: 677
GlyphClass: 2
Flags: W
LayerCount: 2
Fore
SplineSet
143 725 m 2,0,-1
 143 763 l 2,1,2
 143 845 143 845 195.5 898.5 c 128,-1,3
 248 952 248 952 337 952 c 0,4,5
 428 952 428 952 480.5 898 c 128,-1,6
 533 844 533 844 533 763 c 2,7,-1
 533 725 l 2,8,9
 533 644 533 644 480.5 591 c 128,-1,10
 428 538 428 538 338 538 c 256,11,12
 248 538 248 538 195.5 591 c 128,-1,13
 143 644 143 644 143 725 c 2,0,-1
EndSplineSet
EndChar

StartChar: c
Encoding: 99 99 352
Width: 1064
VWidth: 1798
GlyphClass: 2
Flags: W
AnchorPoint: "Anchor-1" 533 -260 basechar 0
AnchorPoint: "Anchor-0" 533 1040 basechar 0
LayerCount: 2
Fore
SplineSet
565 -142 m 0,0,1
 672 -142 672 -142 754 -80.5 c 128,-1,2
 836 -19 836 -19 843 89 c 1,3,-1
 989 89 l 1,4,5
 984 -11 984 -11 925.5 -92.5 c 128,-1,6
 867 -174 867 -174 772.5 -222 c 128,-1,7
 678 -270 678 -270 565 -270 c 0,8,9
 408 -270 408 -270 303.5 -197 c 128,-1,10
 199 -124 199 -124 146.5 -1 c 128,-1,11
 94 122 94 122 94 270 c 2,12,-1
 94 312 l 2,13,14
 94 461 94 461 146.5 583.5 c 128,-1,15
 199 706 199 706 303.5 779 c 128,-1,16
 408 852 408 852 565 852 c 0,17,18
 686 852 686 852 780 802.5 c 128,-1,19
 874 753 874 753 929 666 c 128,-1,20
 984 579 984 579 989 464 c 1,21,-1
 843 464 l 1,22,23
 836 579 836 579 758.5 652 c 128,-1,24
 681 725 681 725 565 725 c 0,25,26
 447 725 447 725 377 665 c 128,-1,27
 307 605 307 605 276.5 510.5 c 128,-1,28
 246 416 246 416 246 312 c 2,29,-1
 246 270 l 2,30,31
 246 165 246 165 276 71 c 128,-1,32
 306 -23 306 -23 376 -82.5 c 128,-1,33
 446 -142 446 -142 565 -142 c 0,0,1
EndSplineSet
Substitution2: "'unic' Unicase lookup 2 subtable" C
Substitution2: "'smcp' Lowercase to Small Capitals lookup 1 subtable" C.smcp
EndChar

StartChar: caron
Encoding: 711 711 354
Width: 874
VWidth: 1798
GlyphClass: 2
Flags: W
LayerCount: 2
Fore
SplineSet
274 1278 m 1,0,-1
 436 1096 l 1,1,-1
 598 1278 l 1,2,-1
 731 1278 l 1,3,-1
 731 1267 l 1,4,-1
 486 999 l 1,5,-1
 386 999 l 1,6,-1
 143 1268 l 1,7,-1
 143 1278 l 1,8,-1
 274 1278 l 1,0,-1
EndSplineSet
EndChar

StartChar: cedilla
Encoding: 184 184 358
Width: 504
VWidth: 1798
GlyphClass: 2
Flags: W
LayerCount: 2
Fore
SplineSet
153 -250 m 1,0,-1
 266 -250 l 1,1,-1
 254 -309 l 1,2,3
 314 -318 314 -318 363.5 -355 c 128,-1,4
 413 -392 413 -392 413 -481 c 0,5,6
 413 -572 413 -572 336.5 -628.5 c 128,-1,7
 260 -685 260 -685 114 -685 c 1,8,-1
 107 -592 l 1,9,10
 179 -592 179 -592 235 -566.5 c 128,-1,11
 291 -541 291 -541 291 -483 c 0,12,13
 291 -429 291 -429 250 -408.5 c 128,-1,14
 209 -388 209 -388 123 -381 c 1,15,-1
 153 -250 l 1,0,-1
EndSplineSet
EndChar

StartChar: cent
Encoding: 162 162 359
Width: 1118
VWidth: 1798
GlyphClass: 2
Flags: W
LayerCount: 2
Fore
SplineSet
584 -142 m 0,0,1
 691 -142 691 -142 773 -80.5 c 128,-1,2
 855 -19 855 -19 862 89 c 1,3,-1
 1008 89 l 1,4,5
 1003 0 1003 0 955 -75 c 128,-1,6
 907 -150 907 -150 828.5 -200 c 128,-1,7
 750 -250 750 -250 654 -265 c 1,8,-1
 654 -495 l 1,9,-1
 500 -495 l 1,10,-1
 500 -264 l 1,11,12
 371 -244 371 -244 284.5 -168.5 c 128,-1,13
 198 -93 198 -93 155 21 c 128,-1,14
 112 135 112 135 112 270 c 2,15,-1
 112 312 l 2,16,17
 112 447 112 447 155 561 c 128,-1,18
 198 675 198 675 284.5 750.5 c 128,-1,19
 371 826 371 826 500 846 c 1,20,-1
 500 1068 l 1,21,-1
 654 1068 l 1,22,-1
 654 847 l 1,23,24
 807 827 807 827 904 723 c 128,-1,25
 1001 619 1001 619 1008 464 c 1,26,-1
 862 464 l 1,27,28
 855 579 855 579 777.5 652 c 128,-1,29
 700 725 700 725 584 725 c 0,30,31
 466 725 466 725 396 665 c 128,-1,32
 326 605 326 605 295.5 510.5 c 128,-1,33
 265 416 265 416 265 312 c 2,34,-1
 265 270 l 2,35,36
 265 165 265 165 295 71 c 128,-1,37
 325 -23 325 -23 395 -82.5 c 128,-1,38
 465 -142 465 -142 584 -142 c 0,0,1
EndSplineSet
EndChar

StartChar: circumflex
Encoding: 710 710 360
Width: 922
VWidth: 1798
GlyphClass: 2
Flags: W
LayerCount: 2
Fore
SplineSet
501 1281 m 1,0,-1
 745 1016 l 1,1,-1
 745 1006 l 1,2,-1
 613 1006 l 1,3,-1
 454 1182 l 1,4,-1
 296 1006 l 1,5,-1
 166 1006 l 1,6,-1
 166 1018 l 1,7,-1
 407 1281 l 1,8,-1
 501 1281 l 1,0,-1
EndSplineSet
EndChar

StartChar: colon
Encoding: 58 58 361
Width: 541
VWidth: 1798
GlyphClass: 2
Flags: W
LayerCount: 2
Fore
SplineSet
153 441 m 0,0,1
 153 489 153 489 188 524 c 128,-1,2
 223 559 223 559 271 559 c 256,3,4
 319 559 319 559 353.5 524 c 128,-1,5
 388 489 388 489 388 441 c 256,6,7
 388 393 388 393 353.5 358.5 c 128,-1,8
 319 324 319 324 271 324 c 0,9,10
 222 324 222 324 187.5 357.5 c 128,-1,11
 153 391 153 391 153 441 c 0,0,1
153 -132 m 0,12,13
 153 -84 153 -84 188 -49 c 128,-1,14
 223 -14 223 -14 271 -14 c 256,15,16
 319 -14 319 -14 353.5 -49 c 128,-1,17
 388 -84 388 -84 388 -132 c 256,18,19
 388 -180 388 -180 353.5 -214.5 c 128,-1,20
 319 -249 319 -249 271 -249 c 0,21,22
 222 -249 222 -249 187.5 -215.5 c 128,-1,23
 153 -182 153 -182 153 -132 c 0,12,13
EndSplineSet
EndChar

StartChar: comma
Encoding: 44 44 362
Width: 398
VWidth: 1798
GlyphClass: 2
Flags: W
LayerCount: 2
Fore
SplineSet
291 -45 m 1,0,-1
 291 -190 l 2,1,2
 291 -281 291 -281 249 -374.5 c 128,-1,3
 207 -468 207 -468 133 -532 c 1,4,-1
 45 -469 l 1,5,6
 92 -405 92 -405 116.5 -338.5 c 128,-1,7
 141 -272 141 -272 141 -193 c 2,8,-1
 141 -45 l 1,9,-1
 291 -45 l 1,0,-1
EndSplineSet
EndChar

StartChar: commaaccent
Encoding: 65725 -1 363
Width: 502
GlyphClass: 1
Flags: W
LayerCount: 2
Fore
SplineSet
326 208 m 1,0,-1
 326 130 l 2,1,2
 326 51 326 51 293.5 -32.5 c 128,-1,3
 261 -116 261 -116 196 -172 c 1,4,-1
 108 -109 l 1,5,6
 144 -54 144 -54 162 2.5 c 128,-1,7
 180 59 180 59 180 128 c 2,8,-1
 180 208 l 1,9,-1
 326 208 l 1,0,-1
EndSplineSet
EndChar

StartChar: commaaccentrotate
Encoding: 65726 -1 364
Width: 483
GlyphClass: 1
Flags: W
LayerCount: 2
Fore
SplineSet
155 1186 m 1,0,-1
 155 1315 l 2,1,2
 155 1396 155 1396 195 1471 c 128,-1,3
 235 1546 235 1546 275 1587 c 1,4,-1
 366 1521 l 1,5,6
 335 1464 335 1464 321.5 1415.5 c 128,-1,7
 308 1367 308 1367 308 1309 c 2,8,-1
 308 1186 l 1,9,-1
 155 1186 l 1,0,-1
EndSplineSet
EndChar

StartChar: copyright
Encoding: 169 169 365
Width: 1623
VWidth: 1798
GlyphClass: 2
Flags: W
LayerCount: 2
Fore
SplineSet
100 479 m 256,0,1
 100 638 100 638 155 774 c 128,-1,2
 210 910 210 910 308 1011.5 c 128,-1,3
 406 1113 406 1113 534.5 1169.5 c 128,-1,4
 663 1226 663 1226 810 1226 c 256,5,6
 957 1226 957 1226 1085.5 1169.5 c 128,-1,7
 1214 1113 1214 1113 1311.5 1011.5 c 128,-1,8
 1409 910 1409 910 1464 774 c 128,-1,9
 1519 638 1519 638 1519 479 c 256,10,11
 1519 320 1519 320 1464 184 c 128,-1,12
 1409 48 1409 48 1311.5 -54.5 c 128,-1,13
 1214 -157 1214 -157 1085.5 -214 c 128,-1,14
 957 -271 957 -271 810 -271 c 256,15,16
 663 -271 663 -271 534.5 -214 c 128,-1,17
 406 -157 406 -157 308 -54.5 c 128,-1,18
 210 48 210 48 155 184 c 128,-1,19
 100 320 100 320 100 479 c 256,0,1
200 479 m 0,20,21
 200 343 200 343 247.5 225 c 128,-1,22
 295 107 295 107 378.5 19 c 128,-1,23
 462 -69 462 -69 573 -118.5 c 128,-1,24
 684 -168 684 -168 810 -168 c 256,25,26
 936 -168 936 -168 1046 -118.5 c 128,-1,27
 1156 -69 1156 -69 1239.5 19 c 128,-1,28
 1323 107 1323 107 1370.5 225 c 128,-1,29
 1418 343 1418 343 1418 479 c 0,30,31
 1418 616 1418 616 1370.5 733 c 128,-1,32
 1323 850 1323 850 1239.5 937.5 c 128,-1,33
 1156 1025 1156 1025 1046 1074 c 128,-1,34
 936 1123 936 1123 810 1123 c 256,35,36
 684 1123 684 1123 573 1074 c 128,-1,37
 462 1025 462 1025 378.5 937.5 c 128,-1,38
 295 850 295 850 247.5 733 c 128,-1,39
 200 616 200 616 200 479 c 0,20,21
999 353 m 1,40,-1
 1121 353 l 1,41,42
 1121 196 1121 196 1034 117.5 c 128,-1,43
 947 39 947 39 798 39 c 0,44,45
 643 39 643 39 550.5 146.5 c 128,-1,46
 458 254 458 254 458 426 c 2,47,-1
 458 532 l 2,48,49
 458 704 458 704 550.5 811.5 c 128,-1,50
 643 919 643 919 798 919 c 0,51,52
 947 919 947 919 1034.5 841 c 128,-1,53
 1122 763 1122 763 1122 606 c 1,54,-1
 1000 606 l 1,55,56
 1000 713 1000 713 948 761 c 128,-1,57
 896 809 896 809 798 809 c 0,58,59
 692 809 692 809 636 730.5 c 128,-1,60
 580 652 580 652 580 533 c 2,61,-1
 580 426 l 2,62,63
 580 305 580 305 636 226.5 c 128,-1,64
 692 148 692 148 798 148 c 0,65,66
 896 148 896 148 947.5 196 c 128,-1,67
 999 244 999 244 999 353 c 1,40,-1
EndSplineSet
EndChar

StartChar: crossbar
Encoding: 65727 -1 366
Width: 892
GlyphClass: 1
Flags: W
LayerCount: 2
Fore
SplineSet
759 796 m 1,0,-1
 759 669 l 1,1,-1
 134 669 l 1,2,-1
 134 796 l 1,3,-1
 759 796 l 1,0,-1
EndSplineSet
EndChar

StartChar: currency
Encoding: 164 164 367
Width: 1471
VWidth: 1798
GlyphClass: 2
Flags: W
LayerCount: 2
Fore
SplineSet
142 358 m 0,0,1
 142 468 142 468 174.5 565.5 c 128,-1,2
 207 663 207 663 264 742 c 1,3,-1
 107 902 l 1,4,-1
 216 1014 l 1,5,-1
 372 855 l 1,6,7
 448 916 448 916 541.5 950 c 128,-1,8
 635 984 635 984 738 984 c 0,9,10
 842 984 842 984 935.5 949.5 c 128,-1,11
 1029 915 1029 915 1105 853 c 1,12,-1
 1264 1015 l 1,13,-1
 1373 902 l 1,14,-1
 1213 738 l 1,15,16
 1269 660 1269 660 1300.5 563.5 c 128,-1,17
 1332 467 1332 467 1332 358 c 0,18,19
 1332 254 1332 254 1303 160.5 c 128,-1,20
 1274 67 1274 67 1221 -10 c 1,21,-1
 1373 -164 l 1,22,-1
 1264 -277 l 1,23,-1
 1117 -128 l 1,24,25
 1040 -195 1040 -195 943 -232.5 c 128,-1,26
 846 -270 846 -270 738 -270 c 256,27,28
 630 -270 630 -270 533.5 -233 c 128,-1,29
 437 -196 437 -196 360 -130 c 1,30,-1
 216 -276 l 1,31,-1
 107 -164 l 1,32,-1
 255 -13 l 1,33,34
 202 64 202 64 172 158.5 c 128,-1,35
 142 253 142 253 142 358 c 0,0,1
285 358 m 256,36,37
 285 224 285 224 346 113.5 c 128,-1,38
 407 3 407 3 510 -62.5 c 128,-1,39
 613 -128 613 -128 738 -128 c 256,40,41
 863 -128 863 -128 965 -62.5 c 128,-1,42
 1067 3 1067 3 1128 113.5 c 128,-1,43
 1189 224 1189 224 1189 358 c 256,44,45
 1189 492 1189 492 1128 602 c 128,-1,46
 1067 712 1067 712 965 777 c 128,-1,47
 863 842 863 842 738 842 c 256,48,49
 613 842 613 842 510 777 c 128,-1,50
 407 712 407 712 346 602 c 128,-1,51
 285 492 285 492 285 358 c 256,36,37
EndSplineSet
EndChar

StartChar: d
Encoding: 100 100 368
Width: 1147
VWidth: 1798
GlyphClass: 2
Flags: W
AnchorPoint: "Anchor-1" 617 -250 basechar 0
AnchorPoint: "Anchor-0" 549 1362 basechar 0
LayerCount: 2
Fore
SplineSet
102 280 m 2,0,-1
 102 301 l 2,1,2
 102 467 102 467 154 591 c 128,-1,3
 206 715 206 715 301 783.5 c 128,-1,4
 396 852 396 852 525 852 c 0,5,6
 631 852 631 852 710 813 c 128,-1,7
 789 774 789 774 842 703 c 1,8,-1
 842 1286 l 1,9,-1
 995 1286 l 1,10,-1
 995 -250 l 1,11,-1
 854 -250 l 1,12,-1
 846 -118 l 1,13,14
 793 -191 793 -191 712.5 -230.5 c 128,-1,15
 632 -270 632 -270 523 -270 c 0,16,17
 396 -270 396 -270 301 -199 c 128,-1,18
 206 -128 206 -128 154 -4 c 128,-1,19
 102 120 102 120 102 280 c 2,0,-1
255 301 m 2,20,-1
 255 280 l 2,21,22
 255 163 255 163 287 68 c 128,-1,23
 319 -27 319 -27 386 -83 c 128,-1,24
 453 -139 453 -139 557 -139 c 0,25,26
 667 -139 667 -139 735.5 -88.5 c 128,-1,27
 804 -38 804 -38 842 39 c 1,28,-1
 842 541 l 1,29,30
 807 615 807 615 739.5 668.5 c 128,-1,31
 672 722 672 722 559 722 c 0,32,33
 454 722 454 722 386.5 665.5 c 128,-1,34
 319 609 319 609 287 513.5 c 128,-1,35
 255 418 255 418 255 301 c 2,20,-1
EndSplineSet
Substitution2: "'unic' Unicase lookup 2 subtable" D
Substitution2: "'smcp' Lowercase to Small Capitals lookup 1 subtable" D.smcp
EndChar

StartChar: dagger
Encoding: 8224 8224 369
Width: 1129
GlyphClass: 2
Flags: W
LayerCount: 2
Fore
SplineSet
1059 1082 m 1,0,-1
 1059 953 l 1,1,-1
 641 953 l 1,2,-1
 641 0 l 1,3,-1
 488 0 l 1,4,-1
 488 953 l 1,5,-1
 69 953 l 1,6,-1
 69 1082 l 1,7,-1
 488 1082 l 1,8,-1
 488 1456 l 1,9,-1
 641 1456 l 1,10,-1
 641 1082 l 1,11,-1
 1059 1082 l 1,0,-1
EndSplineSet
EndChar

StartChar: daggerdbl
Encoding: 8225 8225 370
Width: 1161
GlyphClass: 2
Flags: W
LayerCount: 2
Fore
SplineSet
1075 128 m 1,0,-1
 1075 0 l 1,1,-1
 650 0 l 1,2,-1
 650 -416 l 1,3,-1
 498 -416 l 1,4,-1
 498 0 l 1,5,-1
 86 0 l 1,6,-1
 86 128 l 1,7,-1
 498 128 l 1,8,-1
 498 954 l 1,9,-1
 86 954 l 1,10,-1
 86 1082 l 1,11,-1
 498 1082 l 1,12,-1
 498 1456 l 1,13,-1
 650 1456 l 1,14,-1
 650 1082 l 1,15,-1
 1075 1082 l 1,16,-1
 1075 954 l 1,17,-1
 650 954 l 1,18,-1
 650 128 l 1,19,-1
 1075 128 l 1,0,-1
EndSplineSet
EndChar

StartChar: dcroat
Encoding: 273 273 372
Width: 1198
VWidth: 1798
GlyphClass: 2
Flags: W
AnchorPoint: "Anchor-1" 617 -250 basechar 0
AnchorPoint: "Anchor-0" 549 1361 basechar 0
LayerCount: 2
Fore
SplineSet
102 280 m 2,0,-1
 102 301 l 2,1,2
 102 467 102 467 154 591 c 128,-1,3
 206 715 206 715 301 783.5 c 128,-1,4
 396 852 396 852 525 852 c 0,5,6
 631 852 631 852 710 813 c 128,-1,7
 789 774 789 774 842 703 c 1,8,-1
 842 995 l 1,9,-1
 551 995 l 1,10,-1
 551 1123 l 1,11,-1
 842 1123 l 1,12,-1
 842 1286 l 1,13,-1
 995 1286 l 1,14,-1
 995 1123 l 1,15,-1
 1176 1123 l 1,16,-1
 1176 995 l 1,17,-1
 995 995 l 1,18,-1
 995 -250 l 1,19,-1
 854 -250 l 1,20,-1
 846 -118 l 1,21,22
 793 -191 793 -191 712.5 -230.5 c 128,-1,23
 632 -270 632 -270 523 -270 c 0,24,25
 396 -270 396 -270 301 -199 c 128,-1,26
 206 -128 206 -128 154 -4 c 128,-1,27
 102 120 102 120 102 280 c 2,0,-1
255 301 m 2,28,-1
 255 280 l 2,29,30
 255 163 255 163 287 68 c 128,-1,31
 319 -27 319 -27 386 -83 c 128,-1,32
 453 -139 453 -139 557 -139 c 0,33,34
 667 -139 667 -139 735.5 -88.5 c 128,-1,35
 804 -38 804 -38 842 39 c 1,36,-1
 842 541 l 1,37,38
 807 615 807 615 739.5 668.5 c 128,-1,39
 672 722 672 722 559 722 c 0,40,41
 454 722 454 722 386.5 665.5 c 128,-1,42
 319 609 319 609 287 513.5 c 128,-1,43
 255 418 255 418 255 301 c 2,28,-1
EndSplineSet
Substitution2: "'unic' Unicase lookup 2 subtable" Dcroat
Substitution2: "'smcp' Lowercase to Small Capitals lookup 1 subtable" Dcroat.smcp
EndChar

StartChar: degree
Encoding: 176 176 373
Width: 770
VWidth: 1798
GlyphClass: 2
Flags: W
LayerCount: 2
Fore
SplineSet
137 972 m 256,0,1
 137 1042 137 1042 171 1099.5 c 128,-1,2
 205 1157 205 1157 262.5 1192 c 128,-1,3
 320 1227 320 1227 388 1227 c 256,4,5
 456 1227 456 1227 511.5 1192 c 128,-1,6
 567 1157 567 1157 600.5 1099.5 c 128,-1,7
 634 1042 634 1042 634 972 c 256,8,9
 634 902 634 902 600.5 844.5 c 128,-1,10
 567 787 567 787 511.5 753.5 c 128,-1,11
 456 720 456 720 388 720 c 256,12,13
 320 720 320 720 262.5 753.5 c 128,-1,14
 205 787 205 787 171 844.5 c 128,-1,15
 137 902 137 902 137 972 c 256,0,1
244 972 m 0,16,17
 244 911 244 911 286 870.5 c 128,-1,18
 328 830 328 830 388 830 c 0,19,20
 447 830 447 830 487 870.5 c 128,-1,21
 527 911 527 911 527 972 c 0,22,23
 527 1034 527 1034 487 1075.5 c 128,-1,24
 447 1117 447 1117 388 1117 c 0,25,26
 328 1117 328 1117 286 1075.5 c 128,-1,27
 244 1034 244 1034 244 972 c 0,16,17
EndSplineSet
EndChar

StartChar: dieresis
Encoding: 168 168 374
Width: 869
VWidth: 1798
GlyphClass: 2
Flags: W
LayerCount: 2
Fore
SplineSet
119 1134 m 256,0,1
 119 1173 119 1173 144 1200.5 c 128,-1,2
 169 1228 169 1228 215 1228 c 0,3,4
 262 1228 262 1228 286.5 1200.5 c 128,-1,5
 311 1173 311 1173 311 1134 c 256,6,7
 311 1095 311 1095 286.5 1068.5 c 128,-1,8
 262 1042 262 1042 215 1042 c 0,9,10
 169 1042 169 1042 144 1068.5 c 128,-1,11
 119 1095 119 1095 119 1134 c 256,0,1
554 1132 m 0,12,13
 554 1172 554 1172 578.5 1199 c 128,-1,14
 603 1226 603 1226 649 1226 c 256,15,16
 695 1226 695 1226 720.5 1199 c 128,-1,17
 746 1172 746 1172 746 1132 c 0,18,19
 746 1094 746 1094 720.5 1067 c 128,-1,20
 695 1040 695 1040 649 1040 c 256,21,22
 603 1040 603 1040 578.5 1067 c 128,-1,23
 554 1094 554 1094 554 1132 c 0,12,13
EndSplineSet
EndChar

StartChar: divide
Encoding: 247 247 375
Width: 1151
VWidth: 1798
GlyphClass: 2
Flags: W
LayerCount: 2
Fore
SplineSet
477 589 m 0,0,1
 477 631 477 631 507.5 661.5 c 128,-1,2
 538 692 538 692 579 692 c 0,3,4
 621 692 621 692 651.5 661.5 c 128,-1,5
 682 631 682 631 682 589 c 256,6,7
 682 547 682 547 651.5 516.5 c 128,-1,8
 621 486 621 486 579 486 c 256,9,10
 537 486 537 486 507 515.5 c 128,-1,11
 477 545 477 545 477 589 c 0,0,1
146 210 m 1,12,-1
 146 335 l 1,13,-1
 1004 335 l 1,14,-1
 1004 210 l 1,15,-1
 146 210 l 1,12,-1
477 -48 m 0,16,17
 477 -6 477 -6 507.5 24.5 c 128,-1,18
 538 55 538 55 579 55 c 0,19,20
 621 55 621 55 651.5 24.5 c 128,-1,21
 682 -6 682 -6 682 -48 c 256,22,23
 682 -90 682 -90 651.5 -120.5 c 128,-1,24
 621 -151 621 -151 579 -151 c 256,25,26
 537 -151 537 -151 507 -121.5 c 128,-1,27
 477 -92 477 -92 477 -48 c 0,16,17
EndSplineSet
EndChar

StartChar: dollar
Encoding: 36 36 376
Width: 1144
VWidth: 1798
GlyphClass: 2
Flags: W
LayerCount: 2
Fore
SplineSet
879 117 m 0,0,1
 879 217 879 217 812 284.5 c 128,-1,2
 745 352 745 352 575 409 c 0,3,4
 449 449 449 449 357.5 503.5 c 128,-1,5
 266 558 266 558 216.5 638.5 c 128,-1,6
 167 719 167 719 167 838 c 0,7,8
 167 1003 167 1003 265.5 1105.5 c 128,-1,9
 364 1208 364 1208 532 1224 c 1,10,-1
 532 1435 l 1,11,-1
 658 1435 l 1,12,-1
 658 1224 l 1,13,14
 829 1205 829 1205 924.5 1088 c 128,-1,15
 1020 971 1020 971 1020 768 c 1,16,-1
 869 768 l 1,17,18
 869 909 869 909 798 1000.5 c 128,-1,19
 727 1092 727 1092 593 1092 c 0,20,21
 452 1092 452 1092 386 1019.5 c 128,-1,22
 320 947 320 947 320 840 c 0,23,24
 320 771 320 771 346.5 720.5 c 128,-1,25
 373 670 373 670 440 628 c 128,-1,26
 507 586 507 586 628 545 c 0,27,28
 755 504 755 504 845.5 450.5 c 128,-1,29
 936 397 936 397 984 317.5 c 128,-1,30
 1032 238 1032 238 1032 119 c 0,31,32
 1032 -52 1032 -52 927.5 -151.5 c 128,-1,33
 823 -251 823 -251 647 -268 c 1,34,-1
 647 -458 l 1,35,-1
 522 -458 l 1,36,-1
 522 -269 l 1,37,38
 417 -260 417 -260 323.5 -213.5 c 128,-1,39
 230 -167 230 -167 171.5 -73 c 128,-1,40
 113 21 113 21 113 174 c 1,41,-1
 266 174 l 1,42,43
 266 53 266 53 313.5 -14.5 c 128,-1,44
 361 -82 361 -82 433 -109 c 128,-1,45
 505 -136 505 -136 578 -136 c 0,46,47
 721 -136 721 -136 800 -64.5 c 128,-1,48
 879 7 879 7 879 117 c 0,0,1
EndSplineSet
Substitution2: "'c2sc' Capitals to Small Capitals lookup 0 subtable" dollar.smcp
Position2: "'cpsp' Capital Spacing lookup 0 subtable" dx=36 dy=0 dh=72 dv=0
EndChar

StartChar: dollar.smcp
Encoding: 65728 -1 377
Width: 1052
GlyphClass: 2
Flags: W
LayerCount: 2
Fore
SplineSet
831 294 m 256,0,1
 831 376 831 376 769 427 c 128,-1,2
 707 478 707 478 532 520 c 0,3,4
 339 567 339 567 225.5 646 c 128,-1,5
 112 725 112 725 112 869 c 0,6,7
 112 997 112 997 214.5 1081.5 c 128,-1,8
 317 1166 317 1166 485 1179 c 1,9,-1
 485 1395 l 1,10,-1
 610 1395 l 1,11,-1
 610 1177 l 1,12,13
 783 1159 783 1159 881 1061 c 128,-1,14
 979 963 979 963 979 828 c 1,15,-1
 826 828 l 1,16,17
 826 926 826 926 753.5 990 c 128,-1,18
 681 1054 681 1054 539 1054 c 0,19,20
 402 1054 402 1054 333 1000.5 c 128,-1,21
 264 947 264 947 264 870 c 0,22,23
 264 796 264 796 333.5 746.5 c 128,-1,24
 403 697 403 697 578 653 c 0,25,26
 770 605 770 605 877.5 522.5 c 128,-1,27
 985 440 985 440 985 296 c 0,28,29
 985 163 985 163 881.5 81.5 c 128,-1,30
 778 0 778 0 610 -14 c 1,31,-1
 610 -237 l 1,32,-1
 485 -237 l 1,33,-1
 485 -13 l 1,34,35
 380 -4 380 -4 285.5 37 c 128,-1,36
 191 78 191 78 131.5 154.5 c 128,-1,37
 72 231 72 231 72 344 c 1,38,-1
 224 344 l 1,39,40
 224 259 224 259 270.5 207.5 c 128,-1,41
 317 156 317 156 391 133 c 128,-1,42
 465 110 465 110 547 110 c 0,43,44
 681 110 681 110 756 161 c 128,-1,45
 831 212 831 212 831 294 c 256,0,1
EndSplineSet
EndChar

StartChar: dotaccent
Encoding: 729 729 378
Width: 479
VWidth: 1798
GlyphClass: 2
Flags: W
LayerCount: 2
Fore
SplineSet
146 1125 m 256,0,1
 146 1164 146 1164 170.5 1191.5 c 128,-1,2
 195 1219 195 1219 241 1219 c 256,3,4
 287 1219 287 1219 312.5 1191.5 c 128,-1,5
 338 1164 338 1164 338 1125 c 256,6,7
 338 1086 338 1086 312.5 1059.5 c 128,-1,8
 287 1033 287 1033 241 1033 c 256,9,10
 195 1033 195 1033 170.5 1059.5 c 128,-1,11
 146 1086 146 1086 146 1125 c 256,0,1
EndSplineSet
EndChar

StartChar: dotbelow
Encoding: 803 803 379
Width: 0
VWidth: 1798
GlyphClass: 4
Flags: W
AnchorPoint: "Anchor-2" -597 -604 basemark 0
AnchorPoint: "Anchor-2" -597 -250 mark 0
AnchorPoint: "Anchor-1" -597 -250 mark 0
LayerCount: 2
Fore
SplineSet
-692 -489 m 0,0,1
 -692 -449 -692 -449 -667 -422 c 128,-1,2
 -642 -395 -642 -395 -596 -395 c 256,3,4
 -550 -395 -550 -395 -525 -422 c 128,-1,5
 -500 -449 -500 -449 -500 -489 c 0,6,7
 -500 -527 -500 -527 -525 -554 c 128,-1,8
 -550 -581 -550 -581 -596 -581 c 256,9,10
 -642 -581 -642 -581 -667 -554 c 128,-1,11
 -692 -527 -692 -527 -692 -489 c 0,0,1
EndSplineSet
EndChar

StartChar: dotlessi
Encoding: 305 305 380
Width: 482
VWidth: 1798
GlyphClass: 2
Flags: W
AnchorPoint: "Anchor-1" 249 -240 basechar 0
AnchorPoint: "Anchor-0" 252 1038 basechar 0
LayerCount: 2
Fore
SplineSet
315 832 m 1,0,-1
 315 -250 l 1,1,-1
 162 -250 l 1,2,-1
 162 832 l 1,3,-1
 315 832 l 1,0,-1
EndSplineSet
Substitution2: "'smcp' Lowercase to Small Capitals lookup 1 subtable" I.smcp
EndChar

StartChar: e
Encoding: 101 101 381
Width: 1073
VWidth: 1798
GlyphClass: 2
Flags: W
AnchorPoint: "Anchor-1" 568 -250 basechar 0
AnchorPoint: "Anchor-0" 565 1040 basechar 0
LayerCount: 2
Fore
SplineSet
583 -270 m 0,0,1
 437 -270 437 -270 326.5 -202 c 128,-1,2
 216 -134 216 -134 154 -15 c 128,-1,3
 92 104 92 104 92 257 c 2,4,-1
 92 299 l 2,5,6
 92 471 92 471 158 595 c 128,-1,7
 224 719 224 719 331 785.5 c 128,-1,8
 438 852 438 852 560 852 c 0,9,10
 706 852 706 852 803 785.5 c 128,-1,11
 900 719 900 719 948 603 c 128,-1,12
 996 487 996 487 996 339 c 2,13,-1
 996 261 l 1,14,-1
 245 261 l 1,15,-1
 245 257 l 2,16,17
 245 147 245 147 287.5 56 c 128,-1,18
 330 -35 330 -35 407 -89 c 128,-1,19
 484 -143 484 -143 590 -143 c 0,20,21
 687 -143 687 -143 758 -105.5 c 128,-1,22
 829 -68 829 -68 884 4 c 1,23,-1
 978 -69 l 1,24,25
 925 -148 925 -148 830.5 -209 c 128,-1,26
 736 -270 736 -270 583 -270 c 0,0,1
560 725 m 0,27,28
 436 725 436 725 353 635 c 128,-1,29
 270 545 270 545 250 388 c 1,30,-1
 844 388 l 1,31,-1
 844 402 l 2,32,33
 841 483 841 483 811 557 c 128,-1,34
 781 631 781 631 719.5 678 c 128,-1,35
 658 725 658 725 560 725 c 0,27,28
EndSplineSet
Substitution2: "'unic' Unicase lookup 2 subtable" E.unic
Substitution2: "'smcp' Lowercase to Small Capitals lookup 1 subtable" E.smcp
EndChar

StartChar: eight
Encoding: 56 56 389
Width: 1144
VWidth: 1798
GlyphClass: 2
Flags: W
LayerCount: 2
Fore
SplineSet
1036 140 m 0,0,1
 1036 8 1036 8 974.5 -83.5 c 128,-1,2
 913 -175 913 -175 808 -222.5 c 128,-1,3
 703 -270 703 -270 573 -270 c 0,4,5
 442 -270 442 -270 337 -222.5 c 128,-1,6
 232 -175 232 -175 171 -83.5 c 128,-1,7
 110 8 110 8 110 140 c 0,8,9
 110 265 110 265 180 359.5 c 128,-1,10
 250 454 250 454 367 500 c 1,11,12
 265 545 265 545 205 631.5 c 128,-1,13
 145 718 145 718 145 829 c 0,14,15
 145 956 145 956 200.5 1044.5 c 128,-1,16
 256 1133 256 1133 352.5 1179.5 c 128,-1,17
 449 1226 449 1226 572 1226 c 256,18,19
 695 1226 695 1226 791.5 1179.5 c 128,-1,20
 888 1133 888 1133 944 1044.5 c 128,-1,21
 1000 956 1000 956 1000 829 c 0,22,23
 1000 718 1000 718 938.5 631.5 c 128,-1,24
 877 545 877 545 776 499 c 1,25,26
 893 454 893 454 964.5 359.5 c 128,-1,27
 1036 265 1036 265 1036 140 c 0,0,1
848 828 m 0,28,29
 848 947 848 947 770 1023 c 128,-1,30
 692 1099 692 1099 572 1099 c 0,31,32
 451 1099 451 1099 374.5 1026 c 128,-1,33
 298 953 298 953 298 828 c 0,34,35
 298 707 298 707 374.5 634.5 c 128,-1,36
 451 562 451 562 573 562 c 0,37,38
 693 562 693 562 770.5 634.5 c 128,-1,39
 848 707 848 707 848 828 c 0,28,29
883 142 m 0,40,41
 883 273 883 273 795.5 354 c 128,-1,42
 708 435 708 435 571 435 c 0,43,44
 433 435 433 435 347.5 354 c 128,-1,45
 262 273 262 273 262 142 c 0,46,47
 262 6 262 6 347.5 -68 c 128,-1,48
 433 -142 433 -142 573 -142 c 256,49,50
 713 -142 713 -142 798 -68 c 128,-1,51
 883 6 883 6 883 142 c 0,40,41
EndSplineSet
Substitution2: "'ss01' Style Set 1 lookup 35 subtable" uni06F8
Substitution2: "'numr' Numerators lookup 21 subtable" eight.frac
Substitution2: "'dnom' Denominators lookup 20 subtable" eight.sup
Substitution2: "'frac' Diagonal Fractions lookup 19 subtable" eight.frac
Substitution2: "Single Substitution lookup 18 subtable" eight.sup
Substitution2: "'lnum' Lining Figures lookup 15 subtable" eight.pnum
Substitution2: "'onum' Oldstyle Figures lookup 14 subtable" eight.tnum
Substitution2: "'c2sc' Capitals to Small Capitals lookup 0 subtable" eight.smcp
Position2: "'cpsp' Capital Spacing lookup 0 subtable" dx=36 dy=0 dh=72 dv=0
EndChar

StartChar: eight.smcp
Encoding: 65731 -1 392
Width: 1033
GlyphClass: 2
Flags: W
LayerCount: 2
Fore
SplineSet
937 314 m 0,0,1
 937 206 937 206 881 132.5 c 128,-1,2
 825 59 825 59 730 21.5 c 128,-1,3
 635 -16 635 -16 517 -16 c 0,4,5
 398 -16 398 -16 302 21.5 c 128,-1,6
 206 59 206 59 150.5 132.5 c 128,-1,7
 95 206 95 206 95 314 c 0,8,9
 95 414 95 414 156 488.5 c 128,-1,10
 217 563 217 563 319 600 c 1,11,12
 231 637 231 637 179 705 c 128,-1,13
 127 773 127 773 127 861 c 0,14,15
 127 1015 127 1015 237 1098 c 128,-1,16
 347 1181 347 1181 515 1181 c 0,17,18
 626 1181 626 1181 714.5 1143.5 c 128,-1,19
 803 1106 803 1106 854.5 1035 c 128,-1,20
 906 964 906 964 906 861 c 0,21,22
 906 772 906 772 853 704 c 128,-1,23
 800 636 800 636 712 599 c 1,24,25
 814 562 814 562 875.5 487.5 c 128,-1,26
 937 413 937 413 937 314 c 0,0,1
753 857 m 0,27,28
 753 943 753 943 686 998 c 128,-1,29
 619 1053 619 1053 515 1053 c 0,30,31
 410 1053 410 1053 345 1000.5 c 128,-1,32
 280 948 280 948 280 857 c 0,33,34
 280 768 280 768 345.5 714.5 c 128,-1,35
 411 661 411 661 517 661 c 0,36,37
 620 661 620 661 686.5 714.5 c 128,-1,38
 753 768 753 768 753 857 c 0,27,28
784 321 m 0,39,40
 784 417 784 417 708 475.5 c 128,-1,41
 632 534 632 534 515 534 c 0,42,43
 396 534 396 534 321.5 475.5 c 128,-1,44
 247 417 247 417 247 321 c 0,45,46
 247 221 247 221 321.5 166 c 128,-1,47
 396 111 396 111 517 111 c 0,48,49
 634 111 634 111 709 166 c 128,-1,50
 784 221 784 221 784 321 c 0,39,40
EndSplineSet
EndChar

StartChar: eight.sup
Encoding: 65732 -1 393
Width: 745
GlyphClass: 2
Flags: W
LayerCount: 2
Fore
SplineSet
665 214 m 0,0,1
 665 102 665 102 581.5 45.5 c 128,-1,2
 498 -11 498 -11 373 -11 c 0,3,4
 249 -11 249 -11 164 45.5 c 128,-1,5
 79 102 79 102 79 214 c 0,6,7
 79 281 79 281 119 331 c 128,-1,8
 159 381 159 381 225 406 c 1,9,10
 168 432 168 432 134.5 477 c 128,-1,11
 101 522 101 522 101 582 c 0,12,13
 101 688 101 688 177.5 744 c 128,-1,14
 254 800 254 800 372 800 c 256,15,16
 490 800 490 800 567.5 744 c 128,-1,17
 645 688 645 688 645 582 c 0,18,19
 645 522 645 522 611 476.5 c 128,-1,20
 577 431 577 431 520 406 c 1,21,22
 586 380 586 380 625.5 330.5 c 128,-1,23
 665 281 665 281 665 214 c 0,0,1
513 574 m 0,24,25
 513 627 513 627 474 659.5 c 128,-1,26
 435 692 435 692 372 692 c 256,27,28
 309 692 309 692 270.5 661 c 128,-1,29
 232 630 232 630 232 574 c 0,30,31
 232 522 232 522 270.5 490 c 128,-1,32
 309 458 309 458 373 458 c 0,33,34
 436 458 436 458 474.5 490 c 128,-1,35
 513 522 513 522 513 574 c 0,24,25
535 223 m 256,36,37
 535 282 535 282 489 315.5 c 128,-1,38
 443 349 443 349 372 349 c 0,39,40
 300 349 300 349 255.5 315.5 c 128,-1,41
 211 282 211 282 211 223 c 256,42,43
 211 164 211 164 255.5 130.5 c 128,-1,44
 300 97 300 97 373 97 c 0,45,46
 444 97 444 97 489.5 130.5 c 128,-1,47
 535 164 535 164 535 223 c 256,36,37
EndSplineSet
EndChar

StartChar: emdash
Encoding: 8212 8212 397
Width: 1600
GlyphClass: 2
Flags: W
LayerCount: 2
Fore
SplineSet
1454 456 m 1,0,-1
 146 456 l 1,1,-1
 146 581 l 1,2,-1
 1454 581 l 1,3,-1
 1454 456 l 1,0,-1
EndSplineSet
EndChar

StartChar: endash
Encoding: 8211 8211 398
Width: 1345
GlyphClass: 2
Flags: W
LayerCount: 2
Fore
SplineSet
1199 456 m 1,0,-1
 146 456 l 1,1,-1
 146 581 l 1,2,-1
 1199 581 l 1,3,-1
 1199 456 l 1,0,-1
EndSplineSet
EndChar

StartChar: eng
Encoding: 331 331 399
Width: 1151
VWidth: 1798
GlyphClass: 2
Flags: W
AnchorPoint: "Anchor-1" 563 -240 basechar 0
AnchorPoint: "Anchor-0" 573 1040 basechar 0
LayerCount: 2
Fore
SplineSet
995 -339 m 2,0,1
 995 -508 995 -508 912 -597.5 c 128,-1,2
 829 -687 829 -687 682 -687 c 0,3,4
 620 -687 620 -687 563 -669 c 1,5,-1
 577 -538 l 1,6,7
 594 -544 594 -544 628.5 -548 c 128,-1,8
 663 -552 663 -552 682 -552 c 0,9,10
 759 -552 759 -552 801 -497.5 c 128,-1,11
 843 -443 843 -443 843 -339 c 2,12,-1
 843 419 l 2,13,14
 843 592 843 592 775 657 c 128,-1,15
 707 722 707 722 591 722 c 0,16,17
 480 722 480 722 410 673.5 c 128,-1,18
 340 625 340 625 304 548 c 1,19,-1
 304 -250 l 1,20,-1
 152 -250 l 1,21,-1
 152 832 l 1,22,-1
 289 832 l 1,23,-1
 300 665 l 1,24,25
 352 752 352 752 436 802 c 128,-1,26
 520 852 520 852 632 852 c 0,27,28
 802 852 802 852 898.5 751 c 128,-1,29
 995 650 995 650 995 421 c 2,30,-1
 995 -339 l 2,0,1
EndSplineSet
Substitution2: "'unic' Unicase lookup 2 subtable" Eng
Substitution2: "'smcp' Lowercase to Small Capitals lookup 1 subtable" Eng.smcp
EndChar

StartChar: eogonek
Encoding: 281 281 400
Width: 1073
VWidth: 1798
GlyphClass: 2
Flags: W
AnchorPoint: "Anchor-1" 568 -250 basechar 0
AnchorPoint: "Anchor-0" 565 1040 basechar 0
LayerCount: 2
Fore
SplineSet
583 -270 m 0,0,1
 437 -270 437 -270 326.5 -202 c 128,-1,2
 216 -134 216 -134 154 -15 c 128,-1,3
 92 104 92 104 92 257 c 2,4,-1
 92 299 l 2,5,6
 92 471 92 471 158 595 c 128,-1,7
 224 719 224 719 331 785.5 c 128,-1,8
 438 852 438 852 560 852 c 0,9,10
 706 852 706 852 803 785.5 c 128,-1,11
 900 719 900 719 948 603 c 128,-1,12
 996 487 996 487 996 339 c 2,13,-1
 996 261 l 1,14,-1
 245 261 l 1,15,-1
 245 257 l 2,16,17
 245 147 245 147 287.5 56 c 128,-1,18
 330 -35 330 -35 407 -89 c 128,-1,19
 484 -143 484 -143 590 -143 c 0,20,21
 687 -143 687 -143 758 -105.5 c 128,-1,22
 829 -68 829 -68 884 4 c 1,23,-1
 978 -69 l 1,24,25
 949 -112 949 -112 909 -151 c 128,-1,26
 869 -190 869 -190 814 -218 c 1,27,28
 749 -268 749 -268 695.5 -323 c 128,-1,29
 642 -378 642 -378 642 -444 c 0,30,31
 642 -478 642 -478 660 -500 c 128,-1,32
 678 -522 678 -522 724 -522 c 0,33,34
 759 -522 759 -522 784.5 -512 c 128,-1,35
 810 -502 810 -502 826 -493 c 1,36,-1
 841 -596 l 1,37,38
 818 -611 818 -611 781 -625.5 c 128,-1,39
 744 -640 744 -640 688 -640 c 0,40,41
 611 -640 611 -640 559.5 -594.5 c 128,-1,42
 508 -549 508 -549 508 -460 c 0,43,44
 508 -360 508 -360 602 -270 c 1,45,46
 593 -270 593 -270 583 -270 c 0,0,1
560 725 m 0,47,48
 436 725 436 725 353 635 c 128,-1,49
 270 545 270 545 250 388 c 1,50,-1
 844 388 l 1,51,-1
 844 402 l 2,52,53
 841 483 841 483 811 557 c 128,-1,54
 781 631 781 631 719.5 678 c 128,-1,55
 658 725 658 725 560 725 c 0,47,48
EndSplineSet
Substitution2: "'locl' Localized Forms in Latin lookup 8 subtable" eogonek.NAV
Substitution2: "'unic' Unicase lookup 2 subtable" Eogonek.unic
Substitution2: "'smcp' Lowercase to Small Capitals lookup 1 subtable" Eogonek.smcp
EndChar

StartChar: equal
Encoding: 61 61 402
Width: 1109
VWidth: 1798
GlyphClass: 2
Flags: W
LayerCount: 2
Fore
SplineSet
966 394 m 1,0,-1
 155 394 l 1,1,-1
 155 519 l 1,2,-1
 966 519 l 1,3,-1
 966 394 l 1,0,-1
966 16 m 1,4,-1
 155 16 l 1,5,-1
 155 140 l 1,6,-1
 966 140 l 1,7,-1
 966 16 l 1,4,-1
EndSplineSet
EndChar

StartChar: estimated
Encoding: 8494 8494 403
Width: 1301
GlyphClass: 2
Flags: W
LayerCount: 2
Fore
SplineSet
1043 198 m 1,0,-1
 1045 94 l 1,1,2
 961 42 961 42 867 11 c 128,-1,3
 773 -20 773 -20 675 -20 c 0,4,5
 566 -20 566 -20 471 24 c 128,-1,6
 376 68 376 68 304 145 c 128,-1,7
 232 222 232 222 191.5 324 c 128,-1,8
 151 426 151 426 151 541 c 0,9,10
 151 657 151 657 195.5 758.5 c 128,-1,11
 240 860 240 860 315 937 c 128,-1,12
 390 1014 390 1014 483.5 1058 c 128,-1,13
 577 1102 577 1102 675 1102 c 0,14,15
 812 1102 812 1102 924.5 1031.5 c 128,-1,16
 1037 961 1037 961 1103.5 839 c 128,-1,17
 1170 717 1170 717 1170 561 c 2,18,-1
 1170 514 l 1,19,-1
 402 514 l 1,20,-1
 402 186 l 1,21,22
 457 135 457 135 527 105.5 c 128,-1,23
 597 76 597 76 675 76 c 0,24,25
 768 76 768 76 861.5 105.5 c 128,-1,26
 955 135 955 135 1043 198 c 1,0,-1
675 1008 m 0,27,28
 600 1008 600 1008 529.5 975 c 128,-1,29
 459 942 459 942 402 886 c 1,30,-1
 402 609 l 1,31,-1
 942 609 l 1,32,-1
 942 895 l 1,33,34
 890 947 890 947 821 977.5 c 128,-1,35
 752 1008 752 1008 675 1008 c 0,27,28
EndSplineSet
EndChar

StartChar: eth
Encoding: 240 240 404
Width: 1197
VWidth: 1798
GlyphClass: 2
Flags: W
LayerCount: 2
Fore
SplineSet
276 1198 m 1,0,-1
 324 1330 l 1,1,2
 566 1267 566 1267 736 1128 c 1,3,-1
 927 1252 l 1,4,-1
 989 1166 l 1,5,-1
 816 1053 l 1,6,7
 934 929 934 929 998.5 759.5 c 128,-1,8
 1063 590 1063 590 1063 379 c 2,9,-1
 1063 285 l 2,10,11
 1063 121 1063 121 1004.5 -4.5 c 128,-1,12
 946 -130 946 -130 843.5 -200 c 128,-1,13
 741 -270 741 -270 609 -270 c 0,14,15
 470 -270 470 -270 364 -204.5 c 128,-1,16
 258 -139 258 -139 198 -28.5 c 128,-1,17
 138 82 138 82 138 217 c 0,18,19
 138 372 138 372 194.5 485 c 128,-1,20
 251 598 251 598 351 660 c 128,-1,21
 451 722 451 722 581 722 c 0,22,23
 673 722 673 722 753 686.5 c 128,-1,24
 833 651 833 651 890 593 c 1,25,26
 865 712 865 712 813 805.5 c 128,-1,27
 761 899 761 899 689 970 c 1,28,-1
 468 826 l 1,29,-1
 406 913 l 1,30,-1
 605 1042 l 1,31,32
 533 1095 533 1095 449.5 1133.5 c 128,-1,33
 366 1172 366 1172 276 1198 c 1,0,-1
291 217 m 0,34,35
 291 129 291 129 328.5 46.5 c 128,-1,36
 366 -36 366 -36 438 -88.5 c 128,-1,37
 510 -141 510 -141 613 -141 c 0,38,39
 705 -141 705 -141 771.5 -85.5 c 128,-1,40
 838 -30 838 -30 874 66.5 c 128,-1,41
 910 163 910 163 910 285 c 2,42,-1
 910 381 l 2,43,44
 910 410 910 410 909 439 c 1,45,46
 878 498 878 498 804.5 545.5 c 128,-1,47
 731 593 731 593 614 593 c 0,48,49
 455 593 455 593 373 489.5 c 128,-1,50
 291 386 291 386 291 217 c 0,34,35
EndSplineSet
Substitution2: "'unic' Unicase lookup 2 subtable" Eth
Substitution2: "'smcp' Lowercase to Small Capitals lookup 1 subtable" Eth.smcp
EndChar

StartChar: exclam
Encoding: 33 33 405
Width: 541
VWidth: 1798
GlyphClass: 2
Flags: W
LayerCount: 2
Fore
SplineSet
191 1116 m 1,0,-1
 355 1116 l 1,1,-1
 332 173 l 1,2,-1
 214 173 l 1,3,-1
 191 1116 l 1,0,-1
153 -132 m 0,4,5
 153 -83 153 -83 188 -48 c 128,-1,6
 223 -13 223 -13 271 -13 c 256,7,8
 319 -13 319 -13 353.5 -48 c 128,-1,9
 388 -83 388 -83 388 -132 c 0,10,11
 388 -180 388 -180 353.5 -214.5 c 128,-1,12
 319 -249 319 -249 271 -249 c 0,13,14
 222 -249 222 -249 187.5 -215.5 c 128,-1,15
 153 -182 153 -182 153 -132 c 0,4,5
EndSplineSet
EndChar

StartChar: exclamdown
Encoding: 161 161 407
Width: 477
VWidth: 1798
GlyphClass: 2
Flags: W
LayerCount: 2
Fore
SplineSet
332 759 m 256,0,1
 332 720 332 720 307.5 693 c 128,-1,2
 283 666 283 666 236 666 c 0,3,4
 190 666 190 666 165 693 c 128,-1,5
 140 720 140 720 140 759 c 256,6,7
 140 798 140 798 165 825 c 128,-1,8
 190 852 190 852 236 852 c 0,9,10
 283 852 283 852 307.5 825 c 128,-1,11
 332 798 332 798 332 759 c 256,0,1
163 -610 m 1,12,-1
 173 437 l 1,13,-1
 312 437 l 1,14,-1
 322 -610 l 1,15,-1
 163 -610 l 1,12,-1
EndSplineSet
EndChar

StartChar: f
Encoding: 102 102 408
Width: 695
VWidth: 1798
GlyphClass: 2
Flags: W
AnchorPoint: "Anchor-1" 330 -240 basechar 0
AnchorPoint: "Anchor-0" 502 1504 basechar 0
LayerCount: 2
Fore
SplineSet
390 -250 m 1,0,-1
 238 -250 l 1,1,-1
 238 712 l 1,2,-1
 62 712 l 1,3,-1
 62 832 l 1,4,-1
 238 832 l 1,5,-1
 238 956 l 2,6,7
 238 1126 238 1126 328 1216.5 c 128,-1,8
 418 1307 418 1307 575 1307 c 0,9,10
 642 1307 642 1307 703 1291 c 1,11,-1
 693 1165 l 1,12,13
 650 1175 650 1175 588 1175 c 0,14,15
 495 1175 495 1175 442.5 1118.5 c 128,-1,16
 390 1062 390 1062 390 956 c 2,17,-1
 390 832 l 1,18,-1
 634 832 l 1,19,-1
 634 712 l 1,20,-1
 390 712 l 1,21,-1
 390 -250 l 1,0,-1
EndSplineSet
Substitution2: "'unic' Unicase lookup 2 subtable" F
Substitution2: "'smcp' Lowercase to Small Capitals lookup 1 subtable" F.smcp
EndChar

StartChar: f_f_i
Encoding: 64259 64259 410
Width: 1722
GlyphClass: 3
Flags: W
LayerCount: 2
Fore
SplineSet
390 0 m 1,0,-1
 238 0 l 1,1,-1
 238 962 l 1,2,-1
 62 962 l 1,3,-1
 62 1082 l 1,4,-1
 238 1082 l 1,5,-1
 238 1206 l 2,6,7
 238 1376 238 1376 328 1466.5 c 128,-1,8
 418 1557 418 1557 575 1557 c 0,9,10
 642 1557 642 1557 703 1541 c 1,11,-1
 693 1415 l 1,12,13
 650 1425 650 1425 588 1425 c 0,14,15
 495 1425 495 1425 442.5 1368.5 c 128,-1,16
 390 1312 390 1312 390 1206 c 2,17,-1
 390 1082 l 1,18,-1
 820 1082 l 1,19,-1
 820 1186 l 2,20,21
 820 1366 820 1366 921 1461.5 c 128,-1,22
 1022 1557 1022 1557 1197 1557 c 0,23,24
 1268 1557 1268 1557 1336.5 1541 c 128,-1,25
 1405 1525 1405 1525 1477 1497 c 1,26,-1
 1451 1367 l 1,27,28
 1402 1387 1402 1387 1343 1403 c 128,-1,29
 1284 1419 1284 1419 1208 1419 c 0,30,31
 973 1419 973 1419 973 1186 c 2,32,-1
 973 1082 l 1,33,-1
 1210 1082 l 1,34,-1
 1210 962 l 1,35,-1
 973 962 l 1,36,-1
 973 0 l 1,37,-1
 820 0 l 1,38,-1
 820 962 l 1,39,-1
 390 962 l 1,40,-1
 390 0 l 1,0,-1
1555 1082 m 1,41,-1
 1555 0 l 1,42,-1
 1403 0 l 1,43,-1
 1403 1082 l 1,44,-1
 1555 1082 l 1,41,-1
EndSplineSet
Ligature2: "'liga' Standard Ligatures in Latin lookup 10 subtable" f f i
EndChar

StartChar: f_f_l
Encoding: 64260 64260 411
Width: 1722
GlyphClass: 3
Flags: W
LayerCount: 2
Fore
SplineSet
390 0 m 1,0,-1
 238 0 l 1,1,-1
 238 962 l 1,2,-1
 62 962 l 1,3,-1
 62 1082 l 1,4,-1
 238 1082 l 1,5,-1
 238 1206 l 2,6,7
 238 1376 238 1376 328 1466.5 c 128,-1,8
 418 1557 418 1557 575 1557 c 0,9,10
 642 1557 642 1557 703 1541 c 1,11,-1
 693 1415 l 1,12,13
 650 1425 650 1425 588 1425 c 0,14,15
 495 1425 495 1425 442.5 1368.5 c 128,-1,16
 390 1312 390 1312 390 1206 c 2,17,-1
 390 1082 l 1,18,-1
 820 1082 l 1,19,-1
 820 1206 l 2,20,21
 820 1376 820 1376 911.5 1466.5 c 128,-1,22
 1003 1557 1003 1557 1169 1557 c 0,23,24
 1237 1557 1237 1557 1344.5 1538 c 128,-1,25
 1452 1519 1452 1519 1555 1496 c 1,26,-1
 1555 0 l 1,27,-1
 1403 0 l 1,28,-1
 1403 1401 l 1,29,30
 1338 1412 1338 1412 1282 1418.5 c 128,-1,31
 1226 1425 1226 1425 1179 1425 c 0,32,33
 1079 1425 1079 1425 1026 1368.5 c 128,-1,34
 973 1312 973 1312 973 1206 c 2,35,-1
 973 1082 l 1,36,-1
 1217 1082 l 1,37,-1
 1217 962 l 1,38,-1
 973 962 l 1,39,-1
 973 0 l 1,40,-1
 820 0 l 1,41,-1
 820 962 l 1,42,-1
 390 962 l 1,43,-1
 390 0 l 1,0,-1
EndSplineSet
Ligature2: "'liga' Standard Ligatures in Latin lookup 11 subtable" f f l
EndChar

StartChar: f_l
Encoding: 64258 64258 412
Width: 1139
GlyphClass: 3
Flags: W
LayerCount: 2
Fore
SplineSet
390 0 m 1,0,-1
 238 0 l 1,1,-1
 238 962 l 1,2,-1
 62 962 l 1,3,-1
 62 1082 l 1,4,-1
 238 1082 l 1,5,-1
 238 1206 l 2,6,7
 238 1376 238 1376 329 1466.5 c 128,-1,8
 420 1557 420 1557 586 1557 c 0,9,10
 654 1557 654 1557 762 1538 c 128,-1,11
 870 1519 870 1519 973 1496 c 1,12,-1
 973 0 l 1,13,-1
 820 0 l 1,14,-1
 820 1401 l 1,15,16
 755 1412 755 1412 699 1418.5 c 128,-1,17
 643 1425 643 1425 597 1425 c 0,18,19
 497 1425 497 1425 443.5 1368.5 c 128,-1,20
 390 1312 390 1312 390 1206 c 2,21,-1
 390 1082 l 1,22,-1
 634 1082 l 1,23,-1
 634 962 l 1,24,-1
 390 962 l 1,25,-1
 390 0 l 1,0,-1
EndSplineSet
Ligature2: "'liga' Standard Ligatures in Latin lookup 11 subtable" f l
EndChar

StartChar: fi
Encoding: 64257 64257 413
Width: 1118
GlyphClass: 3
Flags: W
LayerCount: 2
Fore
SplineSet
368 0 m 1,0,-1
 216 0 l 1,1,-1
 216 962 l 1,2,-1
 41 962 l 1,3,-1
 41 1082 l 1,4,-1
 216 1082 l 1,5,-1
 216 1186 l 2,6,7
 216 1366 216 1366 317.5 1461.5 c 128,-1,8
 419 1557 419 1557 594 1557 c 0,9,10
 663 1557 663 1557 732 1541 c 128,-1,11
 801 1525 801 1525 873 1497 c 1,12,-1
 848 1367 l 1,13,14
 799 1387 799 1387 739.5 1403 c 128,-1,15
 680 1419 680 1419 604 1419 c 0,16,17
 368 1419 368 1419 368 1186 c 2,18,-1
 368 1082 l 1,19,-1
 605 1082 l 1,20,-1
 605 962 l 1,21,-1
 368 962 l 1,22,-1
 368 0 l 1,0,-1
951 1082 m 1,23,-1
 951 0 l 1,24,-1
 799 0 l 1,25,-1
 799 1082 l 1,26,-1
 951 1082 l 1,23,-1
EndSplineSet
Ligature2: "'liga' Standard Ligatures in Latin lookup 10 subtable" f i
EndChar

StartChar: figuredash
Encoding: 8210 8210 414
Width: 1025
GlyphClass: 2
Flags: W
LayerCount: 2
Fore
SplineSet
879 456 m 1,0,-1
 146 456 l 1,1,-1
 146 581 l 1,2,-1
 879 581 l 1,3,-1
 879 456 l 1,0,-1
EndSplineSet
EndChar

StartChar: five
Encoding: 53 53 415
Width: 1144
VWidth: 1798
GlyphClass: 2
Flags: W
LayerCount: 2
Fore
SplineSet
334 456 m 1,0,-1
 213 489 l 1,1,-1
 285 1206 l 1,2,-1
 1023 1206 l 1,3,-1
 1023 1065 l 1,4,-1
 415 1065 l 1,5,-1
 367 622 l 1,6,7
 406 647 406 647 473 670 c 128,-1,8
 540 693 540 693 626 693 c 0,9,10
 823 693 823 693 941 564 c 128,-1,11
 1059 435 1059 435 1059 214 c 0,12,13
 1059 75 1059 75 1010.5 -34.5 c 128,-1,14
 962 -144 962 -144 863 -207 c 128,-1,15
 764 -270 764 -270 610 -270 c 0,16,17
 493 -270 493 -270 395.5 -226 c 128,-1,18
 298 -182 298 -182 236 -92.5 c 128,-1,19
 174 -3 174 -3 161 133 c 1,20,-1
 307 133 l 1,21,22
 324 -2 324 -2 402 -72 c 128,-1,23
 480 -142 480 -142 610 -142 c 0,24,25
 753 -142 753 -142 829 -48 c 128,-1,26
 905 46 905 46 905 212 c 0,27,28
 905 358 905 358 824.5 456.5 c 128,-1,29
 744 555 744 555 594 555 c 0,30,31
 495 555 495 555 440.5 528.5 c 128,-1,32
 386 502 386 502 334 456 c 1,0,-1
EndSplineSet
Substitution2: "'ss01' Style Set 1 lookup 35 subtable" uni06F5
Substitution2: "'numr' Numerators lookup 21 subtable" five.frac
Substitution2: "'dnom' Denominators lookup 20 subtable" five.sup
Substitution2: "'frac' Diagonal Fractions lookup 19 subtable" five.frac
Substitution2: "Single Substitution lookup 18 subtable" five.sup
Substitution2: "'onum' Oldstyle Figures lookup 14 subtable" five.tnum
Substitution2: "'c2sc' Capitals to Small Capitals lookup 0 subtable" five.smcp
Position2: "'cpsp' Capital Spacing lookup 0 subtable" dx=36 dy=0 dh=72 dv=0
EndChar

StartChar: five.onum
Encoding: 65737 -1 417
Width: 1131
GlyphClass: 1
Flags: W
LayerCount: 2
Fore
SplineSet
266 376 m 1,0,-1
 139 393 l 1,1,-1
 236 1164 l 1,2,-1
 1016 1164 l 1,3,-1
 1016 1022 l 1,4,-1
 357 1022 l 1,5,-1
 297 578 l 1,6,7
 349 619 349 619 421 640.5 c 128,-1,8
 493 662 493 662 588 663 c 0,9,10
 723 664 723 664 821 604 c 128,-1,11
 919 544 919 544 972.5 435 c 128,-1,12
 1026 326 1026 326 1026 179 c 0,13,14
 1026 31 1026 31 965.5 -89.5 c 128,-1,15
 905 -210 905 -210 787.5 -281 c 128,-1,16
 670 -352 670 -352 500 -352 c 0,17,18
 394 -352 394 -352 293.5 -324.5 c 128,-1,19
 193 -297 193 -297 101 -238 c 1,20,-1
 151 -123 l 1,21,22
 219 -175 219 -175 308 -199.5 c 128,-1,23
 397 -224 397 -224 500 -224 c 0,24,25
 614 -224 614 -224 697.5 -171.5 c 128,-1,26
 781 -119 781 -119 827 -28 c 128,-1,27
 873 63 873 63 873 177 c 0,28,29
 873 273 873 273 835.5 352 c 128,-1,30
 798 431 798 431 726.5 478 c 128,-1,31
 655 525 655 525 553 525 c 0,32,33
 457 525 457 525 403 505.5 c 128,-1,34
 349 486 349 486 319 452.5 c 128,-1,35
 289 419 289 419 266 376 c 1,0,-1
EndSplineSet
EndChar

StartChar: five.smcp
Encoding: 65738 -1 418
Width: 1033
GlyphClass: 2
Flags: W
LayerCount: 2
Fore
SplineSet
292 554 m 1,0,-1
 171 586 l 1,1,-1
 240 1165 l 1,2,-1
 913 1165 l 1,3,-1
 913 1030 l 1,4,-1
 369 1030 l 1,5,-1
 326 701 l 1,6,7
 359 719 359 719 419 737.5 c 128,-1,8
 479 756 479 756 557 756 c 0,9,10
 736 756 736 756 845.5 653.5 c 128,-1,11
 955 551 955 551 955 373 c 0,12,13
 955 264 955 264 911.5 176 c 128,-1,14
 868 88 868 88 777 36 c 128,-1,15
 686 -16 686 -16 544 -16 c 0,16,17
 443 -16 443 -16 353.5 20.5 c 128,-1,18
 264 57 264 57 205.5 130 c 128,-1,19
 147 203 147 203 137 311 c 1,20,-1
 285 311 l 1,21,22
 298 211 298 211 369 161 c 128,-1,23
 440 111 440 111 544 111 c 0,24,25
 675 111 675 111 738.5 183 c 128,-1,26
 802 255 802 255 802 376 c 0,27,28
 802 488 802 488 729.5 558.5 c 128,-1,29
 657 629 657 629 525 629 c 0,30,31
 434 629 434 629 385.5 607.5 c 128,-1,32
 337 586 337 586 292 554 c 1,0,-1
EndSplineSet
EndChar

StartChar: five.sup
Encoding: 65739 -1 419
Width: 745
GlyphClass: 2
Flags: W
LayerCount: 2
Fore
SplineSet
225 366 m 1,0,-1
 121 393 l 1,1,-1
 170 789 l 1,2,-1
 641 789 l 1,3,-1
 641 678 l 1,4,-1
 278 678 l 1,5,-1
 252 479 l 1,6,7
 272 489 272 489 312.5 501 c 128,-1,8
 353 513 353 513 402 513 c 0,9,10
 527 513 527 513 600 445 c 128,-1,11
 673 377 673 377 673 256 c 0,12,13
 673 148 673 148 603.5 68.5 c 128,-1,14
 534 -11 534 -11 386 -11 c 0,15,16
 315 -11 315 -11 251 15 c 128,-1,17
 187 41 187 41 146 91 c 128,-1,18
 105 141 105 141 100 214 c 1,19,-1
 230 214 l 1,20,21
 236 155 236 155 279 126 c 128,-1,22
 322 97 322 97 386 97 c 0,23,24
 468 97 468 97 504.5 141.5 c 128,-1,25
 541 186 541 186 541 258 c 0,26,27
 541 327 541 327 497 370 c 128,-1,28
 453 413 453 413 372 413 c 0,29,30
 313 413 313 413 282 398.5 c 128,-1,31
 251 384 251 384 225 366 c 1,0,-1
EndSplineSet
EndChar

StartChar: florin
Encoding: 402 402 422
Width: 685
VWidth: 1798
GlyphClass: 2
Flags: W
LayerCount: 2
Fore
SplineSet
604 832 m 1,0,-1
 604 712 l 1,1,-1
 381 712 l 1,2,-1
 381 -339 l 2,3,4
 381 -508 381 -508 298 -597.5 c 128,-1,5
 215 -687 215 -687 68 -687 c 0,6,7
 9 -687 9 -687 -44 -669 c 1,8,-1
 -30 -545 l 1,9,10
 -15 -551 -15 -551 17.5 -555 c 128,-1,11
 50 -559 50 -559 68 -559 c 0,12,13
 144 -559 144 -559 186 -501 c 128,-1,14
 228 -443 228 -443 228 -339 c 2,15,-1
 228 712 l 1,16,-1
 53 712 l 1,17,-1
 53 832 l 1,18,-1
 228 832 l 1,19,-1
 228 956 l 2,20,21
 228 1126 228 1126 314.5 1216.5 c 128,-1,22
 401 1307 401 1307 553 1307 c 0,23,24
 588 1307 588 1307 622.5 1301.5 c 128,-1,25
 657 1296 657 1296 692 1287 c 1,26,-1
 673 1165 l 1,27,28
 629 1176 629 1176 569 1176 c 0,29,30
 476 1176 476 1176 428.5 1119 c 128,-1,31
 381 1062 381 1062 381 956 c 2,32,-1
 381 832 l 1,33,-1
 604 832 l 1,0,-1
EndSplineSet
EndChar

StartChar: four
Encoding: 52 52 423
Width: 1144
VWidth: 1798
GlyphClass: 2
Flags: W
LayerCount: 2
Fore
SplineSet
1102 230 m 1,0,-1
 1102 103 l 1,1,-1
 887 103 l 1,2,-1
 887 -250 l 1,3,-1
 735 -250 l 1,4,-1
 735 103 l 1,5,-1
 60 103 l 1,6,-1
 60 192 l 1,7,-1
 723 1206 l 1,8,-1
 887 1206 l 1,9,-1
 887 230 l 1,10,-1
 1102 230 l 1,0,-1
239 230 m 1,11,-1
 735 230 l 1,12,-1
 735 1004 l 1,13,-1
 697 936 l 1,14,-1
 239 230 l 1,11,-1
EndSplineSet
Substitution2: "'ss01' Style Set 1 lookup 35 subtable" uni06F4
Substitution2: "'numr' Numerators lookup 21 subtable" four.frac
Substitution2: "'dnom' Denominators lookup 20 subtable" four.sup
Substitution2: "'frac' Diagonal Fractions lookup 19 subtable" four.frac
Substitution2: "Single Substitution lookup 18 subtable" four.sup
Substitution2: "'onum' Oldstyle Figures lookup 14 subtable" four.tnum
Substitution2: "'c2sc' Capitals to Small Capitals lookup 0 subtable" four.smcp
Position2: "'cpsp' Capital Spacing lookup 0 subtable" dx=36 dy=0 dh=72 dv=0
EndChar

StartChar: four.onum
Encoding: 65742 -1 425
Width: 1230
GlyphClass: 1
Flags: W
LayerCount: 2
Fore
SplineSet
1184 127 m 1,0,-1
 1184 -1 l 1,1,-1
 987 -1 l 1,2,-1
 987 -330 l 1,3,-1
 835 -330 l 1,4,-1
 835 -1 l 1,5,-1
 62 -1 l 1,6,-1
 62 91 l 1,7,-1
 820 1165 l 1,8,-1
 987 1165 l 1,9,-1
 987 127 l 1,10,-1
 1184 127 l 1,0,-1
246 127 m 1,11,-1
 835 127 l 1,12,-1
 835 970 l 1,13,-1
 798 902 l 1,14,-1
 246 127 l 1,11,-1
EndSplineSet
EndChar

StartChar: four.smcp
Encoding: 65743 -1 426
Width: 1033
GlyphClass: 2
Flags: W
LayerCount: 2
Fore
SplineSet
994 402 m 1,0,-1
 994 274 l 1,1,-1
 806 274 l 1,2,-1
 806 0 l 1,3,-1
 654 0 l 1,4,-1
 654 274 l 1,5,-1
 56 274 l 1,6,-1
 55 369 l 1,7,-1
 644 1165 l 1,8,-1
 806 1165 l 1,9,-1
 806 402 l 1,10,-1
 994 402 l 1,0,-1
224 402 m 1,11,-1
 654 402 l 1,12,-1
 654 970 l 1,13,-1
 616 903 l 1,14,-1
 224 402 l 1,11,-1
EndSplineSet
EndChar

StartChar: four.sup
Encoding: 65744 -1 427
Width: 745
GlyphClass: 2
Flags: W
LayerCount: 2
Fore
SplineSet
697 288 m 1,0,-1
 697 179 l 1,1,-1
 580 179 l 1,2,-1
 580 0 l 1,3,-1
 449 0 l 1,4,-1
 449 179 l 1,5,-1
 62 179 l 1,6,-1
 57 263 l 1,7,-1
 445 789 l 1,8,-1
 580 789 l 1,9,-1
 580 288 l 1,10,-1
 697 288 l 1,0,-1
193 288 m 1,11,-1
 449 288 l 1,12,-1
 449 622 l 1,13,-1
 426 584 l 1,14,-1
 193 288 l 1,11,-1
EndSplineSet
EndChar

StartChar: fraction
Encoding: 8260 8260 429
Width: 925
GlyphClass: 2
Flags: W
LayerCount: 2
Fore
SplineSet
862 1254 m 1,0,-1
 151 116 l 1,1,-1
 61 173 l 1,2,-1
 772 1311 l 1,3,-1
 862 1254 l 1,0,-1
EndSplineSet
EndChar

StartChar: g
Encoding: 103 103 431
Width: 1143
VWidth: 1798
GlyphClass: 2
Flags: W
AnchorPoint: "Anchor-1" 554 -697 basechar 0
AnchorPoint: "Anchor-0" 556 1040 basechar 0
LayerCount: 2
Fore
SplineSet
103 280 m 2,0,-1
 103 301 l 2,1,2
 103 467 103 467 154 591 c 128,-1,3
 205 715 205 715 299.5 783.5 c 128,-1,4
 394 852 394 852 525 852 c 0,5,6
 634 852 634 852 714 811 c 128,-1,7
 794 770 794 770 848 695 c 1,8,-1
 855 832 l 1,9,-1
 995 832 l 1,10,-1
 995 -229 l 2,11,12
 995 -442 995 -442 872 -560.5 c 128,-1,13
 749 -679 749 -679 549 -679 c 0,14,15
 488 -679 488 -679 415 -660 c 128,-1,16
 342 -641 342 -641 274 -600 c 128,-1,17
 206 -559 206 -559 160 -493 c 1,18,-1
 242 -401 l 1,19,20
 309 -483 309 -483 383.5 -517.5 c 128,-1,21
 458 -552 458 -552 538 -552 c 0,22,23
 681 -552 681 -552 762 -469.5 c 128,-1,24
 843 -387 843 -387 843 -236 c 2,25,-1
 843 -124 l 1,26,27
 789 -194 789 -194 709.5 -232 c 128,-1,28
 630 -270 630 -270 523 -270 c 0,29,30
 394 -270 394 -270 299.5 -199 c 128,-1,31
 205 -128 205 -128 154 -4 c 128,-1,32
 103 120 103 120 103 280 c 2,0,-1
256 301 m 2,33,-1
 256 280 l 2,34,35
 256 163 256 163 287.5 68 c 128,-1,36
 319 -27 319 -27 386 -83 c 128,-1,37
 453 -139 453 -139 557 -139 c 0,38,39
 669 -139 669 -139 737 -87.5 c 128,-1,40
 805 -36 805 -36 843 42 c 1,41,-1
 843 537 l 1,42,43
 808 613 808 613 740.5 667.5 c 128,-1,44
 673 722 673 722 559 722 c 0,45,46
 454 722 454 722 387 665.5 c 128,-1,47
 320 609 320 609 288 513.5 c 128,-1,48
 256 418 256 418 256 301 c 2,33,-1
EndSplineSet
Substitution2: "'salt' Stylistic Alternatives lookup 13 subtable" g.alt
Substitution2: "'unic' Unicase lookup 2 subtable" G
Substitution2: "'smcp' Lowercase to Small Capitals lookup 1 subtable" G.smcp
EndChar

StartChar: g.alt
Encoding: 65746 -1 432
Width: 1081
GlyphClass: 2
Flags: W
LayerCount: 2
Fore
SplineSet
107 727 m 2,0,-1
 107 749 l 2,1,2
 107 852 107 852 160 931.5 c 128,-1,3
 213 1011 213 1011 307 1056.5 c 128,-1,4
 401 1102 401 1102 523 1102 c 0,5,6
 602 1102 602 1102 672 1082 c 1,7,-1
 1024 1082 l 1,8,-1
 1026 959 l 1,9,-1
 867 959 l 1,10,11
 941 869 941 869 941 749 c 2,12,-1
 941 727 l 2,13,14
 941 632 941 632 888 552.5 c 128,-1,15
 835 473 835 473 741.5 425.5 c 128,-1,16
 648 378 648 378 525 378 c 0,17,18
 447 378 447 378 378 399 c 1,19,20
 355 381 355 381 335.5 352 c 128,-1,21
 316 323 316 323 316 281 c 0,22,23
 316 229 316 229 353.5 210.5 c 128,-1,24
 391 192 391 192 443 192 c 2,25,-1
 619 192 l 2,26,27
 804 192 804 192 912 120.5 c 128,-1,28
 1020 49 1020 49 1020 -100 c 0,29,30
 1020 -176 1020 -176 958.5 -254.5 c 128,-1,31
 897 -333 897 -333 779.5 -385.5 c 128,-1,32
 662 -438 662 -438 494 -438 c 0,33,34
 275 -438 275 -438 160.5 -354.5 c 128,-1,35
 46 -271 46 -271 46 -159 c 0,36,37
 46 -59 46 -59 103.5 9 c 128,-1,38
 161 77 161 77 238 114 c 1,39,40
 210 135 210 135 193.5 166.5 c 128,-1,41
 177 198 177 198 177 240 c 0,42,43
 177 313 177 313 211.5 360.5 c 128,-1,44
 246 408 246 408 285 438 c 1,45,46
 202 485 202 485 154.5 561 c 128,-1,47
 107 637 107 637 107 727 c 2,0,-1
259 749 m 2,48,-1
 259 727 l 2,49,50
 259 672 259 672 292 621 c 128,-1,51
 325 570 325 570 385 537.5 c 128,-1,52
 445 505 445 505 525 505 c 256,53,54
 605 505 605 505 664.5 537.5 c 128,-1,55
 724 570 724 570 756.5 621 c 128,-1,56
 789 672 789 672 789 727 c 2,57,-1
 789 749 l 2,58,59
 789 839 789 839 716 907 c 128,-1,60
 643 975 643 975 523 975 c 0,61,62
 405 975 405 975 332 907 c 128,-1,63
 259 839 259 839 259 749 c 2,48,-1
198 -131 m 0,64,65
 198 -205 198 -205 270 -258 c 128,-1,66
 342 -311 342 -311 494 -311 c 0,67,68
 615 -311 615 -311 698 -278 c 128,-1,69
 781 -245 781 -245 824.5 -196 c 128,-1,70
 868 -147 868 -147 868 -100 c 0,71,72
 868 -24 868 -24 812.5 20.5 c 128,-1,73
 757 65 757 65 619 65 c 2,74,-1
 416 65 l 2,75,76
 382 65 382 65 351 70 c 1,77,78
 287 48 287 48 242.5 -7 c 128,-1,79
 198 -62 198 -62 198 -131 c 0,64,65
EndSplineSet
EndChar

StartChar: germandbls
Encoding: 223 223 437
Width: 1209
VWidth: 1798
GlyphClass: 2
Flags: W
LayerCount: 2
Fore
SplineSet
298 870 m 2,0,-1
 298 -250 l 1,1,-1
 146 -250 l 1,2,-1
 146 870 l 2,3,4
 146 1082 146 1082 249 1190.5 c 128,-1,5
 352 1299 352 1299 523 1299 c 0,6,7
 624 1299 624 1299 705.5 1263.5 c 128,-1,8
 787 1228 787 1228 835 1156.5 c 128,-1,9
 883 1085 883 1085 883 977 c 0,10,11
 883 899 883 899 864 847 c 128,-1,12
 845 795 845 795 820 754.5 c 128,-1,13
 795 714 795 714 776 672 c 128,-1,14
 757 630 757 630 757 572 c 0,15,16
 757 515 757 515 793 471 c 128,-1,17
 829 427 829 427 882 386 c 128,-1,18
 935 345 935 345 988 300 c 128,-1,19
 1041 255 1041 255 1077 198 c 128,-1,20
 1113 141 1113 141 1113 62 c 0,21,22
 1113 -48 1113 -48 1061.5 -122 c 128,-1,23
 1010 -196 1010 -196 924 -233 c 128,-1,24
 838 -270 838 -270 733 -270 c 0,25,26
 678 -270 678 -270 617.5 -259.5 c 128,-1,27
 557 -249 557 -249 506.5 -231.5 c 128,-1,28
 456 -214 456 -214 430 -194 c 1,29,-1
 468 -65 l 1,30,31
 504 -90 504 -90 574 -117 c 128,-1,32
 644 -144 644 -144 716 -144 c 0,33,34
 839 -144 839 -144 900 -84.5 c 128,-1,35
 961 -25 961 -25 961 58 c 0,36,37
 961 118 961 118 925 163.5 c 128,-1,38
 889 209 889 209 836 250 c 128,-1,39
 783 291 783 291 730 335.5 c 128,-1,40
 677 380 677 380 641 437.5 c 128,-1,41
 605 495 605 495 605 574 c 0,42,43
 605 639 605 639 625 686 c 128,-1,44
 645 733 645 733 671 774.5 c 128,-1,45
 697 816 697 816 717 861 c 128,-1,46
 737 906 737 906 737 966 c 0,47,48
 737 1064 737 1064 677 1118.5 c 128,-1,49
 617 1173 617 1173 533 1173 c 0,50,51
 424 1173 424 1173 361 1100.5 c 128,-1,52
 298 1028 298 1028 298 870 c 2,0,-1
EndSplineSet
Substitution2: "'smcp' Lowercase to Small Capitals lookup 1 subtable" Germandbls.smcp
EndChar

StartChar: grave
Encoding: 96 96 438
Width: 609
VWidth: 1798
GlyphClass: 2
Flags: W
LayerCount: 2
Fore
SplineSet
265 1286 m 1,0,-1
 456 999 l 1,1,-1
 322 999 l 1,2,-1
 80 1286 l 1,3,-1
 265 1286 l 1,0,-1
EndSplineSet
EndChar

StartChar: gravecomb
Encoding: 768 768 439
Width: 0
VWidth: 1798
GlyphClass: 4
Flags: W
AnchorPoint: "Anchor-3" -530 1391 basemark 0
AnchorPoint: "Anchor-3" -530 1040 mark 0
AnchorPoint: "Anchor-0" -530 1040 mark 0
LayerCount: 2
Fore
SplineSet
-645 1286 m 1,0,-1
 -453 999 l 1,1,-1
 -586 999 l 1,2,-1
 -829 1286 l 1,3,-1
 -645 1286 l 1,0,-1
EndSplineSet
EndChar

StartChar: greater
Encoding: 62 62 440
Width: 1067
VWidth: 1798
GlyphClass: 2
Flags: W
LayerCount: 2
Fore
SplineSet
130 122 m 1,0,-1
 818 405 l 1,1,-1
 130 685 l 1,2,-1
 130 843 l 1,3,-1
 979 465 l 1,4,-1
 979 343 l 1,5,-1
 130 -36 l 1,6,-1
 130 122 l 1,0,-1
EndSplineSet
EndChar

StartChar: greaterequal
Encoding: 8805 8805 441
Width: 1067
GlyphClass: 2
Flags: W
LayerCount: 2
Fore
SplineSet
130 455 m 1,0,-1
 817 721 l 1,1,-1
 130 983 l 1,2,-1
 130 1128 l 1,3,-1
 979 776 l 1,4,-1
 979 664 l 1,5,-1
 130 310 l 1,6,-1
 130 455 l 1,0,-1
960 128 m 1,7,-1
 960 0 l 1,8,-1
 125 0 l 1,9,-1
 125 128 l 1,10,-1
 960 128 l 1,7,-1
EndSplineSet
EndChar

StartChar: guillemotleft
Encoding: 171 171 442
Width: 903
VWidth: 1798
GlyphClass: 2
Flags: W
LayerCount: 2
Fore
SplineSet
435 -202 m 1,0,-1
 357 -278 l 1,1,2
 239 -137 239 -137 179 -26.5 c 128,-1,3
 119 84 119 84 119 187 c 0,4,5
 119 291 119 291 178.5 400.5 c 128,-1,6
 238 510 238 510 356 651 c 1,7,-1
 435 574 l 1,8,9
 341 450 341 450 294.5 360 c 128,-1,10
 248 270 248 270 248 187 c 256,11,12
 248 104 248 104 295 13.5 c 128,-1,13
 342 -77 342 -77 435 -202 c 1,0,-1
778 -202 m 1,14,-1
 700 -278 l 1,15,16
 582 -137 582 -137 522.5 -26.5 c 128,-1,17
 463 84 463 84 463 187 c 0,18,19
 463 291 463 291 522 401 c 128,-1,20
 581 511 581 511 699 651 c 1,21,-1
 778 574 l 1,22,23
 684 450 684 450 637.5 360 c 128,-1,24
 591 270 591 270 591 187 c 256,25,26
 591 104 591 104 638 13.5 c 128,-1,27
 685 -77 685 -77 778 -202 c 1,14,-1
EndSplineSet
EndChar

StartChar: guillemotright
Encoding: 187 187 443
Width: 903
VWidth: 1798
GlyphClass: 2
Flags: W
LayerCount: 2
Fore
SplineSet
468 -202 m 1,0,1
 561 -77 561 -77 608 13.5 c 128,-1,2
 655 104 655 104 655 187 c 256,3,4
 655 270 655 270 608 360 c 128,-1,5
 561 450 561 450 468 574 c 1,6,-1
 546 651 l 1,7,8
 665 510 665 510 724.5 400.5 c 128,-1,9
 784 291 784 291 784 187 c 0,10,11
 784 84 784 84 724.5 -26.5 c 128,-1,12
 665 -137 665 -137 546 -278 c 1,13,-1
 468 -202 l 1,0,1
125 -202 m 1,14,15
 218 -77 218 -77 265 13.5 c 128,-1,16
 312 104 312 104 312 187 c 256,17,18
 312 270 312 270 265 360 c 128,-1,19
 218 450 218 450 125 574 c 1,20,-1
 203 651 l 1,21,22
 322 511 322 511 381 401 c 128,-1,23
 440 291 440 291 440 187 c 0,24,25
 440 84 440 84 381 -26.5 c 128,-1,26
 322 -137 322 -137 203 -278 c 1,27,-1
 125 -202 l 1,14,15
EndSplineSet
EndChar

StartChar: guilsinglleft
Encoding: 8249 8249 444
Width: 612
GlyphClass: 2
Flags: W
LayerCount: 2
Fore
SplineSet
527 947 m 1,0,-1
 260 554 l 1,1,-1
 527 160 l 1,2,-1
 403 160 l 1,3,-1
 108 544 l 1,4,-1
 108 563 l 1,5,-1
 403 947 l 1,6,-1
 527 947 l 1,0,-1
EndSplineSet
EndChar

StartChar: guilsinglright
Encoding: 8250 8250 445
Width: 612
GlyphClass: 2
Flags: W
LayerCount: 2
Fore
SplineSet
94 158 m 1,0,-1
 361 551 l 1,1,-1
 94 947 l 1,2,-1
 218 947 l 1,3,-1
 513 560 l 1,4,-1
 513 541 l 1,5,-1
 218 158 l 1,6,-1
 94 158 l 1,0,-1
EndSplineSet
EndChar

StartChar: h
Encoding: 104 104 446
Width: 1126
VWidth: 1798
GlyphClass: 2
Flags: W
AnchorPoint: "Anchor-1" 588 -240 basechar 0
AnchorPoint: "Anchor-0" 501 1361 basechar 0
LayerCount: 2
Fore
SplineSet
301 1286 m 1,0,-1
 301 678 l 1,1,2
 358 759 358 759 443.5 805.5 c 128,-1,3
 529 852 529 852 636 852 c 0,4,5
 797 852 797 852 890 761.5 c 128,-1,6
 983 671 983 671 983 457 c 2,7,-1
 983 -250 l 1,8,-1
 830 -250 l 1,9,-1
 830 458 l 2,10,11
 830 605 830 605 767.5 663.5 c 128,-1,12
 705 722 705 722 594 722 c 0,13,14
 487 722 487 722 412.5 660 c 128,-1,15
 338 598 338 598 301 510 c 1,16,-1
 301 -250 l 1,17,-1
 149 -250 l 1,18,-1
 149 1286 l 1,19,-1
 301 1286 l 1,0,-1
EndSplineSet
Substitution2: "'unic' Unicase lookup 2 subtable" H
Substitution2: "'smcp' Lowercase to Small Capitals lookup 1 subtable" H.smcp
EndChar

StartChar: hbar
Encoding: 295 295 447
Width: 1156
VWidth: 1798
GlyphClass: 2
Flags: W
AnchorPoint: "Anchor-1" 588 -240 basechar 0
AnchorPoint: "Anchor-0" 501 1361 basechar 0
LayerCount: 2
Fore
SplineSet
641 1123 m 1,0,-1
 641 995 l 1,1,-1
 331 995 l 1,2,-1
 331 678 l 1,3,4
 388 759 388 759 473.5 805.5 c 128,-1,5
 559 852 559 852 666 852 c 0,6,7
 827 852 827 852 920 761.5 c 128,-1,8
 1013 671 1013 671 1013 457 c 2,9,-1
 1013 -250 l 1,10,-1
 860 -250 l 1,11,-1
 860 458 l 2,12,13
 860 605 860 605 797.5 663.5 c 128,-1,14
 735 722 735 722 624 722 c 0,15,16
 517 722 517 722 442.5 660 c 128,-1,17
 368 598 368 598 331 510 c 1,18,-1
 331 -250 l 1,19,-1
 179 -250 l 1,20,-1
 179 995 l 1,21,-1
 16 995 l 1,22,-1
 16 1123 l 1,23,-1
 179 1123 l 1,24,-1
 179 1286 l 1,25,-1
 331 1286 l 1,26,-1
 331 1123 l 1,27,-1
 641 1123 l 1,0,-1
EndSplineSet
Substitution2: "'unic' Unicase lookup 2 subtable" Hbar
Substitution2: "'smcp' Lowercase to Small Capitals lookup 1 subtable" Hbar.smcp
EndChar

StartChar: hook
Encoding: 777 777 449
Width: 0
VWidth: 1798
GlyphClass: 4
Flags: W
AnchorPoint: "Anchor-3" -590 1471 basemark 0
AnchorPoint: "Anchor-3" -590 1024 mark 0
AnchorPoint: "Anchor-0" -590 1024 mark 0
LayerCount: 2
Fore
SplineSet
-527 988 m 1,0,-1
 -639 988 l 1,1,-1
 -640 1127 l 1,2,3
 -558 1132 -558 1132 -521 1150.5 c 128,-1,4
 -484 1169 -484 1169 -484 1212 c 0,5,6
 -484 1259 -484 1259 -540 1278 c 128,-1,7
 -596 1297 -596 1297 -667 1297 c 1,8,-1
 -660 1389 l 1,9,10
 -517 1389 -517 1389 -439.5 1340.5 c 128,-1,11
 -362 1292 -362 1292 -362 1209 c 0,12,13
 -362 1132 -362 1132 -412.5 1097 c 128,-1,14
 -463 1062 -463 1062 -527 1054 c 1,15,-1
 -527 988 l 1,0,-1
EndSplineSet
EndChar

StartChar: hungarumlaut
Encoding: 733 733 450
Width: 769
VWidth: 1798
GlyphClass: 2
Flags: W
LayerCount: 2
Fore
SplineSet
377 982 m 1,0,-1
 619 1285 l 1,1,-1
 795 1285 l 1,2,-1
 522 982 l 1,3,-1
 377 982 l 1,0,-1
108 982 m 1,4,-1
 294 1285 l 1,5,-1
 462 1285 l 1,6,-1
 238 982 l 1,7,-1
 108 982 l 1,4,-1
EndSplineSet
EndChar

StartChar: hyphen
Encoding: 45 45 451
Width: 942
VWidth: 1798
GlyphClass: 2
Flags: W
LayerCount: 2
Fore
SplineSet
795 206 m 1,0,-1
 146 206 l 1,1,-1
 146 331 l 1,2,-1
 795 331 l 1,3,-1
 795 206 l 1,0,-1
EndSplineSet
EndChar

StartChar: hyphendot
Encoding: 8231 8231 453
Width: 365
GlyphClass: 2
Flags: W
LayerCount: 2
Fore
SplineSet
87 631 m 0,0,1
 87 671 87 671 111.5 698 c 128,-1,2
 136 725 136 725 182 725 c 0,3,4
 229 725 229 725 254 698 c 128,-1,5
 279 671 279 671 279 631 c 0,6,7
 279 592 279 592 254 565 c 128,-1,8
 229 538 229 538 182 538 c 0,9,10
 136 538 136 538 111.5 565 c 128,-1,11
 87 592 87 592 87 631 c 0,0,1
EndSplineSet
EndChar

StartChar: i
Encoding: 105 105 455
Width: 479
VWidth: 1798
GlyphClass: 2
Flags: W
AnchorPoint: "Anchor-1" 249 -240 basechar 0
AnchorPoint: "Anchor-0" 251 1350 basechar 0
LayerCount: 2
Fore
SplineSet
146 1132 m 0,0,1
 146 1172 146 1172 170.5 1199 c 128,-1,2
 195 1226 195 1226 241 1226 c 256,3,4
 287 1226 287 1226 312.5 1199 c 128,-1,5
 338 1172 338 1172 338 1132 c 0,6,7
 338 1094 338 1094 312.5 1067 c 128,-1,8
 287 1040 287 1040 241 1040 c 256,9,10
 195 1040 195 1040 170.5 1067 c 128,-1,11
 146 1094 146 1094 146 1132 c 0,0,1
316 832 m 1,12,-1
 316 -250 l 1,13,-1
 163 -250 l 1,14,-1
 163 832 l 1,15,-1
 316 832 l 1,12,-1
EndSplineSet
Substitution2: "Single Substitution lookup 3 subtable" uni0069.ccmp
Substitution2: "'unic' Unicase lookup 2 subtable" I
Substitution2: "'smcp' Lowercase to Small Capitals lookup 1 subtable" I.smcp
EndChar

StartChar: infinity
Encoding: 8734 8734 463
Width: 2135
GlyphClass: 2
Flags: W
LayerCount: 2
Fore
SplineSet
109 525 m 2,0,-1
 109 557 l 2,1,2
 109 702 109 702 168 826 c 128,-1,3
 227 950 227 950 334.5 1026 c 128,-1,4
 442 1102 442 1102 586 1102 c 0,5,6
 684 1102 684 1102 760 1065.5 c 128,-1,7
 836 1029 836 1029 894 970.5 c 128,-1,8
 952 912 952 912 993 844.5 c 128,-1,9
 1034 777 1034 777 1062 714 c 1,10,11
 1089 777 1089 777 1130 844.5 c 128,-1,12
 1171 912 1171 912 1229 970.5 c 128,-1,13
 1287 1029 1287 1029 1363.5 1065.5 c 128,-1,14
 1440 1102 1440 1102 1538 1102 c 0,15,16
 1681 1102 1681 1102 1788 1026 c 128,-1,17
 1895 950 1895 950 1954.5 826 c 128,-1,18
 2014 702 2014 702 2014 557 c 2,19,-1
 2014 525 l 2,20,21
 2014 380 2014 380 1954.5 255.5 c 128,-1,22
 1895 131 1895 131 1787.5 55 c 128,-1,23
 1680 -21 1680 -21 1536 -21 c 0,24,25
 1439 -21 1439 -21 1362.5 15.5 c 128,-1,26
 1286 52 1286 52 1228.5 110 c 128,-1,27
 1171 168 1171 168 1130 236 c 128,-1,28
 1089 304 1089 304 1061 367 c 1,29,30
 1034 304 1034 304 993 236 c 128,-1,31
 952 168 952 168 894.5 110 c 128,-1,32
 837 52 837 52 761 15.5 c 128,-1,33
 685 -21 685 -21 588 -21 c 0,34,35
 443 -21 443 -21 335 55 c 128,-1,36
 227 131 227 131 168 255.5 c 128,-1,37
 109 380 109 380 109 525 c 2,0,-1
262 557 m 2,38,-1
 262 525 l 2,39,40
 262 415 262 415 299 319.5 c 128,-1,41
 336 224 336 224 408.5 165.5 c 128,-1,42
 481 107 481 107 588 107 c 0,43,44
 667 107 667 107 728 143 c 128,-1,45
 789 179 789 179 834.5 234 c 128,-1,46
 880 289 880 289 910 348 c 128,-1,47
 940 407 940 407 957 454 c 128,-1,48
 974 501 974 501 978 520 c 1,49,-1
 978 562 l 1,50,51
 974 580 974 580 957 627.5 c 128,-1,52
 940 675 940 675 910 733.5 c 128,-1,53
 880 792 880 792 834.5 847.5 c 128,-1,54
 789 903 789 903 727.5 939 c 128,-1,55
 666 975 666 975 586 975 c 0,56,57
 480 975 480 975 408 916 c 128,-1,58
 336 857 336 857 299 761.5 c 128,-1,59
 262 666 262 666 262 557 c 2,38,-1
1862 525 m 2,60,-1
 1862 557 l 2,61,62
 1862 666 1862 666 1824.5 761.5 c 128,-1,63
 1787 857 1787 857 1715 916 c 128,-1,64
 1643 975 1643 975 1538 975 c 0,65,66
 1458 975 1458 975 1396 939 c 128,-1,67
 1334 903 1334 903 1288.5 847.5 c 128,-1,68
 1243 792 1243 792 1212.5 733.5 c 128,-1,69
 1182 675 1182 675 1165.5 627.5 c 128,-1,70
 1149 580 1149 580 1144 562 c 1,71,-1
 1144 520 l 1,72,73
 1149 501 1149 501 1165.5 454 c 128,-1,74
 1182 407 1182 407 1212.5 348 c 128,-1,75
 1243 289 1243 289 1288 234 c 128,-1,76
 1333 179 1333 179 1395 143 c 128,-1,77
 1457 107 1457 107 1536 107 c 0,78,79
 1642 107 1642 107 1714.5 165.5 c 128,-1,80
 1787 224 1787 224 1824.5 319.5 c 128,-1,81
 1862 415 1862 415 1862 525 c 2,60,-1
EndSplineSet
EndChar

StartChar: integral
Encoding: 8747 8747 464
Width: 522
GlyphClass: 2
Flags: W
LayerCount: 2
Fore
SplineSet
328 -102 m 2,0,1
 328 -271 328 -271 245 -354 c 128,-1,2
 162 -437 162 -437 15 -437 c 0,3,4
 -44 -437 -44 -437 -100 -418 c 1,5,-1
 -83 -295 l 1,6,7
 -68 -300 -68 -300 -42.5 -304.5 c 128,-1,8
 -17 -309 -17 -309 2 -309 c 0,9,10
 85 -309 85 -309 130 -258 c 128,-1,11
 175 -207 175 -207 175 -102 c 2,12,-1
 175 1208 l 2,13,14
 175 1378 175 1378 262 1467.5 c 128,-1,15
 349 1557 349 1557 500 1557 c 0,16,17
 535 1557 535 1557 570 1551.5 c 128,-1,18
 605 1546 605 1546 639 1537 c 1,19,-1
 620 1418 l 1,20,21
 600 1423 600 1423 577 1426.5 c 128,-1,22
 554 1430 554 1430 522 1430 c 0,23,24
 428 1430 428 1430 378 1371.5 c 128,-1,25
 328 1313 328 1313 328 1208 c 2,26,-1
 328 -102 l 2,0,1
EndSplineSet
EndChar

StartChar: j
Encoding: 106 106 467
Width: 479
VWidth: 1798
GlyphClass: 2
Flags: W
AnchorPoint: "Anchor-1" 190 -709 basechar 0
AnchorPoint: "Anchor-0" 223 1350 basechar 0
LayerCount: 2
Fore
SplineSet
136 1132 m 0,0,1
 136 1172 136 1172 161 1199 c 128,-1,2
 186 1226 186 1226 232 1226 c 256,3,4
 278 1226 278 1226 303 1199 c 128,-1,5
 328 1172 328 1172 328 1132 c 0,6,7
 328 1094 328 1094 303 1067 c 128,-1,8
 278 1040 278 1040 232 1040 c 256,9,10
 186 1040 186 1040 161 1067 c 128,-1,11
 136 1094 136 1094 136 1132 c 0,0,1
156 832 m 1,12,-1
 309 832 l 1,13,-1
 309 -379 l 2,14,15
 309 -528 309 -528 237.5 -607.5 c 128,-1,16
 166 -687 166 -687 26 -687 c 0,17,18
 1 -687 1 -687 -30.5 -682 c 128,-1,19
 -62 -677 -62 -677 -85 -669 c 1,20,-1
 -84 -544 l 1,21,22
 -43 -556 -43 -556 4 -556 c 0,23,24
 78 -556 78 -556 117 -513.5 c 128,-1,25
 156 -471 156 -471 156 -379 c 2,26,-1
 156 832 l 1,12,-1
EndSplineSet
Substitution2: "Single Substitution lookup 3 subtable" uni006A.ccmp
Substitution2: "'unic' Unicase lookup 2 subtable" J
Substitution2: "'smcp' Lowercase to Small Capitals lookup 1 subtable" J.smcp
EndChar

StartChar: k
Encoding: 107 107 469
Width: 1021
VWidth: 1798
GlyphClass: 2
Flags: W
AnchorPoint: "Anchor-1" 529 -179 basechar 0
AnchorPoint: "Anchor-0" 549 1361 basechar 0
LayerCount: 2
Fore
SplineSet
835 -250 m 1,0,-1
 428 274 l 1,1,-1
 302 146 l 1,2,-1
 302 -250 l 1,3,-1
 149 -250 l 1,4,-1
 149 1286 l 1,5,-1
 302 1286 l 1,6,-1
 302 330 l 1,7,-1
 408 451 l 1,8,-1
 783 832 l 1,9,-1
 972 832 l 1,10,-1
 531 379 l 1,11,-1
 1016 -250 l 1,12,-1
 835 -250 l 1,0,-1
EndSplineSet
Substitution2: "'unic' Unicase lookup 2 subtable" K
Substitution2: "'smcp' Lowercase to Small Capitals lookup 1 subtable" K.smcp
EndChar

StartChar: kgreenlandic
Encoding: 312 312 471
Width: 1126
VWidth: 1798
GlyphClass: 2
Flags: W
AnchorPoint: "Anchor-1" 590 -240 basechar 0
AnchorPoint: "Anchor-0" 590 1040 basechar 0
LayerCount: 2
Fore
SplineSet
879 -250 m 1,0,-1
 435 229 l 1,1,-1
 312 229 l 1,2,-1
 312 -250 l 1,3,-1
 159 -250 l 1,4,-1
 159 832 l 1,5,-1
 312 832 l 1,6,-1
 312 364 l 1,7,-1
 425 364 l 1,8,-1
 844 832 l 1,9,-1
 1030 832 l 1,10,-1
 565 306 l 1,11,-1
 1072 -250 l 1,12,-1
 879 -250 l 1,0,-1
EndSplineSet
EndChar

StartChar: l
Encoding: 108 108 472
Width: 479
VWidth: 1798
GlyphClass: 2
Flags: W
AnchorPoint: "Anchor-1" 249 -240 basechar 0
AnchorPoint: "Anchor-0" 249 1447 basechar 0
LayerCount: 2
Fore
SplineSet
316 1286 m 1,0,-1
 316 -250 l 1,1,-1
 163 -250 l 1,2,-1
 163 1286 l 1,3,-1
 316 1286 l 1,0,-1
EndSplineSet
Substitution2: "'unic' Unicase lookup 2 subtable" L
Substitution2: "'smcp' Lowercase to Small Capitals lookup 1 subtable" L.smcp
EndChar

StartChar: less
Encoding: 60 60 478
Width: 1044
VWidth: 1798
GlyphClass: 2
Flags: W
LayerCount: 2
Fore
SplineSet
897 679 m 1,0,-1
 238 400 l 1,1,-1
 897 124 l 1,2,-1
 897 -37 l 1,3,-1
 75 342 l 1,4,-1
 75 463 l 1,5,-1
 897 841 l 1,6,-1
 897 679 l 1,0,-1
EndSplineSet
EndChar

StartChar: lessequal
Encoding: 8804 8804 479
Width: 1044
GlyphClass: 2
Flags: W
LayerCount: 2
Fore
SplineSet
897 963 m 1,0,-1
 237 701 l 1,1,-1
 897 443 l 1,2,-1
 897 295 l 1,3,-1
 75 648 l 1,4,-1
 75 759 l 1,5,-1
 897 1111 l 1,6,-1
 897 963 l 1,0,-1
900 128 m 1,7,-1
 900 1 l 1,8,-1
 65 1 l 1,9,-1
 65 128 l 1,10,-1
 900 128 l 1,7,-1
EndSplineSet
EndChar

StartChar: lira
Encoding: 8356 8356 480
Width: 1181
GlyphClass: 2
Flags: W
LayerCount: 2
Fore
SplineSet
774 581 m 1,0,-1
 774 474 l 1,1,-1
 432 474 l 1,2,-1
 435 386 l 2,3,4
 436 309 436 309 420.5 243 c 128,-1,5
 405 177 405 177 373 131 c 1,6,-1
 1111 131 l 1,7,-1
 1111 0 l 1,8,-1
 96 0 l 1,9,-1
 96 131 l 1,10,-1
 184 131 l 1,11,12
 219 140 219 140 240 183 c 128,-1,13
 261 226 261 226 270 281.5 c 128,-1,14
 279 337 279 337 278 385 c 2,15,-1
 275 474 l 1,16,-1
 94 474 l 1,17,-1
 94 581 l 1,18,-1
 271 581 l 1,19,-1
 266 734 l 1,20,-1
 94 734 l 1,21,-1
 94 842 l 1,22,-1
 263 842 l 1,23,-1
 256 1039 l 1,24,25
 256 1177 256 1177 311 1274.5 c 128,-1,26
 366 1372 366 1372 462 1424 c 128,-1,27
 558 1476 558 1476 681 1476 c 0,28,29
 873 1476 873 1476 978.5 1368.5 c 128,-1,30
 1084 1261 1084 1261 1084 1088 c 1,31,-1
 926 1088 l 1,32,33
 926 1180 926 1180 890 1236.5 c 128,-1,34
 854 1293 854 1293 795.5 1319 c 128,-1,35
 737 1345 737 1345 669 1345 c 0,36,37
 559 1345 559 1345 486.5 1266 c 128,-1,38
 414 1187 414 1187 414 1039 c 1,39,-1
 420 842 l 1,40,-1
 774 842 l 1,41,-1
 774 734 l 1,42,-1
 424 734 l 1,43,-1
 429 581 l 1,44,-1
 774 581 l 1,0,-1
EndSplineSet
Substitution2: "'c2sc' Capitals to Small Capitals lookup 0 subtable" lira.smcp
Position2: "'cpsp' Capital Spacing lookup 0 subtable" dx=36 dy=0 dh=72 dv=0
EndChar

StartChar: lira.smcp
Encoding: 65749 -1 481
Width: 1054
GlyphClass: 2
Flags: W
LayerCount: 2
Fore
SplineSet
367 744 m 2,0,-1
 369 680 l 1,1,-1
 780 680 l 1,2,-1
 780 575 l 1,3,-1
 372 575 l 1,4,-1
 376 466 l 2,5,6
 376 460 376 460 376 454 c 1,7,-1
 780 454 l 1,8,-1
 780 350 l 1,9,-1
 374 350 l 1,10,11
 369 286 369 286 354 229 c 128,-1,12
 339 172 339 172 312 128 c 1,13,-1
 988 128 l 1,14,-1
 988 0 l 1,15,-1
 105 0 l 1,16,-1
 105 128 l 1,17,-1
 115 128 l 1,18,19
 163 142 163 142 188 208 c 128,-1,20
 213 274 213 274 221 350 c 1,21,-1
 46 350 l 1,22,-1
 46 454 l 1,23,-1
 225 454 l 1,24,25
 225 460 225 460 225 466 c 2,26,-1
 221 575 l 1,27,-1
 46 575 l 1,28,-1
 46 680 l 1,29,-1
 217 680 l 1,30,-1
 215 744 l 2,31,32
 208 950 208 950 308 1065.5 c 128,-1,33
 408 1181 408 1181 581 1181 c 0,34,35
 772 1181 772 1181 861 1074 c 128,-1,36
 950 967 950 967 950 794 c 1,37,-1
 798 794 l 1,38,39
 798 936 798 936 736.5 993.5 c 128,-1,40
 675 1051 675 1051 581 1051 c 0,41,42
 476 1051 476 1051 419 973 c 128,-1,43
 362 895 362 895 367 744 c 2,0,-1
EndSplineSet
EndChar

StartChar: logicalnot
Encoding: 172 172 482
Width: 1126
VWidth: 1798
GlyphClass: 2
Flags: W
LayerCount: 2
Fore
SplineSet
947 539 m 1,0,-1
 947 131 l 1,1,-1
 795 131 l 1,2,-1
 795 404 l 1,3,-1
 126 404 l 1,4,-1
 126 539 l 1,5,-1
 947 539 l 1,0,-1
EndSplineSet
EndChar

StartChar: longs
Encoding: 383 383 483
Width: 487
VWidth: 1798
GlyphClass: 2
Flags: W
AnchorPoint: "Anchor-1" 248 -240 basechar 0
AnchorPoint: "Anchor-0" 428 1504 basechar 0
LayerCount: 2
Fore
SplineSet
317 -250 m 1,0,-1
 164 -250 l 1,1,-1
 164 956 l 2,2,3
 164 1126 164 1126 250.5 1216.5 c 128,-1,4
 337 1307 337 1307 488 1307 c 0,5,6
 524 1307 524 1307 558.5 1301.5 c 128,-1,7
 593 1296 593 1296 628 1287 c 1,8,-1
 608 1168 l 1,9,10
 589 1173 589 1173 565.5 1176.5 c 128,-1,11
 542 1180 542 1180 510 1180 c 0,12,13
 417 1180 417 1180 367 1121 c 128,-1,14
 317 1062 317 1062 317 956 c 2,15,-1
 317 -250 l 1,0,-1
EndSplineSet
EndChar

StartChar: longst
Encoding: 65750 -1 484
Width: 1238
GlyphClass: 3
Flags: W
LayerCount: 2
Fore
SplineSet
1145 1082 m 1,0,-1
 1145 962 l 1,1,-1
 932 962 l 1,2,-1
 932 266 l 2,3,4
 932 168 932 168 971.5 140.5 c 128,-1,5
 1011 113 1011 113 1062 113 c 0,6,7
 1088 113 1088 113 1113 117 c 128,-1,8
 1138 121 1138 121 1154 124 c 1,9,-1
 1157 -2 l 1,10,11
 1135 -9 1135 -9 1099.5 -14.5 c 128,-1,12
 1064 -20 1064 -20 1022 -20 c 0,13,14
 919 -20 919 -20 849.5 42 c 128,-1,15
 780 104 780 104 780 267 c 2,16,-1
 780 962 l 1,17,-1
 581 962 l 1,18,-1
 581 1082 l 1,19,-1
 780 1082 l 1,20,-1
 780 1390 l 1,21,22
 748 1407 748 1407 689.5 1418.5 c 128,-1,23
 631 1430 631 1430 584 1430 c 0,24,25
 491 1430 491 1430 440.5 1371 c 128,-1,26
 390 1312 390 1312 390 1206 c 2,27,-1
 390 0 l 1,28,-1
 238 0 l 1,29,-1
 238 962 l 1,30,-1
 62 962 l 1,31,-1
 62 1082 l 1,32,-1
 238 1082 l 1,33,-1
 238 1206 l 2,34,35
 238 1376 238 1376 324.5 1466.5 c 128,-1,36
 411 1557 411 1557 562 1557 c 0,37,38
 647 1557 647 1557 748 1531.5 c 128,-1,39
 849 1506 849 1506 932 1465 c 1,40,-1
 932 1082 l 1,41,-1
 1145 1082 l 1,0,-1
EndSplineSet
Ligature2: "'dlig' Discretionary Ligatures lookup 12 subtable" longs t
EndChar

StartChar: lozenge
Encoding: 9674 9674 485
Width: 1033
GlyphClass: 2
Flags: W
LayerCount: 2
Fore
SplineSet
50 727 m 1,0,-1
 455 1456 l 1,1,-1
 574 1456 l 1,2,-1
 982 727 l 1,3,-1
 577 0 l 1,4,-1
 458 0 l 1,5,-1
 50 727 l 1,0,-1
210 727 m 1,6,-1
 518 165 l 1,7,-1
 822 727 l 1,8,-1
 514 1289 l 1,9,-1
 210 727 l 1,6,-1
EndSplineSet
EndChar

StartChar: lslash
Encoding: 322 322 486
Width: 542
VWidth: 1798
GlyphClass: 2
Flags: W
AnchorPoint: "Anchor-1" 280 -240 basechar 0
AnchorPoint: "Anchor-0" 280 1447 basechar 0
LayerCount: 2
Fore
SplineSet
514 680 m 1,0,-1
 514 574 l 1,1,-1
 345 509 l 1,2,-1
 345 -250 l 1,3,-1
 192 -250 l 1,4,-1
 192 449 l 1,5,-1
 31 387 l 1,6,-1
 31 493 l 1,7,-1
 192 555 l 1,8,-1
 192 1286 l 1,9,-1
 345 1286 l 1,10,-1
 345 615 l 1,11,-1
 514 680 l 1,0,-1
EndSplineSet
Substitution2: "'smcp' Lowercase to Small Capitals lookup 1 subtable" Lslash.smcp
EndChar

StartChar: m
Encoding: 109 109 487
Width: 1806
VWidth: 1798
GlyphClass: 2
Flags: W
AnchorPoint: "Anchor-1" 897 -240 basechar 0
AnchorPoint: "Anchor-0" 911 1040 basechar 0
LayerCount: 2
Fore
SplineSet
580 722 m 0,0,1
 463 722 463 722 395.5 663.5 c 128,-1,2
 328 605 328 605 298 520 c 1,3,-1
 298 -250 l 1,4,-1
 145 -250 l 1,5,-1
 145 832 l 1,6,-1
 290 832 l 1,7,-1
 295 688 l 1,8,9
 350 764 350 764 434 808 c 128,-1,10
 518 852 518 852 630 852 c 0,11,12
 741 852 741 852 824.5 806.5 c 128,-1,13
 908 761 908 761 947 661 c 1,14,15
 1001 746 1001 746 1091 799 c 128,-1,16
 1181 852 1181 852 1304 852 c 0,17,18
 1476 852 1476 852 1569.5 759 c 128,-1,19
 1663 666 1663 666 1663 458 c 2,20,-1
 1663 -250 l 1,21,-1
 1510 -250 l 1,22,-1
 1510 460 l 2,23,24
 1510 613 1510 613 1442 667.5 c 128,-1,25
 1374 722 1374 722 1263 722 c 0,26,27
 1174 722 1174 722 1113 683.5 c 128,-1,28
 1052 645 1052 645 1018 585.5 c 128,-1,29
 984 526 984 526 979 462 c 1,30,-1
 979 -250 l 1,31,-1
 827 -250 l 1,32,-1
 827 464 l 2,33,34
 827 608 827 608 759 665 c 128,-1,35
 691 722 691 722 580 722 c 0,0,1
EndSplineSet
Substitution2: "'unic' Unicase lookup 2 subtable" M.unic
Substitution2: "'smcp' Lowercase to Small Capitals lookup 1 subtable" M.smcp
EndChar

StartChar: macron
Encoding: 175 175 488
Width: 907
VWidth: 1798
GlyphClass: 2
Flags: W
LayerCount: 2
Fore
SplineSet
785 1193 m 1,0,-1
 785 1073 l 1,1,-1
 140 1073 l 1,2,-1
 140 1193 l 1,3,-1
 785 1193 l 1,0,-1
EndSplineSet
EndChar

StartChar: mu
Encoding: 181 181 491
Width: 1151
VWidth: 1798
GlyphClass: 2
Flags: W
LayerCount: 2
Fore
SplineSet
159 832 m 1,0,-1
 310 832 l 1,1,-1
 310 205 l 2,2,3
 310 62 310 62 343.5 -13.5 c 128,-1,4
 377 -89 377 -89 432 -116 c 128,-1,5
 487 -143 487 -143 552 -143 c 0,6,7
 679 -143 679 -143 746.5 -91 c 128,-1,8
 814 -39 814 -39 841 48 c 1,9,-1
 841 832 l 1,10,-1
 993 832 l 1,11,-1
 993 -250 l 1,12,-1
 855 -250 l 1,13,-1
 848 -116 l 1,14,15
 803 -189 803 -189 732 -230 c 128,-1,16
 661 -271 661 -271 561 -271 c 0,17,18
 483 -271 483 -271 419 -248 c 128,-1,19
 355 -225 355 -225 310 -172 c 1,20,-1
 310 -666 l 1,21,-1
 159 -666 l 1,22,-1
 159 832 l 1,0,-1
EndSplineSet
EndChar

StartChar: multiply
Encoding: 215 215 492
Width: 1004
VWidth: 1798
GlyphClass: 2
Flags: W
LayerCount: 2
Fore
SplineSet
413 265 m 1,0,-1
 148 536 l 1,1,-1
 235 627 l 1,2,-1
 502 356 l 1,3,-1
 769 627 l 1,4,-1
 856 536 l 1,5,-1
 591 265 l 1,6,-1
 858 -7 l 1,7,-1
 770 -98 l 1,8,-1
 502 175 l 1,9,-1
 234 -98 l 1,10,-1
 146 -7 l 1,11,-1
 413 265 l 1,0,-1
EndSplineSet
EndChar

StartChar: n
Encoding: 110 110 493
Width: 1129
VWidth: 1798
GlyphClass: 2
Flags: W
AnchorPoint: "Anchor-1" 563 -240 basechar 0
AnchorPoint: "Anchor-0" 573 1040 basechar 0
LayerCount: 2
Fore
SplineSet
594 722 m 0,0,1
 487 722 487 722 412.5 660 c 128,-1,2
 338 598 338 598 301 510 c 1,3,-1
 301 -250 l 1,4,-1
 149 -250 l 1,5,-1
 149 832 l 1,6,-1
 294 832 l 1,7,-1
 299 675 l 1,8,9
 356 757 356 757 442 804.5 c 128,-1,10
 528 852 528 852 636 852 c 0,11,12
 797 852 797 852 890 761.5 c 128,-1,13
 983 671 983 671 983 457 c 2,14,-1
 983 -250 l 1,15,-1
 830 -250 l 1,16,-1
 830 458 l 2,17,18
 830 605 830 605 767.5 663.5 c 128,-1,19
 705 722 705 722 594 722 c 0,0,1
EndSplineSet
Substitution2: "'unic' Unicase lookup 2 subtable" N.unic
Substitution2: "'smcp' Lowercase to Small Capitals lookup 1 subtable" N.smcp
EndChar

StartChar: naira
Encoding: 8358 8358 495
Width: 1599
GlyphClass: 2
Flags: W
LayerCount: 2
Fore
SplineSet
1566 628 m 1,0,-1
 1566 501 l 1,1,-1
 1348 501 l 1,2,-1
 1348 0 l 1,3,-1
 1189 0 l 1,4,-1
 857 501 l 1,5,-1
 405 501 l 1,6,-1
 405 0 l 1,7,-1
 246 0 l 1,8,-1
 246 501 l 1,9,-1
 33 501 l 1,10,-1
 33 628 l 1,11,-1
 246 628 l 1,12,-1
 246 801 l 1,13,-1
 33 801 l 1,14,-1
 33 928 l 1,15,-1
 246 928 l 1,16,-1
 246 1456 l 1,17,-1
 405 1456 l 1,18,-1
 756 928 l 1,19,-1
 1192 928 l 1,20,-1
 1192 1456 l 1,21,-1
 1348 1456 l 1,22,-1
 1348 928 l 1,23,-1
 1566 928 l 1,24,-1
 1566 801 l 1,25,-1
 1348 801 l 1,26,-1
 1348 628 l 1,27,-1
 1566 628 l 1,0,-1
405 1183 m 1,28,-1
 405 928 l 1,29,-1
 574 928 l 1,30,-1
 405 1183 l 1,28,-1
405 628 m 1,31,-1
 773 628 l 1,32,-1
 658 801 l 1,33,-1
 405 801 l 1,34,-1
 405 628 l 1,31,-1
955 628 m 1,35,-1
 1192 628 l 1,36,-1
 1192 801 l 1,37,-1
 840 801 l 1,38,-1
 955 628 l 1,35,-1
1192 271 m 1,39,-1
 1192 501 l 1,40,-1
 1039 501 l 1,41,-1
 1192 271 l 1,39,-1
EndSplineSet
EndChar

StartChar: nine
Encoding: 57 57 500
Width: 1144
VWidth: 1798
GlyphClass: 2
Flags: W
LayerCount: 2
Fore
SplineSet
304 -125 m 1,0,-1
 326 -125 l 2,1,2
 479 -125 479 -125 580.5 -83 c 128,-1,3
 682 -41 682 -41 741.5 32.5 c 128,-1,4
 801 106 801 106 828 202.5 c 128,-1,5
 855 299 855 299 858 408 c 1,6,7
 799 330 799 330 711 281 c 128,-1,8
 623 232 623 232 518 232 c 0,9,10
 378 232 378 232 285 303 c 128,-1,11
 192 374 192 374 146.5 485.5 c 128,-1,12
 101 597 101 597 101 719 c 0,13,14
 101 859 101 859 152.5 974 c 128,-1,15
 204 1089 204 1089 304 1157.5 c 128,-1,16
 404 1226 404 1226 547 1226 c 0,17,18
 708 1226 708 1226 810.5 1146 c 128,-1,19
 913 1066 913 1066 961.5 933 c 128,-1,20
 1010 800 1010 800 1010 641 c 2,21,-1
 1010 550 l 2,22,23
 1010 399 1010 399 981.5 255 c 128,-1,24
 953 111 953 111 879.5 -4.5 c 128,-1,25
 806 -120 806 -120 672 -188 c 128,-1,26
 538 -256 538 -256 326 -256 c 2,27,-1
 303 -256 l 1,28,-1
 304 -125 l 1,0,-1
251 727 m 0,29,30
 251 634 251 634 283.5 550.5 c 128,-1,31
 316 467 316 467 380.5 414 c 128,-1,32
 445 361 445 361 540 361 c 0,33,34
 656 361 656 361 740 429 c 128,-1,35
 824 497 824 497 859 588 c 1,36,-1
 859 660 l 2,37,38
 859 874 859 874 769 986 c 128,-1,39
 679 1098 679 1098 548 1098 c 0,40,41
 455 1098 455 1098 388.5 1048 c 128,-1,42
 322 998 322 998 286.5 913.5 c 128,-1,43
 251 829 251 829 251 727 c 0,29,30
EndSplineSet
Substitution2: "'ss01' Style Set 1 lookup 35 subtable" uni06F9
Substitution2: "'numr' Numerators lookup 21 subtable" nine.frac
Substitution2: "'dnom' Denominators lookup 20 subtable" nine.sup
Substitution2: "'frac' Diagonal Fractions lookup 19 subtable" nine.frac
Substitution2: "Single Substitution lookup 18 subtable" nine.sup
Substitution2: "'onum' Oldstyle Figures lookup 14 subtable" nine.tnum
Substitution2: "'c2sc' Capitals to Small Capitals lookup 0 subtable" nine.smcp
Position2: "'cpsp' Capital Spacing lookup 0 subtable" dx=36 dy=0 dh=72 dv=0
EndChar

StartChar: nine.onum
Encoding: 65752 -1 502
Width: 1196
GlyphClass: 1
Flags: W
LayerCount: 2
Fore
SplineSet
476 -218 m 0,0,1
 657 -218 657 -218 776 -84 c 128,-1,2
 895 50 895 50 909 303 c 1,3,4
 850 238 850 238 764 203.5 c 128,-1,5
 678 169 678 169 578 169 c 0,6,7
 438 169 438 169 335.5 234 c 128,-1,8
 233 299 233 299 177 412 c 128,-1,9
 121 525 121 525 121 668 c 0,10,11
 121 828 121 828 181.5 944 c 128,-1,12
 242 1060 242 1060 345 1122.5 c 128,-1,13
 448 1185 448 1185 575 1185 c 0,14,15
 796 1185 796 1185 930 1045 c 128,-1,16
 1064 905 1064 905 1064 618 c 2,17,-1
 1064 366 l 2,18,19
 1064 137 1064 137 989 -21.5 c 128,-1,20
 914 -180 914 -180 784 -262 c 128,-1,21
 654 -344 654 -344 489 -344 c 0,22,23
 422 -344 422 -344 349.5 -329.5 c 128,-1,24
 277 -315 277 -315 212 -284 c 1,25,-1
 245 -164 l 1,26,27
 298 -186 298 -186 353.5 -202 c 128,-1,28
 409 -218 409 -218 476 -218 c 0,0,1
276 668 m 0,29,30
 276 571 276 571 313 485.5 c 128,-1,31
 350 400 350 400 419.5 347.5 c 128,-1,32
 489 295 489 295 585 295 c 0,33,34
 721 295 721 295 801 359.5 c 128,-1,35
 881 424 881 424 911 502 c 1,36,-1
 911 633 l 2,37,38
 911 845 911 845 824 952 c 128,-1,39
 737 1059 737 1059 580 1059 c 0,40,41
 448 1059 448 1059 362 954 c 128,-1,42
 276 849 276 849 276 668 c 0,29,30
EndSplineSet
EndChar

StartChar: nine.smcp
Encoding: 65753 -1 503
Width: 1033
GlyphClass: 2
Flags: W
LayerCount: 2
Fore
SplineSet
273 120 m 1,0,-1
 294 120 l 2,1,2
 458 120 458 120 558 170 c 128,-1,3
 658 220 658 220 705 308 c 128,-1,4
 752 396 752 396 758 509 c 1,5,6
 713 454 713 454 639 417.5 c 128,-1,7
 565 381 565 381 466 381 c 0,8,9
 341 381 341 381 256 435.5 c 128,-1,10
 171 490 171 490 128.5 579.5 c 128,-1,11
 86 669 86 669 86 773 c 0,12,13
 86 885 86 885 134.5 977.5 c 128,-1,14
 183 1070 183 1070 274.5 1125.5 c 128,-1,15
 366 1181 366 1181 495 1181 c 0,16,17
 636 1181 636 1181 728.5 1120 c 128,-1,18
 821 1059 821 1059 866.5 953 c 128,-1,19
 912 847 912 847 912 710 c 2,20,-1
 912 630 l 2,21,22
 912 497 912 497 881 381 c 128,-1,23
 850 265 850 265 779 177.5 c 128,-1,24
 708 90 708 90 589 40.5 c 128,-1,25
 470 -9 470 -9 294 -9 c 2,26,-1
 272 -9 l 1,27,-1
 273 120 l 1,0,-1
238 775 m 0,28,29
 238 705 238 705 266.5 643 c 128,-1,30
 295 581 295 581 351.5 542.5 c 128,-1,31
 408 504 408 504 491 504 c 0,32,33
 591 504 591 504 661 554.5 c 128,-1,34
 731 605 731 605 759 671 c 1,35,-1
 759 735 l 2,36,37
 759 892 759 892 683.5 972.5 c 128,-1,38
 608 1053 608 1053 496 1053 c 0,39,40
 415 1053 415 1053 357 1014.5 c 128,-1,41
 299 976 299 976 268.5 912.5 c 128,-1,42
 238 849 238 849 238 775 c 0,28,29
EndSplineSet
EndChar

StartChar: nine.sup
Encoding: 65754 -1 504
Width: 745
GlyphClass: 2
Flags: W
LayerCount: 2
Fore
SplineSet
208 100 m 1,0,-1
 223 100 l 2,1,2
 369 100 369 100 439.5 158.5 c 128,-1,3
 510 217 510 217 519 331 c 1,4,5
 487 297 487 297 439.5 276 c 128,-1,6
 392 255 392 255 334 255 c 0,7,8
 209 255 209 255 142 330 c 128,-1,9
 75 405 75 405 75 520 c 0,10,11
 75 596 75 596 110 659.5 c 128,-1,12
 145 723 145 723 209.5 761.5 c 128,-1,13
 274 800 274 800 361 800 c 0,14,15
 499 800 499 800 575 715.5 c 128,-1,16
 651 631 651 631 651 480 c 2,17,-1
 651 423 l 2,18,19
 651 219 651 219 547.5 106 c 128,-1,20
 444 -7 444 -7 223 -7 c 2,21,-1
 207 -7 l 1,22,-1
 208 100 l 1,0,-1
206 520 m 0,23,24
 206 454 206 454 246 406.5 c 128,-1,25
 286 359 286 359 362 359 c 0,26,27
 422 359 422 359 462.5 386 c 128,-1,28
 503 413 503 413 520 448 c 1,29,-1
 520 504 l 2,30,31
 520 598 520 598 475.5 644.5 c 128,-1,32
 431 691 431 691 362 691 c 0,33,34
 289 691 289 691 247.5 639.5 c 128,-1,35
 206 588 206 588 206 520 c 0,23,24
EndSplineSet
EndChar

StartChar: notequal
Encoding: 8800 8800 506
Width: 1129
GlyphClass: 2
Flags: W
LayerCount: 2
Fore
SplineSet
985 543 m 1,0,-1
 985 408 l 1,1,-1
 456 408 l 1,2,-1
 309 155 l 1,3,-1
 226 205 l 1,4,-1
 344 408 l 1,5,-1
 151 408 l 1,6,-1
 151 543 l 1,7,-1
 422 543 l 1,8,-1
 583 821 l 1,9,-1
 151 821 l 1,10,-1
 151 956 l 1,11,-1
 661 956 l 1,12,-1
 816 1223 l 1,13,-1
 899 1173 l 1,14,-1
 773 956 l 1,15,-1
 985 956 l 1,16,-1
 985 821 l 1,17,-1
 695 821 l 1,18,-1
 534 543 l 1,19,-1
 985 543 l 1,0,-1
EndSplineSet
EndChar

StartChar: nsuperior
Encoding: 8319 8319 507
Width: 864
GlyphClass: 2
Flags: W
LayerCount: 2
Fore
SplineSet
446 1346 m 0,0,1
 376 1346 376 1346 331 1309.5 c 128,-1,2
 286 1273 286 1273 264 1212 c 1,3,-1
 264 651 l 1,4,-1
 123 651 l 1,5,-1
 123 1452 l 1,6,-1
 230 1452 l 1,7,-1
 256 1323 l 1,8,9
 293 1389 293 1389 352 1427.5 c 128,-1,10
 411 1466 411 1466 488 1466 c 0,11,12
 610 1466 610 1466 683 1393.5 c 128,-1,13
 756 1321 756 1321 756 1159 c 2,14,-1
 756 651 l 1,15,-1
 615 651 l 1,16,-1
 615 1137 l 2,17,18
 615 1253 615 1253 569 1299.5 c 128,-1,19
 523 1346 523 1346 446 1346 c 0,0,1
EndSplineSet
EndChar

StartChar: numbersign
Encoding: 35 35 509
Width: 1226
VWidth: 1798
GlyphClass: 2
Flags: W
LayerCount: 2
Fore
SplineSet
271 -250 m 1,0,-1
 350 160 l 1,1,-1
 102 160 l 1,2,-1
 102 277 l 1,3,-1
 372 277 l 1,4,-1
 448 672 l 1,5,-1
 178 672 l 1,6,-1
 178 790 l 1,7,-1
 470 790 l 1,8,-1
 550 1206 l 1,9,-1
 672 1206 l 1,10,-1
 592 790 l 1,11,-1
 881 790 l 1,12,-1
 961 1206 l 1,13,-1
 1082 1206 l 1,14,-1
 1002 790 l 1,15,-1
 1218 790 l 1,16,-1
 1218 672 l 1,17,-1
 980 672 l 1,18,-1
 904 277 l 1,19,-1
 1143 277 l 1,20,-1
 1143 160 l 1,21,-1
 882 160 l 1,22,-1
 803 -250 l 1,23,-1
 681 -250 l 1,24,-1
 760 160 l 1,25,-1
 472 160 l 1,26,-1
 393 -250 l 1,27,-1
 271 -250 l 1,0,-1
494 277 m 1,28,-1
 782 277 l 1,29,-1
 858 672 l 1,30,-1
 570 672 l 1,31,-1
 494 277 l 1,28,-1
EndSplineSet
EndChar

StartChar: o
Encoding: 111 111 510
Width: 1158
VWidth: 1798
GlyphClass: 2
Flags: W
AnchorPoint: "Anchor-1" 584 -251 basechar 0
AnchorPoint: "Anchor-0" 575 1040 basechar 0
LayerCount: 2
Fore
SplineSet
92 277 m 2,0,-1
 92 305 l 2,1,2
 92 462 92 462 152 585.5 c 128,-1,3
 212 709 212 709 321 780.5 c 128,-1,4
 430 852 430 852 578 852 c 0,5,6
 728 852 728 852 838 780.5 c 128,-1,7
 948 709 948 709 1007.5 585.5 c 128,-1,8
 1067 462 1067 462 1067 305 c 2,9,-1
 1067 277 l 2,10,11
 1067 120 1067 120 1007.5 -3.5 c 128,-1,12
 948 -127 948 -127 838.5 -198.5 c 128,-1,13
 729 -270 729 -270 580 -270 c 256,14,15
 431 -270 431 -270 321.5 -198.5 c 128,-1,16
 212 -127 212 -127 152 -3.5 c 128,-1,17
 92 120 92 120 92 277 c 2,0,-1
244 305 m 2,18,-1
 244 277 l 2,19,20
 244 164 244 164 282 68.5 c 128,-1,21
 320 -27 320 -27 395 -84.5 c 128,-1,22
 470 -142 470 -142 580 -142 c 0,23,24
 689 -142 689 -142 763.5 -84.5 c 128,-1,25
 838 -27 838 -27 876 68.5 c 128,-1,26
 914 164 914 164 914 277 c 2,27,-1
 914 305 l 2,28,29
 914 416 914 416 876 512 c 128,-1,30
 838 608 838 608 763 666.5 c 128,-1,31
 688 725 688 725 578 725 c 0,32,33
 469 725 469 725 394.5 666.5 c 128,-1,34
 320 608 320 608 282 512 c 128,-1,35
 244 416 244 416 244 305 c 2,18,-1
EndSplineSet
Substitution2: "'unic' Unicase lookup 2 subtable" O
Substitution2: "'smcp' Lowercase to Small Capitals lookup 1 subtable" O.smcp
EndChar

StartChar: oe
Encoding: 339 339 515
Width: 1876
VWidth: 1798
GlyphClass: 2
Flags: W
AnchorPoint: "Anchor-1" 945 -251 basechar 0
AnchorPoint: "Anchor-0" 945 1040 basechar 0
LayerCount: 2
Fore
SplineSet
96 277 m 2,0,-1
 96 305 l 2,1,2
 96 462 96 462 154.5 585.5 c 128,-1,3
 213 709 213 709 320.5 780.5 c 128,-1,4
 428 852 428 852 576 852 c 0,5,6
 718 852 718 852 823 787 c 128,-1,7
 928 722 928 722 987 611 c 1,8,9
 1050 723 1050 723 1152.5 788 c 128,-1,10
 1255 853 1255 853 1374 852 c 0,11,12
 1586 852 1586 852 1697 721 c 128,-1,13
 1808 590 1808 590 1808 380 c 2,14,-1
 1808 268 l 1,15,-1
 1067 268 l 1,16,-1
 1067 265 l 2,17,18
 1067 152 1067 152 1106 59.5 c 128,-1,19
 1145 -33 1145 -33 1218.5 -88 c 128,-1,20
 1292 -143 1292 -143 1395 -143 c 0,21,22
 1509 -143 1509 -143 1585 -110.5 c 128,-1,23
 1661 -78 1661 -78 1713 -29 c 1,24,-1
 1775 -134 l 1,25,26
 1723 -187 1723 -187 1630.5 -229 c 128,-1,27
 1538 -271 1538 -271 1395 -271 c 0,28,29
 1259 -271 1259 -271 1153 -207 c 128,-1,30
 1047 -143 1047 -143 986 -32 c 1,31,32
 926 -142 926 -142 822 -206.5 c 128,-1,33
 718 -271 718 -271 578 -271 c 0,34,35
 429 -271 429 -271 321 -199.5 c 128,-1,36
 213 -128 213 -128 154.5 -4 c 128,-1,37
 96 120 96 120 96 277 c 2,0,-1
1374 725 m 0,38,39
 1254 725 1254 725 1173 631 c 128,-1,40
 1092 537 1092 537 1072 395 c 1,41,-1
 1656 395 l 1,42,-1
 1656 422 l 2,43,44
 1656 504 1656 504 1624.5 572.5 c 128,-1,45
 1593 641 1593 641 1530.5 683 c 128,-1,46
 1468 725 1468 725 1374 725 c 0,38,39
249 305 m 2,47,-1
 249 277 l 2,48,49
 249 164 249 164 285 68.5 c 128,-1,50
 321 -27 321 -27 394.5 -85 c 128,-1,51
 468 -143 468 -143 578 -143 c 0,52,53
 687 -143 687 -143 760 -85 c 128,-1,54
 833 -27 833 -27 869.5 68.5 c 128,-1,55
 906 164 906 164 906 277 c 2,56,-1
 906 305 l 2,57,58
 906 416 906 416 869.5 512 c 128,-1,59
 833 608 833 608 759.5 666.5 c 128,-1,60
 686 725 686 725 576 725 c 0,61,62
 467 725 467 725 394 666.5 c 128,-1,63
 321 608 321 608 285 512 c 128,-1,64
 249 416 249 416 249 305 c 2,47,-1
EndSplineSet
Substitution2: "'unic' Unicase lookup 2 subtable" OE
Substitution2: "'smcp' Lowercase to Small Capitals lookup 1 subtable" OE.smcp
EndChar

StartChar: ogonek
Encoding: 731 731 516
Width: 534
VWidth: 1798
GlyphClass: 2
Flags: W
LayerCount: 2
Fore
SplineSet
299 -202 m 1,0,-1
 365 -250 l 1,1,2
 299 -300 299 -300 244.5 -355.5 c 128,-1,3
 190 -411 190 -411 190 -478 c 0,4,5
 190 -512 190 -512 207.5 -534 c 128,-1,6
 225 -556 225 -556 271 -556 c 0,7,8
 306 -556 306 -556 332 -546 c 128,-1,9
 358 -536 358 -536 374 -527 c 1,10,-1
 388 -630 l 1,11,12
 365 -645 365 -645 328.5 -659.5 c 128,-1,13
 292 -674 292 -674 236 -674 c 0,14,15
 159 -674 159 -674 107 -628.5 c 128,-1,16
 55 -583 55 -583 55 -494 c 0,17,18
 55 -416 55 -416 116.5 -339.5 c 128,-1,19
 178 -263 178 -263 299 -202 c 1,0,-1
EndSplineSet
EndChar

StartChar: ohorn
Encoding: 417 417 518
Width: 1159
VWidth: 1798
GlyphClass: 2
Flags: W
AnchorPoint: "Anchor-1" 502 -250 basechar 0
AnchorPoint: "Anchor-0" 582 1040 basechar 0
LayerCount: 2
Fore
SplineSet
91 277 m 2,0,-1
 91 305 l 2,1,2
 91 462 91 462 151 585.5 c 128,-1,3
 211 709 211 709 320 780.5 c 128,-1,4
 429 852 429 852 577 852 c 0,5,6
 684 852 684 852 770.5 815 c 128,-1,7
 857 778 857 778 920 711 c 1,8,9
 1018 720 1018 720 1045 784 c 128,-1,10
 1072 848 1072 848 1072 950 c 1,11,-1
 1197 950 l 1,12,13
 1197 816 1197 816 1150.5 730 c 128,-1,14
 1104 644 1104 644 989 619 c 1,15,16
 1066 484 1066 484 1066 305 c 2,17,-1
 1066 277 l 2,18,19
 1066 120 1066 120 1006.5 -3.5 c 128,-1,20
 947 -127 947 -127 837.5 -198.5 c 128,-1,21
 728 -270 728 -270 579 -270 c 256,22,23
 430 -270 430 -270 320.5 -198.5 c 128,-1,24
 211 -127 211 -127 151 -3.5 c 128,-1,25
 91 120 91 120 91 277 c 2,0,-1
243 305 m 2,26,-1
 243 277 l 2,27,28
 243 164 243 164 281 68.5 c 128,-1,29
 319 -27 319 -27 394 -84.5 c 128,-1,30
 469 -142 469 -142 579 -142 c 0,31,32
 688 -142 688 -142 762.5 -84.5 c 128,-1,33
 837 -27 837 -27 875 68.5 c 128,-1,34
 913 164 913 164 913 277 c 2,35,-1
 913 305 l 2,36,37
 913 416 913 416 875 512 c 128,-1,38
 837 608 837 608 762 666.5 c 128,-1,39
 687 725 687 725 577 725 c 0,40,41
 468 725 468 725 393.5 666.5 c 128,-1,42
 319 608 319 608 281 512 c 128,-1,43
 243 416 243 416 243 305 c 2,26,-1
EndSplineSet
EndChar

StartChar: one
Encoding: 49 49 521
Width: 1144
VWidth: 1798
GlyphClass: 2
Flags: W
LayerCount: 2
Fore
SplineSet
712 1213 m 1,0,-1
 712 -250 l 1,1,-1
 559 -250 l 1,2,-1
 559 1022 l 1,3,-1
 175 881 l 1,4,-1
 175 1021 l 1,5,-1
 687 1213 l 1,6,-1
 712 1213 l 1,0,-1
EndSplineSet
Substitution2: "'ss01' Style Set 1 lookup 35 subtable" uni06F1
Substitution2: "'numr' Numerators lookup 21 subtable" onesuperior
Substitution2: "'dnom' Denominators lookup 20 subtable" one.sup
Substitution2: "'frac' Diagonal Fractions lookup 19 subtable" onesuperior
Substitution2: "Single Substitution lookup 18 subtable" one.sup
Substitution2: "'onum' Oldstyle Figures lookup 14 subtable" one.tnum
Substitution2: "'c2sc' Capitals to Small Capitals lookup 0 subtable" one.smcp
Position2: "'cpsp' Capital Spacing lookup 0 subtable" dx=36 dy=0 dh=72 dv=0
EndChar

StartChar: one.onum
Encoding: 65756 -1 522
Width: 981
GlyphClass: 1
Flags: W
LayerCount: 2
Fore
SplineSet
680 1165 m 1,0,-1
 680 0 l 1,1,-1
 528 0 l 1,2,-1
 528 975 l 1,3,-1
 160 825 l 1,4,-1
 160 963 l 1,5,-1
 649 1165 l 1,6,-1
 680 1165 l 1,0,-1
EndSplineSet
EndChar

StartChar: one.smcp
Encoding: 65757 -1 523
Width: 1033
GlyphClass: 2
Flags: W
LayerCount: 2
Fore
SplineSet
652 1168 m 1,0,-1
 652 0 l 1,1,-1
 499 0 l 1,2,-1
 499 981 l 1,3,-1
 157 876 l 1,4,-1
 157 1010 l 1,5,-1
 629 1168 l 1,6,-1
 652 1168 l 1,0,-1
EndSplineSet
EndChar

StartChar: one.sup
Encoding: 65758 -1 524
Width: 745
GlyphClass: 2
Flags: W
LayerCount: 2
Fore
SplineSet
480 790 m 1,0,-1
 480 0 l 1,1,-1
 349 0 l 1,2,-1
 349 631 l 1,3,-1
 125 568 l 1,4,-1
 125 678 l 1,5,-1
 464 790 l 1,6,-1
 480 790 l 1,0,-1
EndSplineSet
EndChar

StartChar: onesuperior
Encoding: 185 185 529
Width: 745
VWidth: 1798
GlyphClass: 2
Flags: W
LayerCount: 2
Fore
SplineSet
480 1206 m 1,0,-1
 480 416 l 1,1,-1
 349 416 l 1,2,-1
 349 1048 l 1,3,-1
 125 985 l 1,4,-1
 125 1095 l 1,5,-1
 464 1206 l 1,6,-1
 480 1206 l 1,0,-1
EndSplineSet
EndChar

StartChar: ordfeminine
Encoding: 170 170 530
Width: 912
VWidth: 1798
GlyphClass: 2
Flags: W
LayerCount: 2
Fore
SplineSet
634 456 m 1,0,1
 622 495 622 495 616 539 c 1,2,3
 583 500 583 500 529 471 c 128,-1,4
 475 442 475 442 401 442 c 0,5,6
 281 442 281 442 216.5 502.5 c 128,-1,7
 152 563 152 563 152 664 c 0,8,9
 152 774 152 774 236.5 834.5 c 128,-1,10
 321 895 321 895 486 895 c 2,11,-1
 611 895 l 1,12,-1
 611 952 l 2,13,14
 611 1026 611 1026 575 1067 c 128,-1,15
 539 1108 539 1108 468 1108 c 0,16,17
 389 1108 389 1108 343.5 1077 c 128,-1,18
 298 1046 298 1046 298 984 c 1,19,-1
 163 994 l 1,20,21
 163 1095 163 1095 246.5 1161 c 128,-1,22
 330 1227 330 1227 468 1227 c 0,23,24
 593 1227 593 1227 670 1157.5 c 128,-1,25
 747 1088 747 1088 747 951 c 2,26,-1
 747 637 l 2,27,28
 747 588 747 588 753 544 c 128,-1,29
 759 500 759 500 773 456 c 1,30,-1
 634 456 l 1,0,1
431 558 m 0,31,32
 482 558 482 558 533 584 c 128,-1,33
 584 610 584 610 611 644 c 1,34,-1
 611 798 l 1,35,-1
 487 798 l 2,36,37
 387 798 387 798 337.5 762 c 128,-1,38
 288 726 288 726 288 668 c 0,39,40
 288 618 288 618 322 588 c 128,-1,41
 356 558 356 558 431 558 c 0,31,32
EndSplineSet
EndChar

StartChar: ordmasculine
Encoding: 186 186 531
Width: 928
VWidth: 1798
GlyphClass: 2
Flags: W
LayerCount: 2
Fore
SplineSet
129 788 m 2,0,-1
 129 878 l 2,1,2
 129 1031 129 1031 218.5 1129 c 128,-1,3
 308 1227 308 1227 462 1227 c 0,4,5
 617 1227 617 1227 706 1129 c 128,-1,6
 795 1031 795 1031 795 878 c 2,7,-1
 795 788 l 2,8,9
 795 636 795 636 706 538.5 c 128,-1,10
 617 441 617 441 464 441 c 0,11,12
 309 441 309 441 219 538.5 c 128,-1,13
 129 636 129 636 129 788 c 2,0,-1
265 878 m 2,14,-1
 265 788 l 2,15,16
 265 691 265 691 313.5 625 c 128,-1,17
 362 559 362 559 464 559 c 0,18,19
 562 559 562 559 611 625 c 128,-1,20
 660 691 660 691 660 788 c 2,21,-1
 660 878 l 2,22,23
 660 974 660 974 611 1041 c 128,-1,24
 562 1108 562 1108 462 1108 c 256,25,26
 362 1108 362 1108 313.5 1041 c 128,-1,27
 265 974 265 974 265 878 c 2,14,-1
EndSplineSet
EndChar

StartChar: oslash
Encoding: 248 248 532
Width: 1151
VWidth: 1798
GlyphClass: 2
Flags: W
AnchorPoint: "Anchor-0" 537 1039 basechar 0
LayerCount: 2
Fore
SplineSet
91 277 m 2,0,-1
 91 305 l 2,1,2
 91 462 91 462 151 585.5 c 128,-1,3
 211 709 211 709 320 780.5 c 128,-1,4
 429 852 429 852 577 852 c 0,5,6
 691 852 691 852 786 808 c 1,7,-1
 862 962 l 1,8,-1
 970 962 l 1,9,-1
 869 757 l 1,10,11
 963 685 963 685 1014.5 567.5 c 128,-1,12
 1066 450 1066 450 1066 305 c 2,13,-1
 1066 277 l 2,14,15
 1066 120 1066 120 1006.5 -3.5 c 128,-1,16
 947 -127 947 -127 837.5 -198.5 c 128,-1,17
 728 -270 728 -270 579 -270 c 0,18,19
 473 -270 473 -270 383 -231 c 1,20,-1
 307 -387 l 1,21,-1
 199 -387 l 1,22,-1
 299 -184 l 1,23,24
 200 -112 200 -112 145.5 8 c 128,-1,25
 91 128 91 128 91 277 c 2,0,-1
243 305 m 2,26,-1
 243 277 l 2,27,28
 243 177 243 177 273 89.5 c 128,-1,29
 303 2 303 2 362 -56 c 1,30,-1
 727 688 l 1,31,32
 660 725 660 725 577 725 c 0,33,34
 468 725 468 725 393.5 666.5 c 128,-1,35
 319 608 319 608 281 512 c 128,-1,36
 243 416 243 416 243 305 c 2,26,-1
913 305 m 2,37,38
 913 399 913 399 885.5 483 c 128,-1,39
 858 567 858 567 805 626 c 1,40,-1
 442 -113 l 1,41,42
 504 -142 504 -142 579 -142 c 0,43,44
 688 -142 688 -142 762.5 -84.5 c 128,-1,45
 837 -27 837 -27 875 68.5 c 128,-1,46
 913 164 913 164 913 277 c 2,47,-1
 913 305 l 2,37,38
EndSplineSet
Substitution2: "'unic' Unicase lookup 2 subtable" Oslash
Substitution2: "'smcp' Lowercase to Small Capitals lookup 1 subtable" Oslash.smcp
EndChar

